<?xml version="1.0" encoding="UTF-8" ?>
<!DOCTYPE svg PUBLIC "-//W3C//DTD SVG 1.1//EN" "http://www.w3.org/Graphics/SVG/1.1/DTD/svg11.dtd">
<svg width="960pt" height="540pt" viewBox="0 0 960 540" version="1.1" xmlns="http://www.w3.org/2000/svg">
<g id="#c79309ff">
<path fill="#c79309" stroke="#c79309" stroke-width="0.09375" opacity="1.00" d=" M 44.60 126.79 C 44.99 124.61 47.48 125.50 49.02 125.31 C 94.01 126.12 139.01 126.02 184.00 125.99 C 199.75 125.96 215.50 125.68 231.25 125.29 C 231.23 128.63 232.80 132.23 231.51 135.42 C 190.18 210.11 148.82 284.80 107.49 359.49 C 137.74 359.50 167.98 359.49 198.23 359.50 C 206.72 341.90 215.18 324.30 223.67 306.70 C 227.16 306.15 230.64 305.61 234.13 305.08 C 232.65 327.41 231.11 349.74 229.63 372.08 C 229.41 374.28 229.73 376.72 228.31 378.61 C 181.55 377.91 134.78 378.00 88.01 378.00 C 72.55 378.00 57.09 378.18 41.64 378.54 C 41.64 375.17 40.03 371.54 41.42 368.36 C 82.86 293.57 124.32 218.79 165.75 144.00 C 136.33 144.02 106.91 143.96 77.49 144.03 C 73.10 158.73 68.62 173.41 64.17 188.10 C 60.81 188.58 57.44 189.06 54.07 189.53 C 50.95 168.62 47.61 147.72 44.60 126.79 Z" />
<path fill="#c79309" stroke="#c79309" stroke-width="0.09375" opacity="1.00" d=" M 260.96 150.00 C 316.58 151.00 372.23 150.41 427.85 149.97 L 428.74 151.10 C 425.59 169.21 422.05 187.26 418.72 205.34 C 415.79 205.77 412.87 206.21 409.94 206.63 C 406.48 193.43 402.98 180.23 399.55 167.02 C 378.53 166.97 357.52 167.01 336.50 167.00 C 336.50 195.83 336.50 224.66 336.50 253.50 C 349.69 253.49 362.89 253.53 376.07 253.11 C 378.52 253.12 380.63 251.24 381.19 248.91 C 383.30 241.47 385.11 233.94 387.16 226.48 C 390.73 226.32 394.31 226.16 397.89 226.00 C 397.29 249.41 397.28 272.84 397.89 296.25 C 394.30 296.52 390.72 296.79 387.14 297.06 C 385.09 289.37 383.19 281.64 381.09 273.96 C 380.57 271.60 378.69 269.30 376.09 269.37 C 362.90 269.00 349.70 269.00 336.50 269.00 C 336.57 299.50 336.30 330.00 336.83 360.49 C 358.54 360.50 380.25 360.50 401.96 360.50 C 408.82 346.26 415.62 331.99 422.52 317.77 C 425.81 317.30 429.11 316.81 432.41 316.33 C 431.20 335.55 429.92 354.76 428.75 373.99 C 428.56 375.36 428.73 376.90 427.99 378.15 C 424.75 378.87 421.37 378.26 418.08 378.39 C 365.99 377.99 313.88 377.60 261.79 378.50 C 261.45 375.79 261.18 373.08 261.08 370.37 C 268.31 368.56 275.47 366.47 282.65 364.50 C 285.20 363.97 287.32 361.73 287.16 359.03 C 287.59 343.34 287.47 327.64 287.50 311.94 C 287.39 266.31 287.73 220.67 287.30 175.03 C 287.10 171.63 287.98 166.63 283.94 165.14 C 276.50 162.74 268.93 160.75 261.45 158.50 C 261.28 155.67 261.11 152.84 260.96 150.00 Z" />
<path fill="#c79309" stroke="#c79309" stroke-width="0.09375" opacity="1.00" d=" M 457.96 150.00 C 479.70 150.65 501.48 151.02 523.22 149.99 C 547.90 180.92 572.55 211.87 597.22 242.81 C 613.07 262.90 629.36 282.65 644.82 303.05 C 643.96 258.69 645.02 214.32 644.20 169.97 C 644.61 166.81 642.03 164.41 639.10 163.97 C 632.44 162.16 625.79 160.32 619.12 158.52 C 618.93 155.68 618.76 152.84 618.61 150.00 C 642.81 150.82 667.02 150.84 691.22 150.00 C 691.50 152.84 691.77 155.68 692.02 158.52 C 684.69 160.63 677.33 162.66 670.03 164.85 C 667.19 165.39 665.77 168.30 665.95 170.98 C 665.20 190.67 665.61 210.37 665.50 230.06 C 665.50 279.44 665.51 328.83 665.50 378.21 C 659.27 378.81 653.05 379.39 646.84 380.01 C 608.60 331.98 570.40 283.93 532.17 235.89 C 523.16 224.64 514.19 213.35 505.69 201.70 C 506.52 253.47 505.51 305.24 506.27 357.01 C 506.14 359.80 506.84 363.46 510.07 364.17 C 517.09 366.23 524.19 368.02 531.24 370.01 C 531.40 372.83 531.57 375.67 531.73 378.50 C 507.41 377.86 483.09 377.89 458.77 378.50 C 458.49 375.83 458.22 373.15 457.98 370.48 C 465.20 368.48 472.45 366.54 479.67 364.48 C 482.17 363.92 484.37 361.76 484.16 359.04 C 484.59 343.36 484.48 327.68 484.50 312.00 C 484.49 272.00 484.51 232.01 484.49 192.01 C 484.42 184.65 484.46 177.27 484.12 169.92 C 484.15 167.55 482.50 165.39 480.19 164.86 C 472.97 162.67 465.69 160.64 458.45 158.50 C 458.28 155.67 458.11 152.84 457.96 150.00 Z" />
<path fill="#c79309" stroke="#c79309" stroke-width="0.09375" opacity="1.00" d=" M 704.35 151.12 C 704.69 150.82 705.36 150.22 705.70 149.92 C 770.45 150.69 835.24 150.83 900.00 149.90 C 901.75 150.18 904.52 148.94 905.44 151.11 C 902.05 171.08 898.29 191.01 894.77 210.97 C 891.73 211.47 888.69 211.96 885.65 212.44 C 882.11 197.47 878.59 182.48 875.06 167.51 C 859.37 167.50 843.69 167.50 828.00 167.50 C 828.00 222.33 827.99 277.16 828.01 331.99 C 828.06 340.70 828.04 349.40 828.36 358.10 C 828.25 360.75 830.45 362.82 832.92 363.36 C 841.37 365.83 849.89 368.05 858.33 370.57 C 858.45 373.21 858.60 375.86 858.77 378.50 C 822.42 377.91 786.05 377.81 749.70 378.50 C 749.44 375.87 749.15 373.23 748.83 370.62 C 757.58 367.93 766.50 365.81 775.27 363.18 C 777.54 362.55 779.25 360.39 779.14 358.00 C 779.71 337.99 779.42 317.98 779.50 297.97 C 779.50 254.48 779.50 210.99 779.50 167.50 C 763.87 167.50 748.24 167.51 732.61 167.50 C 727.61 181.93 722.60 196.35 717.64 210.79 C 714.60 211.30 711.55 211.80 708.51 212.28 C 707.13 191.89 705.56 171.51 704.35 151.12 Z" />
</g>
</svg>
