<?xml version="1.0" encoding="UTF-8" ?>
<!DOCTYPE svg PUBLIC "-//W3C//DTD SVG 1.1//EN" "http://www.w3.org/Graphics/SVG/1.1/DTD/svg11.dtd">
<svg width="960pt" height="441pt" viewBox="0 0 960 441" version="1.1" xmlns="http://www.w3.org/2000/svg">
<g id="#c79309ff">
<path fill="#c79309" stroke="#c79309" stroke-width="0.09375" opacity="1.00" d=" M 46.94 25.20 C 75.28 25.83 103.62 25.94 131.97 26.00 C 165.56 25.95 199.16 26.27 232.74 25.28 C 233.05 28.27 233.35 31.25 233.66 34.24 C 192.12 109.33 150.53 184.40 108.99 259.50 C 139.24 259.49 169.50 259.51 199.75 259.49 C 208.23 241.88 216.68 224.26 225.21 206.67 C 228.69 206.15 232.16 205.61 235.64 205.08 C 234.11 228.03 232.50 250.98 231.02 273.93 C 230.96 275.51 230.60 277.06 230.12 278.57 C 178.10 277.93 126.07 277.92 74.04 278.06 C 63.74 278.13 53.44 278.30 43.14 278.53 C 43.16 275.14 41.47 271.43 43.00 268.23 C 84.40 193.48 125.84 118.75 167.25 44.00 C 137.84 44.00 108.44 44.00 79.03 44.00 C 74.58 58.69 70.13 73.39 65.68 88.08 C 62.32 88.58 58.95 89.06 55.58 89.54 C 52.64 70.32 49.75 51.09 46.78 31.87 C 46.53 29.65 45.60 27.24 46.94 25.20 Z" />
<path fill="#c79309" stroke="#c79309" stroke-width="0.09375" opacity="1.00" d=" M 262.45 50.00 C 318.01 50.99 373.59 50.44 429.14 49.95 C 429.42 50.23 429.97 50.78 430.24 51.05 C 427.11 69.18 423.53 87.23 420.23 105.33 C 417.30 105.77 414.37 106.20 411.45 106.65 C 407.96 93.43 404.50 80.21 401.02 67.00 C 380.01 67.00 359.01 67.00 338.00 67.00 C 338.00 95.83 338.00 124.66 338.00 153.50 C 351.00 153.51 363.99 153.50 376.98 153.15 C 379.65 153.32 382.10 151.47 382.70 148.88 C 384.80 141.45 386.63 133.95 388.64 126.49 C 392.22 126.32 395.80 126.16 399.39 126.01 C 398.79 149.42 398.78 172.84 399.39 196.25 C 395.82 196.51 392.25 196.78 388.69 197.09 C 386.57 189.45 384.73 181.73 382.64 174.08 C 382.09 171.82 380.47 169.46 377.92 169.41 C 364.62 168.95 351.31 169.02 338.00 169.00 C 338.07 199.50 337.79 230.01 338.34 260.50 C 360.04 260.50 381.74 260.49 403.44 260.51 C 410.32 246.28 417.13 232.03 423.98 217.79 C 427.29 217.30 430.60 216.81 433.91 216.32 C 432.66 236.03 431.38 255.73 430.13 275.43 C 430.06 276.75 429.84 278.80 427.98 278.46 C 373.08 278.01 318.17 277.56 263.27 278.50 C 263.00 275.83 262.72 273.17 262.45 270.51 C 269.82 268.42 277.24 266.50 284.60 264.34 C 286.99 263.77 288.75 261.54 288.65 259.07 C 289.25 234.38 288.90 209.67 289.00 184.97 C 288.89 147.97 289.23 110.96 288.79 73.95 C 288.66 70.96 289.15 66.73 285.76 65.30 C 278.29 62.75 270.61 60.80 263.03 58.56 C 262.76 55.72 262.61 52.86 262.45 50.00 Z" />
<path fill="#c79309" stroke="#c79309" stroke-width="0.09375" opacity="1.00" d=" M 459.45 50.00 C 481.21 50.66 502.99 51.01 524.74 50.00 C 549.91 81.58 575.08 113.15 600.25 144.73 C 615.59 164.17 631.36 183.29 646.32 203.04 C 645.49 159.03 646.47 114.99 645.75 70.97 C 645.88 68.52 645.25 65.53 642.60 64.66 C 635.35 62.34 627.91 60.61 620.60 58.49 C 620.43 55.66 620.27 52.83 620.11 50.00 C 644.31 50.82 668.53 50.83 692.73 50.01 C 692.99 52.84 693.26 55.66 693.54 58.49 C 686.29 60.61 679.01 62.62 671.77 64.76 C 669.68 65.24 667.81 66.88 667.63 69.11 C 667.06 75.71 667.17 82.36 667.03 88.99 C 666.96 152.06 667.02 215.13 667.00 278.21 C 660.77 278.81 654.54 279.41 648.32 280.00 C 612.66 235.18 577.01 190.36 541.36 145.55 C 529.85 131.02 518.09 116.68 507.18 101.69 C 508.02 153.11 507.04 204.55 507.74 255.97 C 507.77 258.84 507.72 262.84 511.02 263.96 C 518.20 266.19 525.52 267.94 532.74 270.01 C 532.90 272.83 533.06 275.66 533.23 278.50 C 508.91 277.87 484.59 277.89 460.27 278.50 C 460.00 275.83 459.72 273.17 459.45 270.51 C 466.81 268.41 474.23 266.51 481.57 264.35 C 483.93 263.74 485.81 261.60 485.66 259.09 C 486.25 234.07 485.90 209.04 486.00 184.02 C 485.89 147.34 486.23 110.66 485.79 73.98 C 485.66 70.96 486.16 66.68 482.71 65.27 C 475.22 62.73 467.53 60.81 459.97 58.52 C 459.77 55.68 459.62 52.84 459.45 50.00 Z" />
<path fill="#c79309" stroke="#c79309" stroke-width="0.09375" opacity="1.00" d=" M 705.87 52.84 C 705.49 51.57 706.16 49.67 707.75 49.89 C 773.84 50.82 839.95 50.68 906.04 49.95 C 906.26 50.24 906.70 50.82 906.93 51.11 C 903.56 71.09 899.80 91.03 896.25 110.99 C 893.21 111.47 890.18 111.96 887.15 112.44 C 883.62 97.46 880.08 82.49 876.58 67.51 C 860.88 67.49 845.19 67.51 829.50 67.50 C 829.51 122.69 829.49 177.88 829.51 233.07 C 829.58 241.40 829.53 249.73 829.86 258.06 C 829.71 260.75 831.94 262.78 834.40 263.36 C 842.84 265.79 851.32 268.11 859.78 270.49 C 859.95 273.16 860.11 275.83 860.28 278.50 C 823.92 277.91 787.55 277.81 751.19 278.50 C 750.92 275.83 750.65 273.17 750.38 270.51 C 759.20 267.99 768.11 265.76 776.90 263.12 C 781.40 261.89 780.73 256.57 780.80 252.97 C 781.24 191.15 780.88 129.32 781.00 67.50 C 765.36 67.50 749.73 67.50 734.10 67.50 C 729.10 81.94 724.11 96.38 719.11 110.81 C 716.07 111.30 713.04 111.79 710.00 112.28 C 708.62 92.46 707.26 72.65 705.87 52.84 Z" />
</g>
<g id="#302a22ff">
<path fill="#302a22" stroke="#302a22" stroke-width="0.09375" opacity="1.00" d=" M 607.43 315.01 C 610.11 315.00 612.79 315.00 615.48 315.00 C 615.48 337.67 615.48 360.33 615.47 383.00 C 612.79 383.00 610.11 383.00 607.43 382.99 C 607.44 360.33 607.45 337.67 607.43 315.01 Z" />
<path fill="#302a22" stroke="#302a22" stroke-width="0.09375" opacity="1.00" d=" M 732.94 315.00 C 735.61 315.00 738.29 315.00 740.98 315.00 C 740.98 318.33 740.98 321.66 740.98 325.00 C 738.29 325.00 735.61 325.00 732.94 325.00 C 732.93 321.66 732.93 318.33 732.94 315.00 Z" />
<path fill="#302a22" stroke="#302a22" stroke-width="0.09375" opacity="1.00" d=" M 501.02 318.04 C 510.27 315.76 519.97 317.51 528.88 320.44 C 528.90 323.28 528.90 326.12 528.91 328.96 C 522.41 325.83 515.26 323.36 507.93 324.13 C 503.73 324.47 499.09 326.01 496.93 329.91 C 494.71 334.15 495.47 340.70 500.34 342.72 C 508.40 346.28 517.96 345.50 525.44 350.57 C 536.16 357.37 535.18 376.28 523.42 381.51 C 511.93 386.65 498.70 384.47 487.18 380.55 C 487.16 377.55 487.16 374.54 487.15 371.54 C 494.68 375.60 503.26 378.41 511.90 377.25 C 515.92 376.77 520.25 375.10 522.34 371.40 C 524.84 366.72 523.75 359.80 518.74 357.24 C 510.29 352.84 499.55 354.31 491.97 347.91 C 486.75 343.59 485.98 335.92 487.74 329.76 C 489.50 323.71 495.07 319.50 501.02 318.04 Z" />
<path fill="#302a22" stroke="#302a22" stroke-width="0.09375" opacity="1.00" d=" M 41.78 318.00 C 48.85 318.03 55.92 317.93 62.99 318.04 C 68.99 318.17 75.53 319.64 79.65 324.34 C 83.84 329.14 84.46 336.02 83.53 342.08 C 82.80 347.35 79.49 352.25 74.61 354.49 C 67.13 358.07 58.61 356.73 50.61 357.00 C 50.61 365.66 50.60 374.33 50.61 382.99 C 47.67 383.00 44.73 383.00 41.78 383.00 C 41.78 361.33 41.78 339.67 41.78 318.00 M 50.61 325.51 C 50.60 333.50 50.60 341.50 50.61 349.49 C 55.39 349.38 60.20 349.79 64.95 349.23 C 69.01 348.76 72.86 345.97 73.97 341.94 C 75.58 336.64 74.34 329.67 68.95 327.03 C 63.21 324.42 56.70 325.87 50.61 325.51 Z" />
<path fill="#302a22" stroke="#302a22" stroke-width="0.09375" opacity="1.00" d=" M 419.81 320.00 C 422.50 320.00 425.19 320.00 427.89 320.00 C 427.89 324.67 427.89 329.33 427.89 334.00 C 433.41 334.00 438.93 333.99 444.46 334.00 C 444.45 336.17 444.45 338.33 444.45 340.50 C 438.93 340.51 433.42 340.50 427.90 340.50 C 427.93 350.01 427.79 359.53 427.96 369.04 C 428.10 371.53 428.35 374.98 431.23 375.84 C 435.53 376.99 440.05 376.34 444.46 376.50 C 444.45 378.66 444.45 380.83 444.45 382.99 C 438.04 382.78 431.15 383.88 425.19 380.91 C 420.93 378.62 420.04 373.29 419.86 368.91 C 419.72 359.45 419.85 349.98 419.81 340.51 C 417.85 340.50 415.89 340.50 413.94 340.50 C 413.92 338.34 413.91 336.17 413.89 334.01 C 415.86 334.00 417.83 333.99 419.81 333.99 C 419.80 329.33 419.80 324.66 419.81 320.00 Z" />
<path fill="#302a22" stroke="#302a22" stroke-width="0.09375" opacity="1.00" d=" M 694.81 320.00 C 697.50 320.00 700.19 320.00 702.89 320.00 C 702.89 324.67 702.89 329.33 702.89 334.00 C 708.41 334.00 713.93 333.99 719.45 334.00 C 719.45 336.16 719.44 338.33 719.45 340.50 C 713.93 340.51 708.41 340.49 702.89 340.51 C 702.94 350.01 702.79 359.52 702.96 369.02 C 703.11 371.48 703.32 374.89 706.13 375.80 C 710.45 377.02 715.02 376.33 719.46 376.50 C 719.44 378.66 719.45 380.83 719.45 382.99 C 713.02 382.78 706.10 383.89 700.14 380.89 C 695.93 378.58 695.05 373.30 694.86 368.95 C 694.71 359.47 694.84 349.99 694.81 340.51 C 692.84 340.50 690.87 340.50 688.92 340.50 C 688.91 338.33 688.90 336.17 688.90 334.01 C 690.86 334.00 692.83 333.99 694.81 333.99 C 694.80 329.33 694.80 324.66 694.81 320.00 Z" />
<path fill="#302a22" stroke="#302a22" stroke-width="0.09375" opacity="1.00" d=" M 99.06 336.36 C 108.00 333.12 118.44 331.17 127.37 335.45 C 133.88 338.62 136.51 346.20 136.65 353.01 C 136.82 363.00 136.66 373.00 136.72 382.99 C 134.03 383.00 131.35 383.00 128.66 383.00 C 128.66 380.70 128.68 378.40 128.72 376.11 C 123.54 384.45 111.90 386.55 103.32 382.71 C 92.78 377.73 92.60 360.15 102.99 354.91 C 110.96 350.78 120.22 352.34 128.84 351.96 C 128.79 347.66 126.86 343.11 122.61 341.47 C 114.91 338.44 106.14 340.39 98.93 343.93 C 98.98 341.40 98.96 338.88 99.06 336.36 M 108.22 360.20 C 102.03 362.59 101.81 372.47 107.27 375.79 C 112.36 378.75 119.51 377.87 123.73 373.74 C 127.89 369.87 128.78 363.92 128.75 358.51 C 121.91 358.68 114.77 357.79 108.22 360.20 Z" />
<path fill="#302a22" stroke="#302a22" stroke-width="0.09375" opacity="1.00" d=" M 220.16 341.90 C 224.33 334.39 233.98 330.99 241.96 334.08 C 246.22 335.64 248.96 339.55 250.57 343.61 C 252.97 339.50 256.31 335.60 260.98 334.09 C 266.84 332.07 274.26 332.60 278.61 337.44 C 282.88 342.15 283.63 348.84 283.58 354.95 C 283.60 364.27 283.52 373.60 283.63 382.92 C 280.92 383.01 278.21 382.99 275.50 383.02 C 275.46 373.03 275.54 363.05 275.47 353.07 C 275.34 348.82 274.62 343.71 270.66 341.29 C 265.49 338.57 258.32 340.17 254.90 344.96 C 252.52 348.12 251.89 352.19 251.90 356.05 C 251.89 365.03 251.91 374.01 251.90 383.00 C 249.21 383.00 246.51 383.00 243.81 383.00 C 243.80 373.34 243.83 363.69 243.81 354.03 C 243.73 350.03 243.42 345.54 240.52 342.48 C 237.46 339.50 232.63 339.54 228.80 340.78 C 223.37 342.64 220.40 348.47 220.29 353.95 C 220.10 363.63 220.27 373.32 220.21 383.00 C 217.51 383.00 214.81 383.00 212.12 383.00 C 212.13 366.66 212.12 350.33 212.12 334.00 C 214.82 334.00 217.51 334.00 220.21 334.00 C 220.22 336.63 220.21 339.26 220.16 341.90 Z" />
<path fill="#302a22" stroke="#302a22" stroke-width="0.09375" opacity="1.00" d=" M 303.50 342.52 C 311.27 330.72 331.41 329.31 339.89 340.99 C 344.07 346.55 344.47 353.79 344.32 360.49 C 331.95 360.53 319.59 360.47 307.23 360.52 C 307.69 366.60 310.25 373.27 316.24 375.82 C 324.76 379.32 334.46 376.96 342.43 373.08 C 342.42 375.55 342.42 378.02 342.45 380.49 C 333.86 384.30 323.90 385.86 314.78 383.11 C 307.03 380.76 301.06 373.86 299.60 365.93 C 298.18 358.04 298.90 349.29 303.50 342.52 M 312.48 343.48 C 309.32 346.07 308.11 350.15 307.48 354.03 C 317.11 354.04 326.75 354.03 336.38 353.98 C 336.11 349.33 334.42 344.38 330.21 341.88 C 324.76 338.79 317.30 339.50 312.48 343.48 Z" />
<path fill="#302a22" stroke="#302a22" stroke-width="0.09375" opacity="1.00" d=" M 378.41 333.78 C 384.87 331.99 393.00 333.06 397.20 338.80 C 401.46 344.60 401.15 352.16 401.12 359.00 C 401.11 367.00 401.12 375.00 401.11 383.00 C 398.43 383.00 395.75 383.00 393.07 383.00 C 393.04 372.98 393.13 362.95 393.04 352.94 C 393.00 348.36 391.65 342.84 387.01 340.89 C 381.60 338.82 374.64 340.30 371.19 345.15 C 368.87 348.23 368.19 352.19 368.21 355.96 C 368.20 364.97 368.22 373.98 368.21 383.00 C 365.51 383.00 362.81 383.00 360.12 383.00 C 360.12 366.66 360.12 350.33 360.12 334.00 C 362.82 334.00 365.51 334.00 368.21 334.00 C 368.22 336.63 368.21 339.27 368.16 341.90 C 370.72 338.31 374.03 334.98 378.41 333.78 Z" />
<path fill="#302a22" stroke="#302a22" stroke-width="0.09375" opacity="1.00" d=" M 562.39 333.65 C 569.43 332.17 577.52 333.08 583.05 338.04 C 588.15 342.49 590.41 349.34 590.76 355.95 C 591.25 363.77 589.89 372.38 584.29 378.26 C 578.22 384.76 568.11 385.83 559.99 383.14 C 552.78 380.73 547.98 373.76 546.66 366.48 C 545.43 359.50 545.61 352.03 548.40 345.42 C 550.86 339.57 556.14 334.95 562.39 333.65 M 564.43 340.55 C 558.58 342.25 555.39 348.36 554.74 354.05 C 553.98 360.35 554.36 367.37 558.27 372.64 C 562.62 378.73 572.65 379.18 577.61 373.63 C 581.45 369.45 582.43 363.50 582.34 358.02 C 582.24 352.66 580.90 346.87 576.82 343.11 C 573.56 340.04 568.62 339.36 564.43 340.55 Z" />
<path fill="#302a22" stroke="#302a22" stroke-width="0.09375" opacity="1.00" d=" M 773.49 333.75 C 780.73 332.09 789.15 333.03 794.79 338.25 C 800.02 342.97 802.12 350.20 802.32 357.06 C 802.63 364.66 801.07 372.94 795.53 378.53 C 789.48 384.76 779.69 385.74 771.72 383.23 C 764.75 380.98 759.89 374.47 758.38 367.47 C 756.93 360.55 757.02 353.13 759.48 346.45 C 761.74 340.28 767.02 335.21 773.49 333.75 M 776.40 340.42 C 772.30 341.40 769.19 344.77 767.67 348.58 C 765.71 353.50 765.58 358.97 766.34 364.16 C 767.08 368.95 769.47 373.91 773.97 376.18 C 778.76 378.49 785.14 377.84 788.88 373.86 C 792.68 369.95 793.81 364.25 793.84 358.97 C 793.88 353.43 792.71 347.40 788.60 343.38 C 785.47 340.22 780.60 339.38 776.40 340.42 Z" />
<path fill="#302a22" stroke="#302a22" stroke-width="0.09375" opacity="1.00" d=" M 837.03 333.75 C 843.57 331.95 851.82 333.16 855.91 339.10 C 859.95 344.86 859.65 352.26 859.62 358.99 C 859.61 366.99 859.61 374.99 859.62 382.99 C 856.94 383.00 854.25 383.00 851.58 383.00 C 851.54 372.97 851.63 362.93 851.55 352.90 C 851.46 348.47 850.27 343.21 845.93 341.09 C 840.35 338.65 832.93 340.27 829.46 345.46 C 827.07 348.80 826.66 353.04 826.69 357.03 C 826.72 365.68 826.70 374.34 826.72 382.99 C 824.01 383.00 821.32 383.00 818.63 383.00 C 818.62 366.67 818.62 350.33 818.63 334.00 C 821.32 334.00 824.01 334.00 826.72 334.01 C 826.71 336.62 826.70 339.23 826.66 341.85 C 829.27 338.27 832.61 334.91 837.03 333.75 Z" />
<path fill="#302a22" stroke="#302a22" stroke-width="0.09375" opacity="1.00" d=" M 882.35 335.36 C 890.92 331.52 901.07 332.64 909.65 335.95 C 909.63 338.43 909.63 340.92 909.65 343.41 C 902.76 340.22 894.61 338.74 887.28 341.18 C 882.82 342.38 881.25 349.18 885.30 351.76 C 892.57 355.81 902.02 354.72 908.55 360.37 C 914.72 366.13 912.97 377.70 905.40 381.47 C 896.10 386.38 884.84 384.63 875.23 381.56 C 874.36 378.89 875.01 375.86 874.86 373.06 C 882.51 376.68 891.66 379.24 899.91 376.14 C 904.61 374.59 905.55 367.29 901.17 364.84 C 894.38 361.23 885.89 362.03 879.58 357.35 C 872.54 351.84 874.17 339.02 882.35 335.36 Z" />
<path fill="#302a22" stroke="#302a22" stroke-width="0.09375" opacity="1.00" d=" M 150.67 334.01 C 153.51 334.00 156.34 334.00 159.18 334.00 C 164.28 346.76 169.38 359.53 174.46 372.30 C 179.63 359.55 184.66 346.76 189.79 334.00 C 192.62 334.00 195.45 334.00 198.29 334.01 C 191.02 352.15 183.76 370.29 176.48 388.43 C 174.85 392.17 173.23 396.18 170.08 398.92 C 165.85 402.31 160.10 401.38 155.07 401.49 C 155.07 399.33 155.07 397.18 155.07 395.03 C 158.44 394.82 162.45 395.71 165.17 393.19 C 167.87 390.06 168.91 385.93 170.46 382.19 C 163.84 366.14 157.26 350.07 150.67 334.01 Z" />
<path fill="#302a22" stroke="#302a22" stroke-width="0.09375" opacity="1.00" d=" M 634.60 334.00 C 637.28 334.00 639.96 334.00 642.65 334.01 C 642.66 343.98 642.62 353.94 642.66 363.91 C 642.71 368.40 643.66 373.77 647.92 376.20 C 653.55 379.00 661.34 377.29 664.84 371.91 C 667.25 368.44 667.63 364.07 667.57 359.97 C 667.54 351.31 667.55 342.66 667.56 334.00 C 670.23 334.00 672.91 334.00 675.60 334.01 C 675.61 350.31 675.53 366.61 675.64 382.91 C 672.94 383.02 670.24 382.98 667.55 383.01 C 667.54 380.55 667.55 378.09 667.60 375.64 C 664.95 379.26 661.58 382.71 657.08 383.81 C 651.03 385.35 643.66 384.50 639.33 379.60 C 635.59 375.36 634.67 369.46 634.61 364.00 C 634.58 354.00 634.61 344.00 634.60 334.00 Z" />
<path fill="#302a22" stroke="#302a22" stroke-width="0.09375" opacity="1.00" d=" M 732.94 334.00 C 735.61 334.00 738.29 334.00 740.98 334.00 C 740.98 350.33 740.98 366.67 740.98 383.00 C 738.29 383.00 735.61 383.00 732.94 383.00 C 732.93 366.67 732.93 350.33 732.94 334.00 Z" />
</g>
</svg>
