<?xml version="1.0" encoding="UTF-8" ?>
<!DOCTYPE svg PUBLIC "-//W3C//DTD SVG 1.1//EN" "http://www.w3.org/Graphics/SVG/1.1/DTD/svg11.dtd">
<svg width="758pt" height="863pt" viewBox="0 0 758 863" version="1.1" xmlns="http://www.w3.org/2000/svg">
<g id="#000000ff">
<path fill="#000000" stroke="#000000" stroke-width="0.09375" opacity="1.00" d=" M 357.52 95.08 C 366.65 94.94 375.80 94.97 384.94 95.05 C 385.33 95.26 386.12 95.68 386.51 95.90 C 387.83 95.97 389.16 96.02 390.49 96.10 C 391.88 97.45 394.08 96.59 395.51 97.85 C 396.01 97.92 397.00 98.08 397.49 98.15 C 398.82 98.74 400.18 99.24 401.51 99.86 C 402.01 99.92 403.02 100.05 403.53 100.12 C 405.10 101.10 406.78 101.89 408.43 102.75 C 409.47 103.25 410.52 103.75 411.58 104.25 C 413.18 105.11 414.81 105.89 416.42 106.75 C 419.30 107.94 421.94 109.59 424.55 111.27 C 427.01 112.41 429.00 114.35 431.58 115.25 C 432.52 115.75 433.47 116.25 434.42 116.75 C 437.39 117.80 439.60 120.21 442.58 121.25 C 443.52 121.75 444.47 122.25 445.42 122.75 C 448.00 123.65 449.99 125.59 452.44 126.73 C 454.13 127.68 455.70 128.84 457.40 129.79 C 459.68 130.51 461.49 132.11 463.56 133.27 C 465.64 134.21 467.36 135.79 469.45 136.73 C 470.83 137.54 472.16 138.46 473.56 139.27 C 475.62 140.24 477.38 141.71 479.39 142.78 C 482.65 143.97 485.18 146.48 488.43 147.73 C 491.38 148.83 493.62 151.17 496.58 152.27 C 499.38 153.44 501.77 155.33 504.44 156.73 C 507.20 158.23 509.60 160.32 512.40 161.78 C 515.80 162.98 518.41 165.60 521.55 167.29 C 522.51 167.77 523.46 168.25 524.43 168.74 C 526.97 169.69 529.03 171.51 531.40 172.78 C 534.42 173.73 536.58 176.27 539.60 177.22 C 541.61 178.28 543.37 179.76 545.45 180.73 C 547.15 181.67 548.67 182.91 550.45 183.73 C 551.84 184.53 553.16 185.46 554.55 186.27 C 556.32 187.09 557.85 188.33 559.56 189.27 C 562.01 190.40 563.98 192.40 566.61 193.21 C 568.97 194.50 571.03 196.30 573.57 197.27 C 574.87 197.97 576.21 198.63 577.57 199.26 C 581.51 200.88 584.67 203.81 588.44 205.74 C 590.94 207.04 593.05 208.96 595.56 210.27 C 597.61 211.26 599.40 212.70 601.40 213.80 C 602.46 214.25 603.52 214.74 604.59 215.24 C 606.17 216.12 607.80 216.91 609.45 217.68 C 611.46 218.91 613.32 220.46 615.60 221.21 C 617.59 222.30 619.40 223.69 621.40 224.78 C 623.67 225.52 625.49 227.11 627.55 228.28 C 629.63 229.21 631.36 230.78 633.44 231.74 C 642.97 237.91 653.05 243.83 660.04 253.00 C 662.17 256.54 664.83 259.76 666.72 263.45 C 667.90 265.49 669.41 267.34 670.27 269.57 C 671.09 271.22 671.89 272.90 672.89 274.47 C 672.95 274.97 673.08 275.98 673.14 276.48 C 674.15 277.59 673.98 279.12 674.17 280.49 C 675.99 282.47 673.96 285.61 675.92 287.53 C 676.17 294.05 675.84 300.58 676.05 307.11 C 676.27 307.46 676.70 308.15 676.92 308.50 C 677.13 383.68 676.90 458.87 677.03 534.06 C 676.92 535.55 677.39 537.36 676.08 538.51 C 675.84 553.17 676.16 567.83 675.92 582.49 C 673.95 584.38 675.98 587.52 674.17 589.51 C 673.96 590.87 674.18 592.41 673.14 593.51 C 673.08 594.01 672.95 595.02 672.88 595.52 C 671.89 597.13 671.11 598.87 670.10 600.47 C 670.06 600.98 669.97 602.01 669.93 602.52 C 669.00 603.38 668.25 604.40 667.70 605.54 C 664.30 611.61 659.30 616.63 655.18 622.19 C 652.22 624.15 649.62 626.64 646.44 628.26 C 644.68 629.10 643.15 630.33 641.45 631.27 C 638.57 632.60 636.23 634.80 633.44 636.26 C 631.67 637.10 630.14 638.33 628.44 639.27 C 626.36 640.23 624.63 641.77 622.56 642.73 C 619.76 644.20 617.42 646.40 614.55 647.73 C 613.16 648.54 611.83 649.45 610.45 650.27 C 608.37 651.23 606.61 652.71 604.60 653.79 C 603.22 654.36 601.88 655.00 600.55 655.68 C 598.89 656.70 597.30 657.82 595.60 658.79 C 593.32 659.51 591.50 661.11 589.45 662.27 C 587.37 663.22 585.61 664.71 583.61 665.79 C 580.18 666.95 577.61 669.62 574.44 671.26 C 571.98 672.39 570.01 674.40 567.39 675.21 C 565.69 676.15 564.13 677.31 562.44 678.27 C 560.00 679.43 557.99 681.32 555.43 682.26 C 553.45 683.30 551.46 684.33 549.40 685.22 C 546.61 686.68 544.21 688.77 541.43 690.26 C 539.68 691.10 538.14 692.32 536.45 693.27 C 533.57 694.60 531.23 696.79 528.44 698.26 C 526.38 699.24 524.61 700.70 522.61 701.78 C 520.01 702.63 517.98 704.52 515.60 705.79 C 514.21 706.35 512.87 707.00 511.57 707.73 C 508.61 708.82 506.38 711.17 503.43 712.26 C 499.48 713.87 496.32 716.82 492.55 718.73 C 489.77 720.20 487.42 722.39 484.55 723.73 C 482.27 725.14 480.03 726.65 477.56 727.73 C 474.61 728.83 472.38 731.18 469.43 732.26 C 466.21 733.54 463.63 735.95 460.43 737.27 C 457.95 738.34 455.73 739.86 453.45 741.27 C 450.28 742.75 447.72 745.24 444.56 746.73 C 442.85 747.66 441.32 748.90 439.55 749.73 C 438.15 750.52 436.83 751.44 435.48 752.32 C 434.97 752.56 433.95 753.03 433.44 753.26 C 432.94 753.52 431.93 754.02 431.43 754.27 C 429.81 755.09 428.17 755.88 426.58 756.75 C 425.52 757.24 424.47 757.74 423.42 758.25 C 421.81 759.10 420.18 759.90 418.57 760.74 C 415.87 762.09 413.08 763.28 410.53 764.90 C 410.02 764.95 408.99 765.05 408.48 765.10 C 406.91 766.11 405.22 766.88 403.56 767.72 C 403.05 767.99 402.02 768.51 401.51 768.78 C 400.41 768.89 399.40 769.24 398.49 769.85 C 398.00 769.92 397.01 770.08 396.52 770.15 C 395.40 771.14 393.88 770.98 392.52 771.18 C 390.53 772.99 387.38 770.94 385.49 772.92 C 382.83 773.03 380.17 772.96 377.52 773.08 C 375.75 774.73 373.14 773.76 370.99 774.03 C 368.84 773.75 366.24 774.74 364.49 773.08 C 361.21 772.51 357.44 773.99 354.50 772.17 C 353.13 771.97 351.60 772.18 350.49 771.18 C 349.12 770.97 347.59 771.16 346.49 770.15 C 345.99 770.07 345.01 769.92 344.52 769.85 C 343.59 769.24 342.57 768.89 341.47 768.78 C 338.54 767.11 335.37 765.92 332.53 764.10 C 332.02 764.05 330.99 763.95 330.48 763.90 C 328.91 762.89 327.22 762.11 325.58 761.25 C 324.52 760.74 323.47 760.24 322.42 759.75 C 320.17 758.52 317.85 757.43 315.55 756.32 C 313.88 755.30 312.32 754.11 310.56 753.27 C 308.85 752.33 307.32 751.11 305.57 750.26 C 301.75 748.16 298.44 745.25 294.56 743.26 C 292.05 741.96 289.95 740.02 287.44 738.74 C 285.36 737.77 283.63 736.23 281.56 735.27 C 279.86 734.32 278.30 733.16 276.61 732.21 C 274.01 731.37 271.99 729.47 269.61 728.22 C 266.19 727.03 263.61 724.37 260.44 722.73 C 257.29 721.23 254.71 718.76 251.56 717.27 C 250.16 716.45 248.84 715.53 247.45 714.73 C 244.98 713.61 243.01 711.60 240.40 710.78 C 238.40 709.68 236.59 708.30 234.60 707.22 C 231.58 706.26 229.42 703.72 226.39 702.78 C 224.01 701.52 221.98 699.63 219.39 698.78 C 213.25 695.35 207.97 690.43 201.39 687.79 C 199.03 686.50 196.97 684.68 194.42 683.75 C 193.47 683.24 192.52 682.74 191.58 682.25 C 188.37 680.97 185.79 678.54 182.57 677.27 C 180.35 676.41 178.49 674.90 176.45 673.72 C 173.57 672.40 171.23 670.20 168.44 668.74 C 166.38 667.75 164.61 666.29 162.61 665.22 C 159.60 664.24 157.39 661.80 154.42 660.73 C 152.81 659.90 151.19 659.08 149.57 658.26 C 147.34 657.40 145.45 655.94 143.46 654.67 C 142.12 654.01 140.77 653.36 139.40 652.79 C 137.71 651.84 136.14 650.68 134.45 649.73 C 132.36 648.78 130.64 647.22 128.56 646.26 C 126.04 644.98 123.95 643.02 121.44 641.74 C 118.99 640.59 117.01 638.61 114.40 637.79 C 112.70 636.83 111.13 635.68 109.45 634.73 C 96.82 627.42 85.88 617.03 78.21 604.61 C 77.64 603.22 77.00 601.86 76.25 600.58 C 75.74 599.52 75.25 598.46 74.75 597.42 C 73.89 595.77 73.10 594.09 72.12 592.53 C 72.05 592.02 71.92 591.02 71.86 590.51 C 71.24 589.20 70.75 587.84 70.27 586.49 C 70.08 585.41 69.71 584.41 69.16 583.48 C 69.08 582.99 68.93 582.00 68.85 581.51 C 67.57 580.13 68.10 578.18 67.88 576.51 C 67.67 576.14 67.26 575.40 67.05 575.04 C 66.83 570.19 67.17 565.35 66.92 560.51 C 65.58 559.34 66.08 557.50 65.97 555.98 C 65.99 540.16 66.09 524.33 65.92 508.51 C 64.11 506.28 65.24 503.13 65.09 500.51 C 66.57 499.05 65.86 496.86 66.03 495.05 C 66.00 451.34 65.95 407.63 66.05 363.93 C 66.27 363.57 66.70 362.85 66.92 362.50 C 67.15 351.63 66.86 340.75 67.05 329.89 C 67.27 329.54 67.70 328.84 67.92 328.50 C 68.16 315.17 67.84 301.84 68.08 288.52 C 70.03 286.61 68.02 283.47 69.83 281.49 C 70.01 280.12 69.83 278.58 70.86 277.48 C 70.92 276.98 71.05 275.98 71.11 275.47 C 72.52 273.28 73.49 270.85 74.74 268.57 C 77.21 263.68 80.28 258.99 84.23 255.17 C 86.15 251.92 88.89 249.17 92.14 247.24 C 96.70 242.73 102.10 239.10 107.56 235.73 C 112.74 232.94 117.26 229.05 122.45 226.28 C 124.73 224.86 126.95 223.34 129.43 222.26 C 131.97 221.30 134.04 219.50 136.41 218.21 C 137.78 217.64 139.12 216.99 140.43 216.27 C 142.99 215.32 145.00 213.43 147.44 212.26 C 149.95 210.97 152.05 209.02 154.56 207.74 C 156.32 206.89 157.85 205.67 159.56 204.73 C 161.62 203.76 163.39 202.28 165.40 201.22 C 168.43 200.27 170.58 197.71 173.61 196.79 C 175.30 195.83 176.89 194.70 178.55 193.68 C 180.19 192.90 181.81 192.10 183.46 191.32 C 184.82 190.45 186.15 189.53 187.55 188.73 C 189.32 187.90 190.85 186.67 192.55 185.73 C 195.43 184.40 197.76 182.20 200.56 180.73 C 203.01 179.59 204.99 177.62 207.60 176.78 C 210.54 175.00 213.37 173.04 216.58 171.74 C 219.80 170.47 222.35 167.98 225.60 166.78 C 227.61 165.71 229.38 164.24 231.45 163.27 C 232.84 162.46 234.16 161.54 235.55 160.73 C 238.43 159.40 240.76 157.20 243.56 155.73 C 245.62 154.75 247.39 153.29 249.39 152.22 C 251.67 151.47 253.50 149.89 255.56 148.73 C 258.02 147.61 259.98 145.60 262.60 144.79 C 264.61 143.72 266.37 142.23 268.44 141.27 C 269.83 140.45 271.16 139.54 272.55 138.73 C 276.44 136.76 279.75 133.85 283.56 131.74 C 285.64 130.78 287.36 129.21 289.45 128.27 C 291.49 127.09 293.34 125.58 295.57 124.73 C 298.04 123.65 300.27 122.14 302.55 120.73 C 304.32 119.91 305.85 118.67 307.55 117.73 C 311.97 115.70 315.25 111.95 319.56 109.74 C 321.62 108.75 323.40 107.29 325.41 106.21 C 327.46 105.34 329.45 104.31 331.43 103.26 C 332.82 102.63 334.21 101.97 335.47 101.10 C 335.99 101.05 337.03 100.97 337.55 100.93 C 338.51 100.31 339.48 99.69 340.45 99.08 C 340.96 99.03 341.98 98.92 342.48 98.87 C 343.90 97.58 346.10 98.43 347.51 97.12 C 348.50 97.04 349.49 96.96 350.48 96.88 C 352.43 94.97 355.61 97.05 357.52 95.08 M 337.12 138.19 C 326.79 144.56 316.25 150.61 305.94 157.02 C 292.65 166.50 277.71 173.22 263.98 181.98 C 260.26 184.70 256.25 186.97 252.30 189.32 C 248.78 191.18 245.08 193.02 242.40 196.04 C 240.69 196.67 239.05 197.47 237.39 198.21 C 235.02 199.48 232.98 201.35 230.40 202.22 C 228.39 203.29 226.62 204.75 224.56 205.73 C 223.17 206.54 221.84 207.46 220.45 208.27 C 216.89 209.90 214.13 212.91 210.40 214.22 C 208.03 215.50 205.97 217.30 203.42 218.26 C 201.44 219.30 199.46 220.34 197.40 221.21 C 195.40 222.30 193.61 223.74 191.56 224.74 C 189.44 225.89 187.49 227.30 185.55 228.73 C 185.28 228.82 184.73 228.99 184.45 229.08 C 177.86 231.42 172.56 236.24 166.39 239.41 C 163.29 241.74 159.55 242.96 156.46 245.31 C 153.35 246.77 150.28 248.32 147.47 250.31 C 143.60 251.90 140.37 254.56 136.86 256.77 C 132.92 259.65 128.50 261.72 124.59 264.65 C 118.92 267.34 114.40 271.81 109.37 275.37 C 107.82 277.90 105.83 280.13 104.10 282.55 C 104.06 283.05 103.97 284.06 103.92 284.56 C 103.31 285.53 102.70 286.51 102.09 287.49 C 102.03 288.00 101.91 289.00 101.85 289.50 C 101.36 290.44 100.97 291.43 100.69 292.46 C 99.33 294.63 100.86 297.55 99.11 299.53 C 99.15 315.02 98.97 330.51 99.03 345.99 C 98.93 347.52 99.39 349.33 98.09 350.53 C 98.22 421.16 97.71 491.80 98.19 562.43 C 99.98 564.81 98.07 568.10 99.80 570.51 C 100.01 571.86 99.96 573.32 100.80 574.50 C 100.81 577.44 102.45 579.90 103.76 582.42 C 108.53 592.89 117.64 600.73 126.88 607.27 C 142.45 615.44 157.00 625.29 172.62 633.36 C 176.51 636.39 181.52 637.55 185.40 640.61 C 189.20 642.26 192.18 645.27 195.95 646.93 C 206.19 653.69 217.37 658.85 227.84 665.21 C 235.93 669.65 243.36 675.23 251.63 679.35 C 254.44 681.72 258.13 682.61 261.12 684.70 C 277.54 694.72 293.88 704.90 310.63 714.35 C 321.52 721.90 332.69 728.95 344.52 734.90 C 345.01 734.96 346.00 735.08 346.49 735.15 C 347.44 735.67 348.47 736.01 349.55 736.19 C 350.54 736.71 351.51 737.27 352.48 737.84 C 353.90 737.96 355.42 737.87 356.61 738.84 C 357.56 738.93 358.52 739.03 359.48 739.15 C 361.55 740.80 364.49 739.14 366.55 740.83 C 370.50 741.03 374.47 741.05 378.43 740.82 C 380.17 739.52 382.43 740.08 384.45 739.85 C 385.75 739.23 387.11 738.71 388.47 738.24 C 390.27 737.86 392.02 737.23 393.46 736.06 C 393.96 736.02 394.95 735.94 395.44 735.90 C 400.49 732.99 405.86 730.66 411.03 727.95 C 419.27 724.18 426.46 718.63 434.57 714.64 C 437.80 711.92 442.11 711.05 445.36 708.37 C 455.20 703.38 464.53 697.55 473.87 691.71 C 483.90 685.61 494.37 680.28 504.43 674.23 C 508.51 672.70 511.47 669.21 515.58 667.76 C 518.83 665.01 522.59 662.99 526.48 661.30 C 529.93 658.51 534.29 657.29 537.86 654.72 C 551.10 647.48 563.39 638.61 577.00 632.00 C 579.32 630.23 581.88 628.86 584.58 627.76 C 596.65 619.10 609.91 612.39 622.35 604.35 C 629.48 600.93 635.30 595.10 639.37 588.39 C 641.27 585.59 643.49 582.55 643.02 578.99 C 642.80 559.37 643.37 539.73 642.73 520.14 C 643.42 507.31 642.70 494.38 643.08 481.51 C 643.30 481.13 643.73 480.37 643.95 479.99 C 643.99 465.94 644.12 451.86 643.89 437.80 C 644.15 392.20 643.93 346.59 643.99 300.99 C 642.64 291.90 641.10 282.21 635.15 274.84 C 627.78 265.79 616.67 261.30 607.53 254.43 C 604.42 252.49 600.94 251.19 597.94 249.05 C 579.99 240.18 563.44 228.77 545.86 219.23 C 533.60 212.70 522.01 204.97 509.86 198.24 C 505.25 195.32 500.12 193.36 495.60 190.28 C 484.18 182.84 472.23 176.28 460.34 169.67 C 452.22 165.70 445.14 159.88 436.97 156.01 C 426.97 150.30 416.88 144.78 406.81 139.22 C 401.59 135.93 396.23 132.85 390.57 130.37 C 372.96 124.19 351.86 126.16 337.12 138.19 Z" />
</g>
<g id="#3d3d3dff">
<path fill="#3d3d3d" stroke="#3d3d3d" stroke-width="0.09375" opacity="1.00" d=" M 337.12 138.19 C 351.86 126.16 372.96 124.19 390.57 130.37 C 396.23 132.85 401.59 135.93 406.81 139.22 C 416.88 144.78 426.97 150.30 436.97 156.01 C 445.14 159.88 452.22 165.70 460.34 169.67 C 472.23 176.28 484.18 182.84 495.60 190.28 C 500.12 193.36 505.25 195.32 509.86 198.24 C 522.01 204.97 533.60 212.70 545.86 219.23 C 563.44 228.77 579.99 240.18 597.94 249.05 C 600.94 251.19 604.42 252.49 607.53 254.43 C 616.67 261.30 627.78 265.79 635.15 274.84 C 641.10 282.21 642.64 291.90 643.99 300.99 C 643.93 346.59 644.15 392.20 643.89 437.80 C 642.46 436.35 640.95 434.97 639.24 433.88 C 528.51 367.91 417.74 302.00 307.06 235.95 C 290.96 226.34 274.76 216.87 258.50 207.52 C 255.90 205.98 253.39 204.21 250.43 203.45 C 247.91 200.71 244.44 199.25 241.32 197.35 C 241.59 197.02 242.13 196.37 242.40 196.04 C 245.08 193.02 248.78 191.18 252.30 189.32 C 256.25 186.97 260.26 184.70 263.98 181.98 C 277.71 173.22 292.65 166.50 305.94 157.02 C 316.25 150.61 326.79 144.56 337.12 138.19 M 349.58 170.48 C 333.60 179.18 318.44 189.27 302.86 198.65 C 336.65 219.06 370.74 239.00 404.63 259.25 C 474.23 300.51 543.71 341.99 613.40 383.10 C 613.66 363.77 613.89 344.43 613.43 325.11 C 613.03 315.33 611.77 304.64 605.11 296.96 C 596.70 287.89 585.50 282.23 574.97 276.04 C 517.03 242.72 459.51 208.66 401.39 175.65 C 394.33 171.75 387.00 168.13 379.11 166.27 C 369.19 163.90 358.55 165.77 349.58 170.48 Z" />
</g>
<g id="#949493ff">
<path fill="#949493" stroke="#949493" stroke-width="0.09375" opacity="1.00" d=" M 166.39 239.41 C 172.56 236.24 177.86 231.42 184.45 229.08 C 184.01 229.48 183.11 230.26 182.67 230.66 C 188.73 233.39 193.76 237.98 199.54 241.26 C 204.74 244.05 209.27 247.96 214.47 250.75 C 219.94 254.07 225.06 257.93 230.53 261.25 C 235.41 263.89 239.74 267.45 244.53 270.26 C 250.74 273.70 256.25 278.29 262.46 281.74 C 266.94 284.39 271.05 287.60 275.53 290.25 C 281.41 293.56 286.74 297.79 292.53 301.26 C 297.74 304.05 302.26 307.96 307.47 310.75 C 313.26 314.21 318.58 318.44 324.47 321.74 C 328.94 324.39 333.06 327.61 337.53 330.26 C 343.41 333.57 348.74 337.79 354.53 341.26 C 359.41 343.90 363.73 347.45 368.52 350.25 C 374.74 353.69 380.25 358.29 386.47 361.74 C 391.26 364.54 395.58 368.10 400.47 370.74 C 405.94 374.06 411.06 377.94 416.53 381.26 C 422.41 384.56 427.73 388.78 433.52 392.25 C 438.41 394.89 442.74 398.46 447.54 401.26 C 453.42 404.57 458.74 408.79 464.53 412.26 C 469.41 414.90 473.74 418.45 478.53 421.25 C 484.74 424.70 490.26 429.29 496.47 432.75 C 501.26 435.54 505.58 439.10 510.47 441.74 C 516.26 445.21 521.59 449.44 527.47 452.75 C 531.95 455.40 536.06 458.62 540.55 461.26 C 546.74 464.72 552.26 469.29 558.46 472.74 C 563.26 475.54 567.58 479.10 572.47 481.74 C 578.26 485.21 583.58 489.43 589.46 492.74 C 593.94 495.39 598.06 498.61 602.54 501.26 C 608.42 504.57 613.74 508.79 619.53 512.26 C 624.73 515.04 629.26 518.95 634.47 521.74 C 637.02 523.14 639.23 525.11 641.89 526.36 C 641.90 524.25 642.02 522.14 642.73 520.14 C 643.37 539.73 642.80 559.37 643.02 578.99 C 643.49 582.55 641.27 585.59 639.37 588.39 C 635.30 595.10 629.48 600.93 622.35 604.35 C 609.91 612.39 596.65 619.10 584.58 627.76 C 581.88 628.86 579.32 630.23 577.00 632.00 C 563.39 638.61 551.10 647.48 537.86 654.72 C 534.29 657.29 529.93 658.51 526.48 661.30 C 522.59 662.99 518.83 665.01 515.58 667.76 C 511.47 669.21 508.51 672.70 504.43 674.23 C 494.37 680.28 483.90 685.61 473.87 691.71 C 464.53 697.55 455.20 703.38 445.36 708.37 C 442.11 711.05 437.80 711.92 434.57 714.64 C 426.46 718.63 419.27 724.18 411.03 727.95 C 405.86 730.66 400.49 732.99 395.44 735.90 C 394.95 735.94 393.96 736.02 393.46 736.06 C 392.02 737.23 390.27 737.86 388.47 738.24 C 387.11 738.71 385.75 739.23 384.45 739.85 C 382.43 740.08 380.17 739.52 378.43 740.82 C 374.47 741.05 370.50 741.03 366.55 740.83 C 364.49 739.14 361.55 740.80 359.48 739.15 C 358.52 739.03 357.56 738.93 356.61 738.84 C 355.42 737.87 353.90 737.96 352.48 737.84 C 351.51 737.27 350.54 736.71 349.55 736.19 C 348.47 736.01 347.44 735.67 346.49 735.15 C 346.00 735.08 345.01 734.96 344.52 734.90 C 332.69 728.95 321.52 721.90 310.63 714.35 C 293.88 704.90 277.54 694.72 261.12 684.70 C 258.13 682.61 254.44 681.72 251.63 679.35 C 243.36 675.23 235.93 669.65 227.84 665.21 C 217.37 658.85 206.19 653.69 195.95 646.93 C 192.18 645.27 189.20 642.26 185.40 640.61 C 181.52 637.55 176.51 636.39 172.62 633.36 C 157.00 625.29 142.45 615.44 126.88 607.27 C 117.64 600.73 108.53 592.89 103.76 582.42 C 102.45 579.90 100.81 577.44 100.80 574.50 C 99.96 573.32 100.01 571.86 99.80 570.51 C 98.07 568.10 99.98 564.81 98.19 562.43 C 97.71 491.80 98.22 421.16 98.09 350.53 C 99.39 349.33 98.93 347.52 99.03 345.99 C 98.97 330.51 99.15 315.02 99.11 299.53 C 100.86 297.55 99.33 294.63 100.69 292.46 C 100.97 291.43 101.36 290.44 101.85 289.50 C 101.91 289.00 102.03 288.00 102.09 287.49 C 102.70 286.51 103.31 285.53 103.92 284.56 C 103.97 284.06 104.06 283.05 104.10 282.55 C 105.83 280.13 107.82 277.90 109.37 275.37 C 114.40 271.81 118.92 267.34 124.59 264.65 C 128.50 261.72 132.92 259.65 136.86 256.77 C 140.37 254.56 143.60 251.90 147.47 250.31 C 150.28 248.32 153.35 246.77 156.46 245.31 C 159.55 242.96 163.29 241.74 166.39 239.41 M 176.93 266.91 C 169.13 271.46 161.84 277.01 153.58 280.69 C 149.42 283.28 145.75 286.70 141.49 289.21 C 137.04 293.37 133.64 298.79 131.16 304.42 C 130.97 306.21 130.70 308.04 129.72 309.60 C 127.63 312.48 130.51 316.79 128.06 319.45 C 127.66 321.73 128.89 324.65 127.06 326.45 C 126.88 354.81 127.13 383.19 126.94 411.55 C 125.45 412.58 126.15 414.53 125.97 416.02 C 126.03 453.90 126.00 491.78 125.99 529.66 C 126.49 530.08 127.51 530.92 128.01 531.34 C 127.99 535.86 128.00 540.39 128.00 544.91 L 126.97 545.02 L 127.02 546.33 C 127.52 545.93 128.51 545.13 129.01 544.73 C 128.99 547.32 128.95 549.93 129.09 552.53 C 130.29 553.93 129.90 555.84 130.16 557.53 C 131.05 558.71 130.97 560.19 131.17 561.58 C 132.44 563.31 132.84 565.47 133.67 567.42 C 139.63 576.35 147.95 583.62 157.24 589.02 C 183.68 604.60 210.52 619.49 237.02 634.96 C 251.77 643.50 266.24 652.51 281.02 660.99 C 282.81 661.77 284.44 663.92 286.55 663.27 C 287.00 665.30 289.50 666.43 291.45 666.42 C 292.15 668.07 293.99 668.60 295.38 669.52 C 304.64 674.94 313.58 680.89 322.83 686.33 C 324.33 687.07 325.71 688.91 327.57 688.25 C 327.73 688.61 328.04 689.33 328.20 689.69 C 334.67 693.68 341.16 697.72 348.14 700.81 C 358.63 705.95 371.17 708.06 382.50 704.74 C 389.97 703.91 396.47 699.52 403.05 696.19 C 404.23 695.33 406.37 695.01 406.44 693.24 C 408.32 694.01 409.83 692.10 411.44 691.43 C 426.21 683.82 440.12 674.69 454.71 666.77 C 457.38 665.08 460.48 663.97 462.69 661.65 C 463.68 661.46 464.60 661.09 465.45 660.55 C 479.21 652.13 493.27 644.23 507.30 636.26 C 523.66 626.24 540.39 616.85 556.80 606.90 C 571.89 597.61 587.57 589.25 602.12 579.13 C 605.94 575.48 608.87 570.99 612.98 567.61 C 613.01 567.07 613.06 565.99 613.09 565.45 C 613.79 564.59 614.16 563.59 614.22 562.45 C 615.91 559.67 614.60 556.09 615.00 553.00 C 614.64 550.57 615.94 547.48 614.06 545.56 C 613.97 543.16 613.98 540.77 614.01 538.39 C 612.54 536.97 611.12 535.52 609.61 534.16 C 606.91 533.70 604.83 531.81 602.56 530.45 C 581.40 517.29 560.33 504.01 539.19 490.83 C 522.04 479.88 504.58 469.42 487.59 458.23 C 484.72 456.92 482.14 455.07 479.59 453.23 C 476.72 451.91 474.14 450.07 471.59 448.23 C 468.72 446.91 466.14 445.07 463.59 443.23 C 460.71 441.93 458.18 440.02 455.56 438.29 C 454.21 437.41 452.89 436.49 451.48 435.74 C 450.12 435.01 448.80 434.19 447.56 433.29 C 446.21 432.41 444.89 431.49 443.48 430.74 C 442.12 430.01 440.81 429.19 439.56 428.29 C 438.21 427.41 436.89 426.49 435.47 425.75 C 434.11 425.00 432.81 424.19 431.56 423.29 C 430.21 422.42 428.90 421.49 427.49 420.75 C 426.12 420.01 424.82 419.18 423.56 418.30 C 422.52 417.66 421.52 416.99 420.55 416.30 C 419.18 415.42 417.86 414.49 416.43 413.73 C 415.06 413.03 413.78 412.19 412.55 411.29 C 411.18 410.43 409.85 409.49 408.43 408.74 C 407.06 408.03 405.78 407.19 404.55 406.29 C 403.17 405.43 401.85 404.48 400.42 403.73 C 399.06 403.03 397.78 402.19 396.55 401.29 C 394.07 399.91 391.92 398.01 389.39 396.73 C 386.58 395.30 384.20 393.17 381.40 391.73 C 378.58 390.31 376.21 388.16 373.40 386.73 C 370.58 385.32 368.21 383.16 365.40 381.73 C 361.56 379.68 358.20 376.83 354.39 374.73 C 351.56 373.34 349.20 371.17 346.40 369.73 C 343.56 368.34 341.20 366.16 338.39 364.73 C 335.56 363.33 333.19 361.17 330.40 359.73 C 326.54 357.69 323.20 354.82 319.39 352.73 C 316.53 351.36 314.20 349.14 311.39 347.73 C 308.28 346.21 305.72 343.77 302.60 342.29 C 299.81 340.83 297.47 338.62 294.60 337.29 C 291.05 335.33 287.94 332.66 284.39 330.71 C 281.52 329.39 279.21 327.13 276.39 325.72 C 273.26 324.24 270.73 321.76 267.61 320.28 C 263.80 318.19 260.48 315.27 256.60 313.29 C 254.03 312.03 251.96 309.97 249.39 308.72 C 246.27 307.23 243.73 304.77 240.61 303.28 C 237.79 301.87 235.48 299.61 232.61 298.28 C 229.05 296.34 225.95 293.65 222.39 291.72 C 219.52 290.39 217.21 288.13 214.39 286.72 C 211.26 285.24 208.73 282.76 205.61 281.28 C 203.04 280.03 200.96 277.96 198.39 276.72 C 194.52 274.73 191.21 271.80 187.39 269.72 C 185.32 268.77 183.58 267.29 181.67 266.10 C 180.09 266.39 178.40 266.23 176.93 266.91 Z" />
</g>
</svg>
