<?xml version="1.0" encoding="UTF-8" ?>
<!DOCTYPE svg PUBLIC "-//W3C//DTD SVG 1.1//EN" "http://www.w3.org/Graphics/SVG/1.1/DTD/svg11.dtd">
<svg width="860pt" height="926pt" viewBox="0 0 860 926" version="1.1" xmlns="http://www.w3.org/2000/svg">
<g id="#fefefefe">
<path fill="#fefefe" stroke="#fefefe" stroke-width="0.09375" opacity="1.00" d=" M 418.43 88.47 C 431.05 87.95 444.16 87.46 456.30 91.63 C 469.70 95.77 482.17 102.40 493.84 110.10 C 504.31 115.50 514.67 121.14 524.87 127.05 C 534.56 132.20 543.30 138.93 553.14 143.82 C 569.93 152.27 585.52 162.82 601.82 172.13 C 615.08 178.42 626.95 187.14 639.77 194.22 C 651.90 201.49 664.84 207.35 676.40 215.57 C 690.05 223.24 703.89 230.63 717.36 238.63 C 729.32 246.73 742.83 253.52 751.29 265.71 C 758.34 276.80 766.18 288.32 767.22 301.85 C 768.53 317.52 768.94 333.27 769.03 349.00 C 768.99 417.33 768.97 485.67 769.04 554.00 C 769.13 574.34 767.61 594.65 768.05 615.00 C 769.00 631.64 764.48 648.89 754.01 662.04 C 749.17 668.05 744.76 674.90 737.83 678.73 C 720.98 688.91 704.15 699.11 687.40 709.43 C 667.30 719.51 648.96 732.66 628.99 742.97 C 617.29 749.04 606.77 757.09 595.07 763.15 C 583.06 770.55 569.93 776.07 558.56 784.51 C 545.26 792.38 531.50 799.49 518.10 807.19 C 499.05 820.21 478.08 830.20 456.64 838.60 C 439.55 843.06 421.12 843.54 404.01 838.97 C 393.95 835.59 384.49 830.66 374.91 826.14 C 360.15 819.12 347.16 809.10 333.06 800.93 C 324.56 795.65 315.43 791.43 307.15 785.79 C 287.92 772.60 266.47 763.03 247.25 749.84 C 237.71 744.73 228.43 739.14 218.82 734.17 C 210.66 729.87 203.45 723.99 195.19 719.85 C 180.53 712.49 166.30 704.27 152.40 695.55 C 142.63 689.41 131.86 684.64 123.44 676.57 C 117.07 669.95 109.70 664.04 105.18 655.89 C 98.07 643.17 92.23 629.28 91.55 614.56 C 89.38 569.75 89.38 524.83 91.00 480.00 C 91.33 441.00 90.20 401.98 91.91 363.01 C 92.43 340.86 90.88 318.51 94.49 296.55 C 100.13 272.03 120.46 254.40 141.33 242.20 C 156.88 230.90 174.96 223.84 190.66 212.82 C 202.87 205.51 215.46 198.89 227.76 191.76 C 247.39 178.22 269.63 168.99 289.09 155.19 C 305.83 146.21 322.01 136.24 338.04 126.06 C 349.68 119.61 361.31 113.08 372.07 105.19 C 386.10 96.49 401.82 89.80 418.43 88.47 M 393.90 133.87 C 382.76 141.70 370.52 147.76 359.07 155.11 C 340.84 168.04 320.16 177.00 301.83 189.76 C 297.28 192.93 291.74 194.62 287.78 198.62 L 288.43 197.99 C 280.19 202.12 272.03 206.45 264.17 211.26 C 250.32 220.95 234.68 227.64 220.59 236.99 C 214.55 239.94 209.07 243.87 203.34 247.35 C 192.73 253.86 181.34 259.03 171.04 266.05 C 159.86 273.92 147.22 279.73 137.32 289.33 C 131.42 296.60 127.82 305.78 127.31 315.15 C 126.53 331.89 127.39 348.67 126.49 365.42 C 125.02 410.26 127.15 455.15 125.16 499.99 C 124.81 528.33 125.00 556.67 125.04 585.01 C 125.64 599.28 125.17 614.09 130.35 627.66 C 137.88 644.03 152.55 655.76 168.36 663.63 C 184.31 672.64 199.76 682.51 216.01 690.99 C 228.24 697.10 239.01 705.72 251.36 711.64 C 263.34 718.58 275.78 724.79 287.09 732.82 C 304.88 742.45 322.22 752.87 339.31 763.69 C 357.84 773.36 374.66 785.86 392.81 796.17 C 411.60 805.54 434.49 810.37 454.37 801.39 C 466.82 795.51 479.46 789.78 490.80 781.87 C 508.63 771.74 527.06 762.60 544.06 751.09 C 557.19 743.94 570.15 736.46 583.11 728.99 C 597.62 718.70 614.18 711.83 628.94 701.92 C 645.09 691.52 662.64 683.47 678.41 672.47 C 689.07 666.53 699.41 660.04 709.95 653.89 C 714.78 650.92 719.99 648.05 723.08 643.07 C 727.30 637.12 733.12 630.98 732.01 623.04 C 732.24 602.72 731.92 582.40 731.92 562.08 C 732.59 531.02 733.52 499.97 732.90 468.90 C 732.95 468.55 733.06 467.87 733.11 467.52 C 732.82 419.34 733.11 371.16 733.01 322.98 C 732.66 311.75 731.83 299.43 724.82 290.13 C 718.72 280.72 708.41 275.55 699.30 269.59 C 688.47 261.65 675.86 256.71 664.55 249.53 C 653.22 243.82 643.12 236.05 631.85 230.22 C 616.65 222.42 602.26 213.18 587.59 204.47 C 576.90 198.63 566.02 193.07 555.99 186.11 C 543.36 178.60 530.30 171.84 517.65 164.37 C 499.55 152.31 479.47 143.63 461.18 131.89 C 440.79 119.85 413.29 119.80 393.90 133.87 Z" />
</g>
<g id="#5d3a0afe">
<path fill="#5d3a0a" stroke="#5d3a0a" stroke-width="0.09375" opacity="1.00" d=" M 393.90 133.87 C 413.29 119.80 440.79 119.85 461.18 131.89 C 479.47 143.63 499.55 152.31 517.65 164.37 C 530.30 171.84 543.36 178.60 555.99 186.11 C 566.02 193.07 576.90 198.63 587.59 204.47 C 602.26 213.18 616.65 222.42 631.85 230.22 C 643.12 236.05 653.22 243.82 664.55 249.53 C 675.86 256.71 688.47 261.65 699.30 269.59 C 708.41 275.55 718.72 280.72 724.82 290.13 C 731.83 299.43 732.66 311.75 733.01 322.98 C 733.11 371.16 732.82 419.34 733.11 467.52 C 732.23 466.80 731.25 466.24 730.19 465.87 C 721.55 461.79 713.66 456.34 705.42 451.55 C 608.50 393.82 511.62 336.02 414.68 278.31 C 376.54 255.78 338.86 232.43 300.21 210.78 C 297.70 209.29 295.22 207.80 292.77 206.24 C 290.24 204.59 287.83 202.74 285.41 200.92 C 286.20 200.15 286.98 199.38 287.78 198.62 C 291.74 194.62 297.28 192.93 301.83 189.76 C 320.16 177.00 340.84 168.04 359.07 155.11 C 370.52 147.76 382.76 141.70 393.90 133.87 M 395.13 139.95 C 394.92 140.23 394.52 140.80 394.31 141.08 C 395.16 144.22 398.47 139.42 395.13 139.95 M 471.58 145.96 C 473.53 147.05 475.53 148.07 477.57 148.98 C 475.67 147.79 473.65 146.81 471.58 145.96 M 404.19 172.30 C 386.87 182.04 370.16 192.81 353.23 203.18 C 441.81 256.21 530.74 308.65 619.41 361.54 C 646.02 376.96 672.10 393.32 698.89 408.41 C 698.94 385.62 699.38 362.81 698.76 340.03 C 698.50 329.75 695.83 319.02 688.73 311.28 C 672.69 295.86 651.51 287.88 633.16 275.77 C 590.84 251.62 548.91 226.84 506.79 202.37 C 486.94 192.04 468.56 178.96 447.94 170.13 C 434.12 163.92 417.32 164.76 404.19 172.30 Z" />
</g>
<g id="#1f130354">
<path fill="#1f1303" stroke="#1f1303" stroke-width="0.09375" opacity="0.33" d=" M 395.13 139.95 C 398.47 139.42 395.16 144.22 394.31 141.08 C 394.52 140.80 394.92 140.23 395.13 139.95 Z" />
</g>
<g id="#0b07011f">
<path fill="#0b0701" stroke="#0b0701" stroke-width="0.09375" opacity="0.12" d=" M 471.58 145.96 C 473.65 146.81 475.67 147.79 477.57 148.98 C 475.53 148.07 473.53 147.05 471.58 145.96 Z" />
</g>
<g id="#170e023f">
<path fill="#170e02" stroke="#170e02" stroke-width="0.09375" opacity="0.25" d=" M 292.77 206.24 C 295.22 207.80 297.70 209.29 300.21 210.78 C 297.69 209.32 295.20 207.83 292.77 206.24 Z" />
</g>
<g id="#bd9323fe">
<path fill="#bd9323" stroke="#bd9323" stroke-width="0.09375" opacity="1.00" d=" M 203.34 247.35 C 209.07 243.87 214.55 239.94 220.59 236.99 C 252.98 257.65 285.30 278.44 317.89 298.78 C 318.02 300.17 318.79 300.99 320.18 301.23 C 323.24 302.66 326.29 304.13 329.39 305.51 C 328.96 306.85 329.46 307.76 330.88 308.26 C 332.74 309.24 334.61 310.21 336.49 311.17 C 337.00 312.52 337.97 313.09 339.41 312.87 C 456.06 386.70 572.41 461.02 688.91 535.08 C 703.27 544.03 718.27 552.02 731.92 562.08 C 731.92 582.40 732.24 602.72 732.01 623.04 C 733.12 630.98 727.30 637.12 723.08 643.07 C 719.99 648.05 714.78 650.92 709.95 653.89 C 699.41 660.04 689.07 666.53 678.41 672.47 C 662.64 683.47 645.09 691.52 628.94 701.92 C 614.18 711.83 597.62 718.70 583.11 728.99 C 570.15 736.46 557.19 743.94 544.06 751.09 C 527.06 762.60 508.63 771.74 490.80 781.87 C 479.46 789.78 466.82 795.51 454.37 801.39 C 434.49 810.37 411.60 805.54 392.81 796.17 C 374.66 785.86 357.84 773.36 339.31 763.69 C 322.22 752.87 304.88 742.45 287.09 732.82 C 275.78 724.79 263.34 718.58 251.36 711.64 C 239.01 705.72 228.24 697.10 216.01 690.99 C 199.76 682.51 184.31 672.64 168.36 663.63 C 152.55 655.76 137.88 644.03 130.35 627.66 C 125.17 614.09 125.64 599.28 125.04 585.01 C 125.00 556.67 124.81 528.33 125.16 499.99 C 127.15 455.15 125.02 410.26 126.49 365.42 C 127.39 348.67 126.53 331.89 127.31 315.15 C 127.82 305.78 131.42 296.60 137.32 289.33 C 147.22 279.73 159.86 273.92 171.04 266.05 C 181.34 259.03 192.73 253.86 203.34 247.35 M 210.53 280.56 C 198.73 288.53 186.03 295.11 174.56 303.57 C 169.11 308.99 163.73 315.31 162.06 323.01 C 160.39 336.94 161.30 351.02 160.78 365.01 C 159.11 401.99 160.62 439.01 159.78 476.01 C 158.34 503.65 159.25 531.34 158.96 559.00 C 159.19 574.79 158.78 590.90 162.65 606.35 C 167.34 620.53 179.53 630.49 191.95 637.88 C 228.87 659.44 266.30 680.10 303.00 702.03 C 315.33 709.93 328.17 716.96 340.85 724.26 C 358.19 735.24 375.80 745.78 393.23 756.62 C 405.16 762.90 418.15 769.10 432.03 768.00 C 443.41 767.99 453.64 762.57 463.49 757.53 C 475.41 750.31 488.12 744.51 499.79 736.85 C 524.00 723.27 547.62 708.65 571.87 695.15 C 577.42 694.06 581.95 690.52 586.09 686.86 C 618.13 667.67 650.56 649.14 682.28 629.40 C 689.63 625.49 693.83 617.74 697.50 610.63 C 698.75 600.22 697.88 589.64 697.94 579.17 C 537.71 479.11 377.60 378.81 217.48 278.60 C 215.04 277.29 212.60 279.43 210.53 280.56 Z" />
</g>
<g id="#382c0a4c">
<path fill="#382c0a" stroke="#382c0a" stroke-width="0.09375" opacity="0.30" d=" M 317.89 298.78 C 319.32 298.97 320.09 299.79 320.18 301.23 C 318.79 300.99 318.02 300.17 317.89 298.78 Z" />
</g>
<g id="#3b2d0a4f">
<path fill="#3b2d0a" stroke="#3b2d0a" stroke-width="0.09375" opacity="0.31" d=" M 329.39 305.51 C 330.64 305.97 331.13 306.89 330.88 308.26 C 329.46 307.76 328.96 306.85 329.39 305.51 Z" />
</g>
<g id="#896b19b9">
<path fill="#896b19" stroke="#896b19" stroke-width="0.09375" opacity="0.73" d=" M 336.49 311.17 C 337.88 311.00 338.86 311.57 339.41 312.87 C 337.97 313.09 337.00 312.52 336.49 311.17 Z" />
</g>
<g id="#402706af">
<path fill="#402706" stroke="#402706" stroke-width="0.09375" opacity="0.69" d=" M 730.19 465.87 C 731.25 466.24 732.23 466.80 733.11 467.52 C 733.06 467.87 732.95 468.55 732.90 468.90 C 731.23 468.95 730.23 467.36 730.19 465.87 Z" />
</g>
<g id="#785311ff">
<path fill="#785311" stroke="#785311" stroke-width="0.09375" opacity="1.00" d=" M 571.87 695.15 C 576.52 692.25 581.18 689.33 586.09 686.86 C 581.95 690.52 577.42 694.06 571.87 695.15 Z" />
</g>
</svg>
