<?xml version="1.0" encoding="UTF-8" ?>
<!DOCTYPE svg PUBLIC "-//W3C//DTD SVG 1.1//EN" "http://www.w3.org/Graphics/SVG/1.1/DTD/svg11.dtd">
<svg width="960pt" height="960pt" viewBox="0 0 960 960" version="1.1" xmlns="http://www.w3.org/2000/svg">
<g id="#5c3909ff">
<path fill="#5c3909" stroke="#5c3909" stroke-width="0.09375" opacity="1.00" d=" M 444.41 97.39 C 452.25 94.64 460.61 93.96 468.82 93.10 C 475.39 92.42 481.69 94.80 488.02 96.14 C 498.44 98.24 506.88 105.06 516.14 109.82 C 549.31 128.09 581.76 147.61 614.56 166.53 C 665.36 196.10 716.15 225.67 766.95 255.22 C 776.26 261.21 785.52 267.28 794.85 273.23 C 804.51 279.83 809.94 291.15 811.64 302.48 C 812.56 309.28 813.18 316.14 813.01 323.01 C 812.98 346.33 813.02 369.66 812.99 392.98 C 813.97 408.62 813.31 424.30 813.50 439.96 C 813.48 454.40 813.53 468.84 813.48 483.28 C 649.02 385.53 484.59 287.74 320.33 189.64 C 315.61 186.85 311.00 183.87 306.13 181.35 C 307.92 179.75 309.64 178.04 311.71 176.80 C 351.80 152.54 391.91 128.31 431.97 103.99 C 435.98 101.56 439.93 98.91 444.41 97.39 M 454.84 143.32 C 444.10 145.10 435.30 151.90 425.97 157.00 C 419.04 161.82 411.40 165.49 404.38 170.18 C 396.95 174.76 389.57 179.43 382.15 184.02 C 386.47 185.84 390.10 188.90 394.38 190.76 C 404.64 197.36 415.36 203.21 425.77 209.57 C 430.36 212.63 435.15 215.41 440.00 218.04 C 442.48 220.05 445.40 221.36 448.30 222.63 C 452.57 225.80 457.12 228.68 461.91 231.01 C 462.75 231.61 463.59 232.21 464.44 232.82 C 472.09 237.45 479.99 241.65 487.43 246.63 C 495.48 250.68 503.07 255.62 510.75 260.35 C 524.64 268.39 538.28 276.86 552.26 284.76 C 557.45 287.71 562.33 291.21 567.71 293.83 C 575.34 299.29 583.82 303.40 591.89 308.17 C 601.60 314.59 611.94 319.98 621.73 326.28 C 635.17 334.02 648.62 341.77 661.68 350.14 C 666.48 352.79 671.45 355.32 675.78 358.71 C 676.23 358.87 677.13 359.19 677.58 359.35 C 683.43 363.36 689.91 366.40 696.02 370.02 C 696.98 370.72 697.94 371.46 699.00 372.03 C 709.99 378.35 720.54 385.45 731.77 391.33 C 743.36 398.99 755.68 405.45 767.43 412.87 C 769.81 413.88 772.05 415.19 774.28 416.51 C 774.29 394.34 774.53 372.17 774.32 350.00 C 774.66 339.93 773.91 329.74 771.06 320.05 C 769.56 315.23 766.60 311.11 763.51 307.20 C 760.92 304.91 758.74 302.16 755.85 300.22 C 740.51 288.59 723.11 280.15 706.61 270.39 C 700.62 267.02 694.89 263.14 688.66 260.22 C 679.61 254.02 669.82 249.02 660.30 243.61 C 649.95 237.30 639.46 231.23 629.00 225.10 C 612.56 215.93 596.61 205.85 580.03 196.97 C 579.72 196.58 579.11 195.78 578.80 195.39 C 576.67 194.58 574.59 193.64 572.49 192.77 C 567.19 188.76 561.03 186.10 555.53 182.41 C 543.28 175.77 531.58 168.14 519.17 161.79 C 505.89 154.19 492.66 145.62 477.44 142.57 C 470.03 140.72 462.16 141.31 454.84 143.32 Z" />
</g>
<g id="#bb9122ff">
<path fill="#bb9122" stroke="#bb9122" stroke-width="0.09375" opacity="1.00" d=" M 140.74 279.00 C 171.04 260.01 201.46 241.23 231.73 222.20 C 267.32 244.96 302.90 267.72 338.63 290.25 C 341.58 291.95 343.74 294.79 346.90 296.15 C 350.43 297.71 353.90 299.58 356.66 302.33 C 359.11 304.75 362.56 305.62 365.41 307.43 C 377.81 315.41 390.37 323.14 402.64 331.30 C 436.09 352.10 469.12 373.61 502.46 394.60 C 601.00 457.35 699.53 520.11 798.12 582.77 C 802.58 585.59 806.86 588.71 811.59 591.09 C 811.40 600.39 811.55 609.69 811.49 618.99 C 812.47 633.65 811.79 648.37 812.02 663.06 C 812.28 668.58 808.95 673.40 805.77 677.61 C 803.86 680.71 801.69 683.65 799.44 686.51 C 797.11 689.28 793.76 690.87 790.75 692.75 C 721.34 733.43 651.87 773.99 582.43 814.62 C 555.25 830.13 527.82 845.20 500.56 860.57 C 493.86 864.62 485.91 865.27 478.52 867.36 C 467.75 869.91 456.91 866.71 446.41 864.52 C 441.27 862.26 435.79 860.78 431.03 857.73 C 418.84 850.44 405.74 844.51 394.48 835.80 C 390.16 834.25 386.89 830.84 382.69 829.07 C 365.18 818.74 347.91 808.01 330.54 797.47 C 270.92 762.43 211.15 727.65 151.55 692.59 C 146.96 688.17 142.05 684.03 137.88 679.19 C 132.07 670.12 126.89 660.25 125.61 649.39 C 125.19 645.47 124.80 641.54 124.50 637.62 C 124.48 578.42 124.47 519.21 124.66 460.01 C 124.80 446.34 124.34 432.65 125.00 418.99 C 124.99 388.98 125.02 358.96 124.99 328.95 C 125.96 316.62 125.29 303.71 130.63 292.19 C 133.17 287.27 136.39 282.48 140.74 279.00 M 216.99 274.35 C 205.90 280.12 195.65 287.31 185.07 293.90 C 179.57 297.45 175.14 302.35 171.04 307.39 C 169.29 310.53 167.70 313.78 166.39 317.14 C 164.45 322.57 165.18 328.39 164.80 334.02 C 164.47 339.66 164.00 345.30 164.12 350.96 C 164.38 362.98 163.29 374.97 163.20 386.98 C 163.17 425.99 163.22 465.01 163.14 504.02 C 161.64 532.97 162.45 561.97 162.23 590.95 C 162.09 601.30 163.51 611.62 163.17 621.98 C 162.95 627.81 164.80 633.41 165.83 639.09 C 167.67 647.64 173.10 654.75 178.77 661.18 C 182.29 665.32 187.07 668.02 191.03 671.67 C 198.36 675.90 205.53 680.43 212.78 684.79 C 215.20 685.93 217.41 687.46 219.90 688.46 C 220.70 689.20 221.49 689.95 222.29 690.71 C 222.83 690.79 223.90 690.95 224.44 691.04 C 228.39 694.14 233.16 695.93 237.16 698.93 C 239.20 699.85 241.23 700.81 243.32 701.61 C 246.21 704.32 250.11 705.48 253.29 707.76 C 271.32 718.75 290.22 728.21 308.12 739.40 C 308.53 739.52 309.36 739.74 309.77 739.86 C 313.16 743.18 317.77 744.73 321.44 747.67 C 336.11 755.84 350.34 764.80 365.01 772.99 C 373.07 778.27 381.52 782.91 389.65 788.07 C 390.06 788.23 390.88 788.55 391.29 788.71 C 392.69 789.87 394.22 790.86 395.83 791.73 C 397.92 793.55 400.48 794.69 402.79 796.20 C 409.74 800.24 416.28 804.99 423.47 808.62 C 423.94 809.26 424.42 809.91 424.90 810.57 C 427.26 811.36 429.52 812.42 431.93 813.09 C 432.74 813.80 433.55 814.54 434.38 815.28 C 439.52 816.57 443.90 819.91 449.08 821.15 C 452.72 821.98 456.20 823.49 459.95 823.87 C 465.26 824.50 470.62 824.16 475.95 824.06 C 480.12 824.08 483.92 822.24 487.91 821.32 C 493.22 820.32 497.71 817.14 502.68 815.22 C 504.17 813.94 505.90 812.99 507.77 812.40 C 508.20 812.05 509.06 811.34 509.49 810.99 C 509.98 810.92 510.96 810.80 511.46 810.73 C 513.04 809.02 515.12 808.02 517.20 807.06 C 523.70 803.16 530.72 800.19 537.04 795.96 C 542.43 792.40 548.46 789.88 553.65 786.02 C 559.85 783.05 565.69 779.30 571.56 775.71 C 576.67 773.03 582.01 770.65 586.54 767.00 C 586.99 766.90 587.88 766.70 588.33 766.60 C 595.82 760.52 605.03 757.11 612.85 751.56 C 625.20 745.32 636.42 737.14 648.80 730.97 C 651.61 729.13 654.50 727.40 657.62 726.13 C 662.31 722.83 667.19 719.76 672.38 717.31 C 680.17 712.64 687.77 707.57 695.95 703.60 C 696.93 702.76 697.86 701.81 699.05 701.25 C 705.62 698.28 711.13 693.44 717.64 690.34 C 725.38 685.54 733.34 681.08 741.09 676.28 C 744.11 673.47 748.42 672.69 751.33 669.73 C 760.83 665.56 767.24 656.83 771.95 647.91 C 774.07 639.46 773.20 630.65 773.36 622.03 C 773.17 618.16 773.70 614.17 772.81 610.38 C 768.31 607.05 763.41 604.31 758.74 601.25 C 751.28 596.69 744.14 591.59 736.40 587.52 C 731.29 583.86 725.92 580.58 720.46 577.47 C 710.89 571.42 701.42 565.21 691.84 559.18 C 684.31 555.41 677.66 550.13 670.27 546.15 C 666.69 543.08 662.15 541.45 658.63 538.32 C 658.09 538.24 657.02 538.08 656.48 538.00 C 655.99 537.24 655.50 536.50 655.02 535.76 C 650.26 533.93 646.21 530.73 641.83 528.19 C 638.97 526.17 635.56 524.96 633.05 522.47 C 632.67 522.35 631.90 522.13 631.51 522.02 C 620.89 515.05 610.25 508.09 599.20 501.81 C 586.49 493.03 572.93 485.55 560.15 476.84 C 552.52 472.29 544.67 468.02 537.52 462.73 C 531.07 459.25 525.19 454.84 518.90 451.11 C 514.69 448.23 509.94 446.23 505.88 443.13 C 470.20 420.88 434.61 398.38 398.84 376.24 C 390.07 370.20 380.93 364.78 371.76 359.40 C 366.72 356.36 362.14 352.48 356.69 350.16 C 356.16 349.55 355.64 348.95 355.12 348.36 C 345.20 343.52 336.86 335.99 326.77 331.48 C 324.59 329.19 321.57 328.04 319.00 326.27 C 309.84 320.45 300.72 314.57 291.47 308.92 C 279.34 301.64 267.56 293.81 255.52 286.40 C 246.69 280.02 236.71 275.44 227.90 269.02 C 223.64 268.72 220.18 271.94 216.99 274.35 Z" />
</g>
</svg>
