<?xml version="1.0" encoding="UTF-8" ?>
<!DOCTYPE svg PUBLIC "-//W3C//DTD SVG 1.1//EN" "http://www.w3.org/Graphics/SVG/1.1/DTD/svg11.dtd">
<svg width="640pt" height="640pt" viewBox="0 0 640 640" version="1.1" xmlns="http://www.w3.org/2000/svg">
<g id="#3d3d3dff">
<path fill="#3d3d3d" stroke="#3d3d3d" stroke-width="0.09375" opacity="1.00" d=" M 293.30 66.21 C 299.96 62.59 307.82 62.82 315.17 63.08 C 322.78 63.61 330.58 65.48 336.71 70.24 C 398.02 105.28 459.28 140.40 520.59 175.42 C 527.61 179.02 533.33 184.82 537.69 191.33 C 541.67 199.63 542.19 209.01 542.52 218.07 C 542.42 252.79 542.71 287.51 542.42 322.23 C 429.98 255.02 317.54 187.82 205.06 120.67 C 234.64 102.81 263.84 84.29 293.30 66.21 M 290.65 100.65 C 278.12 107.99 265.58 115.30 253.45 123.27 C 257.90 125.42 261.95 128.30 266.29 130.67 C 349.69 179.99 433.18 229.16 516.52 278.58 C 516.47 259.73 516.51 240.87 516.50 222.02 C 516.17 215.87 514.51 209.52 510.40 204.79 C 506.77 201.66 503.30 198.23 499.02 195.98 C 445.20 165.71 392.27 133.94 338.54 103.54 C 334.08 100.75 329.14 98.88 324.43 96.57 C 318.92 93.45 312.25 93.82 306.15 94.19 C 300.82 95.88 295.42 97.66 290.65 100.65 Z" />
</g>
<g id="#949493ff">
<path fill="#949493" stroke="#949493" stroke-width="0.09375" opacity="1.00" d=" M 142.46 155.31 C 145.82 152.97 149.36 150.90 152.93 148.90 C 282.37 231.07 411.89 313.10 541.32 395.28 C 540.88 410.00 542.65 424.67 541.66 439.40 C 542.28 443.26 540.48 446.93 538.41 450.07 C 536.38 453.10 534.51 456.32 531.79 458.79 C 527.29 462.42 522.17 465.15 517.11 467.89 C 513.93 469.81 510.89 471.98 507.56 473.66 C 501.60 476.97 496.05 480.97 490.18 484.44 C 481.52 489.10 472.98 493.98 464.62 499.15 C 457.27 504.20 449.29 508.22 441.43 512.38 C 434.30 516.63 427.43 521.29 420.19 525.36 C 411.48 530.06 402.68 534.76 394.51 540.34 C 391.82 541.63 389.47 543.48 386.84 544.89 C 378.92 548.74 371.63 553.77 363.72 557.67 C 358.59 560.22 354.12 564.02 348.80 566.20 C 348.51 566.49 347.93 567.08 347.63 567.37 C 341.90 569.94 336.44 573.10 330.57 575.36 C 319.09 580.41 305.63 579.62 294.10 574.99 C 280.96 570.61 270.14 561.68 258.43 554.63 C 250.26 549.94 242.16 545.12 234.10 540.25 C 225.66 535.08 217.29 529.73 208.41 525.33 C 202.45 522.10 197.21 517.72 191.14 514.72 C 182.65 509.45 173.53 505.30 165.11 499.92 C 157.69 495.21 150.15 490.69 142.32 486.69 C 133.99 482.72 126.55 477.19 118.46 472.79 C 113.47 469.92 108.34 467.31 103.58 464.06 C 96.14 458.58 89.84 451.41 85.98 442.98 C 81.12 428.50 82.73 413.02 82.51 397.99 C 81.54 385.36 81.47 372.62 82.50 360.00 C 82.53 350.66 82.15 341.29 83.13 331.99 C 83.11 294.67 83.11 257.35 83.10 220.03 C 83.89 212.65 83.54 205.07 85.78 197.90 C 87.18 194.25 88.99 190.72 91.48 187.70 C 98.10 181.14 106.61 177.09 114.21 171.86 C 123.05 165.40 133.13 160.98 142.46 155.31 M 137.18 187.22 C 128.12 193.38 116.75 198.08 112.09 208.75 C 109.30 213.72 110.24 219.57 109.83 225.01 C 108.99 235.00 109.71 245.05 108.89 255.05 C 108.42 288.70 109.37 322.37 108.21 356.01 C 108.31 373.32 107.71 390.65 108.76 407.95 C 108.45 415.24 109.19 422.62 111.68 429.51 C 116.00 439.81 125.28 446.88 134.74 452.20 C 152.38 462.66 170.34 472.54 188.06 482.85 C 201.69 490.03 214.42 498.74 227.86 506.26 C 244.02 515.62 259.96 525.36 275.79 535.27 C 278.42 536.85 281.23 538.20 283.50 540.31 C 285.58 541.17 287.69 541.99 289.57 543.25 C 293.66 545.01 297.60 547.19 302.00 548.14 C 307.13 549.87 312.63 549.39 317.96 549.28 C 328.27 547.89 337.22 542.26 346.10 537.24 C 358.48 530.69 370.34 523.20 382.56 516.35 C 389.72 512.82 396.08 507.88 403.21 504.29 C 410.49 499.86 418.05 495.92 425.26 491.36 C 438.40 484.26 450.90 476.02 464.07 469.00 C 464.38 468.67 464.98 468.01 465.29 467.68 C 467.94 466.77 470.24 465.15 472.56 463.62 C 480.17 458.94 488.14 454.79 495.47 449.67 C 498.63 448.18 501.59 446.32 504.48 444.35 C 509.05 441.26 512.18 436.50 514.69 431.69 C 516.21 423.52 515.62 415.14 515.28 406.89 C 465.33 375.37 415.13 344.26 365.07 312.92 C 307.37 276.72 249.60 240.60 191.87 204.45 C 183.12 199.15 174.52 193.59 165.94 188.03 C 161.22 185.12 156.19 182.64 151.87 179.14 C 146.45 180.69 142.19 184.73 137.18 187.22 Z" />
</g>
</svg>
