<?xml version="1.0" encoding="UTF-8" ?>
<!DOCTYPE svg PUBLIC "-//W3C//DTD SVG 1.1//EN" "http://www.w3.org/Graphics/SVG/1.1/DTD/svg11.dtd">
<svg width="606pt" height="690pt" viewBox="0 0 606 690" version="1.1" xmlns="http://www.w3.org/2000/svg">
<g id="#ffffffff">
<path fill="#ffffff" stroke="#ffffff" stroke-width="0.09375" opacity="1.00" d=" M 286.57 76.71 C 296.06 75.80 305.75 75.76 315.03 78.21 C 325.82 81.30 335.55 87.04 345.07 92.85 C 354.76 97.71 364.09 103.26 373.45 108.73 C 384.94 116.17 397.43 121.88 408.88 129.38 C 413.36 131.80 417.40 135.01 422.11 136.99 C 434.87 144.01 446.94 152.21 459.86 158.95 C 466.50 162.02 472.27 166.65 478.67 170.16 C 487.64 174.80 496.35 179.90 505.06 185.00 C 512.98 190.26 521.60 194.93 527.55 202.54 C 531.27 208.17 535.07 213.83 537.65 220.10 C 540.05 226.09 540.37 232.61 540.52 238.99 C 541.40 256.98 540.85 275.00 541.00 293.01 C 540.91 324.00 541.41 354.99 541.02 385.98 C 540.96 399.65 541.03 413.32 540.99 427.00 C 539.64 440.64 541.46 454.42 539.81 468.04 C 538.42 475.46 535.41 482.69 530.66 488.60 C 527.12 493.31 523.59 498.42 518.27 501.28 C 506.72 508.43 495.01 515.31 483.50 522.52 C 469.93 529.41 457.36 538.01 444.06 545.37 C 434.87 549.75 426.69 555.88 417.84 560.86 C 409.42 565.70 400.63 569.89 392.55 575.31 C 380.45 583.27 367.01 588.97 355.07 597.17 C 344.71 603.55 333.78 608.93 322.54 613.58 C 315.92 617.14 308.28 617.73 300.94 618.41 C 290.25 618.92 279.11 617.71 269.57 612.55 C 262.67 609.68 256.01 606.29 249.48 602.67 C 237.59 595.12 225.80 587.39 213.34 580.78 C 201.57 572.85 189.16 565.99 176.80 559.06 C 172.23 556.78 168.45 553.25 163.83 551.04 C 154.51 545.43 144.48 541.01 135.57 534.71 C 123.85 527.85 111.53 522.04 100.11 514.65 C 92.92 509.80 84.70 506.48 78.23 500.60 C 71.84 495.01 65.69 488.85 61.83 481.18 C 58.16 473.57 54.56 465.62 54.16 457.05 C 52.60 432.42 52.70 407.71 53.00 383.03 C 53.01 377.31 52.84 371.58 53.44 365.89 C 53.67 341.58 53.37 317.28 53.55 292.98 C 54.55 275.00 54.57 256.98 54.50 238.97 C 54.96 232.32 55.37 225.47 58.19 219.32 C 63.85 205.56 75.58 195.35 88.19 188.01 C 95.51 182.78 103.36 178.38 111.31 174.20 C 119.76 169.94 127.29 164.11 135.69 159.76 C 144.08 155.17 152.44 150.54 160.41 145.23 C 171.69 138.44 183.72 132.92 194.54 125.36 C 204.72 119.40 215.12 113.80 224.98 107.29 C 232.54 102.27 240.76 98.36 248.38 93.45 C 259.66 85.18 272.48 78.32 286.57 76.71 M 277.41 105.52 C 272.68 107.49 268.96 111.10 264.49 113.52 C 258.06 117.51 251.34 120.98 245.04 125.17 C 232.75 133.84 218.84 139.86 206.46 148.39 C 202.61 151.10 198.07 152.82 194.47 155.88 C 186.10 159.76 178.21 164.59 170.53 169.69 C 162.63 174.12 154.52 178.19 146.98 183.23 C 143.11 184.69 139.91 187.38 136.34 189.39 C 127.81 194.99 118.31 198.95 109.99 204.89 C 102.62 209.88 94.52 213.87 87.87 219.86 C 84.06 223.44 82.04 228.45 80.56 233.36 C 79.01 238.42 79.60 243.76 79.46 248.97 C 79.40 261.98 79.12 274.99 78.50 287.99 C 78.49 311.65 78.48 335.31 78.51 358.96 C 78.52 362.98 77.95 366.98 77.98 371.00 C 78.03 394.01 77.97 417.02 78.01 440.03 C 78.47 449.60 78.86 459.73 83.85 468.22 C 89.45 477.40 98.04 484.49 107.61 489.24 C 119.35 495.82 130.67 503.12 142.60 509.39 C 151.38 513.70 159.15 519.77 167.89 524.16 C 174.91 528.10 182.05 531.84 188.87 536.12 C 194.60 540.33 201.02 543.42 207.22 546.88 C 218.72 553.67 229.90 561.01 241.57 567.52 C 254.17 574.43 265.25 584.20 278.97 588.99 C 289.08 592.90 300.49 594.39 310.91 590.75 C 319.07 587.72 326.78 583.58 334.44 579.47 C 348.30 570.35 363.61 563.65 377.38 554.37 C 388.61 547.50 400.52 541.79 411.51 534.52 C 420.89 528.40 431.23 523.91 440.55 517.68 C 448.75 512.32 457.49 507.87 465.97 502.96 C 478.03 495.22 490.49 488.15 502.74 480.70 C 507.38 477.28 510.69 472.37 513.51 467.41 C 515.11 464.54 514.54 461.16 514.59 458.03 C 514.81 444.38 514.34 430.73 514.52 417.09 C 514.92 394.90 515.85 372.70 515.40 350.50 C 515.64 318.67 515.44 286.83 515.50 255.00 C 515.55 244.08 515.99 232.36 510.33 222.58 C 504.66 213.39 494.22 209.34 485.87 203.17 C 479.50 199.47 472.80 196.35 466.45 192.61 C 454.52 185.43 442.63 178.20 430.34 171.64 C 419.47 165.12 408.72 158.39 397.43 152.61 C 388.70 146.90 379.67 141.69 370.50 136.74 C 362.63 132.69 355.45 127.46 347.63 123.34 C 342.81 120.40 337.64 118.11 332.81 115.19 C 323.70 110.56 315.47 103.71 305.11 102.01 C 295.82 100.76 285.89 101.07 277.41 105.52 Z" />
</g>
<g id="#3d3d3dff">
<path fill="#3d3d3d" stroke="#3d3d3d" stroke-width="0.09375" opacity="1.00" d=" M 277.41 105.52 C 285.89 101.07 295.82 100.76 305.11 102.01 C 315.47 103.71 323.70 110.56 332.81 115.19 C 337.64 118.11 342.81 120.40 347.63 123.34 C 355.45 127.46 362.63 132.69 370.50 136.74 C 379.67 141.69 388.70 146.90 397.43 152.61 C 408.72 158.39 419.47 165.12 430.34 171.64 C 442.63 178.20 454.52 185.43 466.45 192.61 C 472.80 196.35 479.50 199.47 485.87 203.17 C 494.22 209.34 504.66 213.39 510.33 222.58 C 515.99 232.36 515.55 244.08 515.50 255.00 C 515.44 286.83 515.64 318.67 515.40 350.50 C 514.43 349.55 513.53 348.55 512.48 347.73 C 444.11 307.02 375.74 266.29 307.39 225.54 C 271.80 204.49 236.54 182.86 200.61 162.38 C 198.09 160.81 195.55 159.28 193.03 157.72 C 193.39 157.26 194.11 156.34 194.47 155.88 C 198.07 152.82 202.61 151.10 206.46 148.39 C 218.84 139.86 232.75 133.84 245.04 125.17 C 251.34 120.98 258.06 117.51 264.49 113.52 C 268.96 111.10 272.68 107.49 277.41 105.52 M 266.68 143.78 C 258.52 148.91 250.28 153.89 242.12 159.01 C 325.02 208.17 407.84 257.50 490.74 306.67 C 490.93 298.80 491.05 290.93 491.00 283.07 C 490.91 272.72 491.38 262.33 490.16 252.04 C 489.18 246.50 487.48 240.73 483.35 236.69 C 478.46 231.68 472.41 227.96 466.39 224.48 C 418.81 197.24 371.70 169.21 324.04 142.12 C 314.10 136.50 303.03 130.43 291.20 132.54 C 282.01 133.64 274.55 139.47 266.68 143.78 Z" />
</g>
<g id="#949493ff">
<path fill="#949493" stroke="#949493" stroke-width="0.09375" opacity="1.00" d=" M 136.34 189.39 C 139.91 187.38 143.11 184.69 146.98 183.23 C 166.74 196.14 186.75 208.69 206.68 221.35 C 210.05 223.67 213.80 225.43 216.92 228.10 C 219.79 230.77 224.14 231.17 226.47 234.53 C 234.37 238.75 241.68 244.02 249.35 248.64 C 328.51 298.78 407.45 349.26 486.57 399.46 C 495.96 405.21 505.73 410.41 514.52 417.09 C 514.34 430.73 514.81 444.38 514.59 458.03 C 514.54 461.16 515.11 464.54 513.51 467.41 C 510.69 472.37 507.38 477.28 502.74 480.70 C 490.49 488.15 478.03 495.22 465.97 502.96 C 457.49 507.87 448.75 512.32 440.55 517.68 C 431.23 523.91 420.89 528.40 411.51 534.52 C 400.52 541.79 388.61 547.50 377.38 554.37 C 363.61 563.65 348.30 570.35 334.44 579.47 C 326.78 583.58 319.07 587.72 310.91 590.75 C 300.49 594.39 289.08 592.90 278.97 588.99 C 265.25 584.20 254.17 574.43 241.57 567.52 C 229.90 561.01 218.72 553.67 207.22 546.88 C 201.02 543.42 194.60 540.33 188.87 536.12 C 182.05 531.84 174.91 528.10 167.89 524.16 C 159.15 519.77 151.38 513.70 142.60 509.39 C 130.67 503.12 119.35 495.82 107.61 489.24 C 98.04 484.49 89.45 477.40 83.85 468.22 C 78.86 459.73 78.47 449.60 78.01 440.03 C 77.97 417.02 78.03 394.01 77.98 371.00 C 77.95 366.98 78.52 362.98 78.51 358.96 C 78.48 335.31 78.49 311.65 78.50 287.99 C 79.12 274.99 79.40 261.98 79.46 248.97 C 79.60 243.76 79.01 238.42 80.56 233.36 C 82.04 228.45 84.06 223.44 87.87 219.86 C 94.52 213.87 102.62 209.88 109.99 204.89 C 118.31 198.95 127.81 194.99 136.34 189.39 M 141.44 213.48 C 137.92 215.59 134.60 218.02 130.98 219.98 C 122.54 225.62 112.36 229.85 107.14 239.09 C 102.64 246.62 104.41 255.69 103.95 264.01 C 103.12 276.32 103.77 288.66 103.24 300.98 C 102.51 322.31 103.64 343.67 102.50 364.98 C 102.53 386.34 102.42 407.71 102.55 429.07 C 103.16 436.92 103.29 445.10 106.54 452.42 C 110.96 461.69 119.68 467.78 128.31 472.80 C 151.46 486.32 174.92 499.31 198.01 512.93 C 215.58 523.81 233.77 533.64 251.15 544.84 C 260.44 550.08 269.01 556.60 278.84 560.85 C 288.12 565.59 299.21 566.28 309.16 563.33 C 318.37 560.09 326.35 554.31 335.09 550.07 C 345.28 544.31 355.18 538.05 365.48 532.51 C 378.32 524.90 391.10 517.22 404.18 510.05 C 419.66 500.51 435.59 491.74 451.05 482.17 C 461.50 475.97 472.15 470.05 482.14 463.12 C 486.21 458.69 490.60 453.30 490.07 446.91 C 490.23 441.05 489.94 435.20 489.99 429.34 C 376.25 358.34 262.64 287.13 148.97 216.03 C 146.68 214.81 144.22 211.68 141.44 213.48 Z" />
</g>
</svg>
