<?xml version="1.0" encoding="UTF-8" ?>
<!DOCTYPE svg PUBLIC "-//W3C//DTD SVG 1.1//EN" "http://www.w3.org/Graphics/SVG/1.1/DTD/svg11.dtd">
<svg width="758pt" height="863pt" viewBox="0 0 758 863" version="1.1" xmlns="http://www.w3.org/2000/svg">
<g id="#000000ff">
<path fill="#000000" stroke="#000000" stroke-width="0.09375" opacity="1.00" d=" M 356.30 95.63 C 361.43 94.40 366.75 95.20 371.97 95.01 C 376.85 95.17 381.84 94.44 386.64 95.62 C 388.29 95.91 389.95 96.18 391.57 96.65 C 392.89 96.97 394.21 97.27 395.52 97.62 C 396.52 97.96 397.52 98.31 398.52 98.67 C 399.53 99.03 400.55 99.40 401.57 99.78 C 402.05 99.88 403.01 100.07 403.49 100.16 C 405.12 101.04 406.77 101.88 408.42 102.74 C 408.93 102.99 409.93 103.48 410.44 103.73 C 411.47 104.24 412.52 104.76 413.57 105.27 C 415.19 106.09 416.82 106.89 418.46 107.69 C 420.84 108.93 423.11 110.38 425.44 111.74 C 427.09 112.73 428.72 113.78 430.38 114.78 C 431.74 115.39 433.10 116.03 434.47 116.66 C 436.84 117.92 439.10 119.38 441.39 120.79 C 442.45 121.26 443.52 121.74 444.59 122.22 C 447.27 123.60 449.84 125.20 452.42 126.76 C 454.45 127.98 456.46 129.24 458.59 130.29 C 460.56 131.40 462.47 132.62 464.43 133.74 C 466.10 134.74 467.74 135.78 469.43 136.74 C 470.81 137.56 472.17 138.43 473.56 139.25 C 475.52 140.38 477.43 141.60 479.41 142.71 C 482.48 144.27 485.33 146.23 488.44 147.72 C 491.22 149.12 493.79 150.88 496.56 152.28 C 499.28 153.59 501.84 155.20 504.45 156.72 C 507.11 158.37 509.66 160.19 512.40 161.72 C 516.32 163.56 519.68 166.36 523.51 168.36 C 524.04 168.57 525.08 169.00 525.60 169.21 C 527.89 170.63 530.16 172.10 532.58 173.29 C 534.91 174.63 537.17 176.09 539.59 177.29 C 541.56 178.40 543.46 179.62 545.43 180.74 C 546.81 181.56 548.17 182.43 549.57 183.25 C 551.26 184.22 552.90 185.26 554.58 186.25 C 556.54 187.38 558.45 188.61 560.42 189.75 C 562.08 190.73 563.72 191.77 565.41 192.71 C 567.83 193.90 570.09 195.36 572.40 196.76 C 573.75 197.39 575.10 198.04 576.45 198.69 C 580.38 200.48 583.92 202.96 587.56 205.26 C 590.59 206.96 593.40 209.01 596.41 210.76 C 598.08 211.74 599.71 212.78 601.39 213.75 C 602.74 214.40 604.09 215.06 605.44 215.73 C 606.48 216.23 607.54 216.73 608.61 217.23 C 610.54 218.38 612.44 219.60 614.40 220.72 C 617.21 222.10 619.78 223.89 622.59 225.28 C 624.56 226.40 626.46 227.62 628.44 228.75 C 629.82 229.56 631.18 230.43 632.58 231.24 C 642.23 237.40 652.42 243.35 659.63 252.47 C 661.94 255.77 664.12 259.15 666.28 262.55 C 667.60 264.89 669.06 267.16 670.34 269.53 C 670.56 270.04 671.01 271.07 671.23 271.59 C 671.76 272.55 672.31 273.52 672.86 274.49 C 672.96 274.97 673.16 275.93 673.26 276.41 C 673.69 277.73 674.05 279.08 674.43 280.43 C 674.81 282.37 675.04 284.34 675.35 286.31 C 676.85 293.18 675.43 300.28 676.20 307.24 C 677.57 311.01 676.86 315.09 677.00 319.01 C 677.01 390.69 676.97 462.37 677.02 534.05 C 677.04 535.65 676.73 537.24 676.20 538.76 C 675.74 549.17 676.12 559.61 676.00 570.03 C 675.85 574.58 676.53 579.23 675.35 583.69 C 675.04 585.65 674.81 587.63 674.43 589.58 C 674.05 590.91 673.69 592.26 673.26 593.59 C 673.16 594.07 672.95 595.03 672.84 595.51 C 671.93 597.17 671.04 598.85 670.13 600.52 C 670.06 600.99 669.94 601.93 669.88 602.39 C 669.14 603.42 668.43 604.46 667.76 605.54 C 664.10 611.45 659.62 616.81 655.07 622.05 C 652.18 624.65 648.94 626.83 645.59 628.77 C 644.18 629.56 642.81 630.42 641.42 631.23 C 638.41 632.97 635.59 635.02 632.58 636.76 C 631.18 637.57 629.81 638.43 628.43 639.26 C 626.45 640.38 624.53 641.61 622.56 642.73 C 619.87 644.37 617.30 646.19 614.57 647.76 C 613.17 648.56 611.81 649.43 610.43 650.26 C 607.84 651.80 605.28 653.41 602.56 654.72 C 599.77 656.12 597.20 657.90 594.41 659.28 C 592.43 660.39 590.53 661.61 588.57 662.75 C 586.91 663.73 585.28 664.76 583.59 665.71 C 580.06 667.40 576.95 669.80 573.58 671.77 C 571.91 672.74 570.27 673.76 568.59 674.71 C 566.46 675.76 564.44 677.01 562.42 678.24 C 560.45 679.38 558.55 680.61 556.61 681.77 C 554.86 682.57 553.14 683.41 551.41 684.23 C 547.60 686.08 544.21 688.62 540.59 690.77 C 539.18 691.56 537.81 692.42 536.42 693.23 C 533.41 694.97 530.59 697.01 527.59 698.77 C 525.55 699.98 523.53 701.23 521.41 702.29 C 519.08 703.62 516.83 705.06 514.48 706.34 C 513.96 706.56 512.92 707.00 512.40 707.21 C 508.69 709.17 505.24 711.58 501.38 713.25 C 498.39 714.99 495.59 717.03 492.57 718.74 C 490.16 720.19 487.83 721.79 485.44 723.28 C 483.11 724.61 480.84 726.07 478.44 727.28 C 475.34 728.76 472.50 730.71 469.45 732.28 C 466.05 733.92 462.95 736.07 459.56 737.72 C 457.15 738.92 454.89 740.38 452.56 741.72 C 450.16 743.19 447.84 744.80 445.44 746.28 C 443.74 747.22 442.09 748.25 440.42 749.25 C 438.46 750.38 436.55 751.60 434.61 752.76 C 433.25 753.39 431.90 754.04 430.56 754.71 C 429.22 755.37 427.89 756.04 426.57 756.73 C 425.52 757.23 424.47 757.75 423.43 758.27 C 421.44 759.28 419.44 760.28 417.44 761.28 C 416.10 761.94 414.75 762.60 413.41 763.25 C 412.43 763.79 411.45 764.33 410.49 764.89 C 410.00 764.94 409.01 765.06 408.52 765.12 C 407.54 765.65 406.56 766.19 405.59 766.73 C 404.20 767.40 402.83 768.10 401.47 768.83 C 401.00 768.93 400.04 769.11 399.57 769.21 C 398.55 769.60 397.54 769.99 396.52 770.38 C 395.21 770.74 393.90 771.06 392.59 771.41 C 390.63 771.79 388.66 772.04 386.70 772.37 C 383.28 773.32 379.61 772.58 376.25 773.79 C 372.25 773.98 368.08 774.58 364.23 773.20 C 360.93 772.98 357.57 773.20 354.34 772.37 C 353.42 772.14 352.50 771.93 351.59 771.73 C 349.88 771.21 348.14 770.78 346.44 770.28 C 345.97 770.14 345.04 769.87 344.57 769.73 C 343.53 769.38 342.48 769.05 341.44 768.74 C 340.48 768.24 339.53 767.74 338.58 767.25 C 337.52 766.74 336.46 766.25 335.41 765.77 C 334.43 765.21 333.47 764.66 332.50 764.12 C 332.01 764.05 331.03 763.92 330.54 763.86 C 328.24 762.61 325.90 761.45 323.57 760.26 C 321.85 759.42 320.14 758.57 318.41 757.76 C 316.01 756.53 313.70 755.16 311.42 753.75 C 309.45 752.60 307.53 751.38 305.55 750.28 C 301.84 748.01 298.35 745.38 294.56 743.25 C 292.15 741.80 289.83 740.19 287.44 738.72 C 285.74 737.77 284.09 736.73 282.42 735.74 C 280.10 734.37 277.83 732.90 275.41 731.71 C 273.45 730.60 271.55 729.39 269.59 728.30 C 266.06 726.59 262.96 724.18 259.56 722.25 C 256.87 720.62 254.30 718.81 251.58 717.24 C 249.90 716.25 248.26 715.21 246.58 714.26 C 244.91 713.26 243.28 712.23 241.60 711.29 C 239.18 710.09 236.92 708.63 234.59 707.29 C 232.18 706.09 229.92 704.63 227.59 703.29 C 225.18 702.09 222.92 700.63 220.59 699.30 C 214.53 696.34 209.50 691.68 203.44 688.72 C 199.40 686.71 195.69 684.10 191.54 682.30 C 188.78 680.87 186.22 679.11 183.45 677.72 C 181.02 676.54 178.71 675.17 176.42 673.77 C 173.70 672.19 171.12 670.37 168.45 668.72 C 166.10 667.38 163.83 665.91 161.41 664.71 C 158.81 663.19 156.27 661.60 153.59 660.23 C 153.08 659.99 152.06 659.52 151.56 659.28 C 151.05 659.04 150.04 658.56 149.53 658.33 C 146.79 656.87 144.22 655.11 141.45 653.72 C 139.02 652.55 136.71 651.17 134.43 649.76 C 132.74 648.78 131.10 647.74 129.42 646.76 C 126.41 645.02 123.59 642.98 120.59 641.24 C 118.92 640.26 117.28 639.23 115.59 638.29 C 113.17 637.08 110.90 635.61 108.55 634.28 C 96.11 626.61 84.89 616.28 77.68 603.46 C 76.39 600.77 75.05 598.10 73.74 595.43 C 73.24 594.46 72.74 593.50 72.25 592.55 C 71.95 591.52 71.65 590.49 71.34 589.48 C 71.01 588.47 70.68 587.47 70.34 586.48 C 69.98 585.46 69.61 584.45 69.24 583.44 C 69.11 582.98 68.85 582.04 68.72 581.57 C 68.03 579.52 67.91 577.33 67.16 575.30 C 66.54 569.97 67.87 564.42 66.20 559.24 C 65.61 542.42 66.39 525.57 65.81 508.76 C 64.60 505.72 64.61 502.27 65.80 499.24 C 66.39 454.09 65.60 408.91 66.20 363.76 C 66.65 362.54 66.91 361.30 66.98 360.02 C 67.18 349.94 66.71 339.83 67.20 329.76 C 68.18 327.27 68.04 324.57 68.04 321.96 C 67.94 312.96 68.06 303.97 67.96 294.97 C 67.94 292.40 67.93 289.79 68.65 287.30 C 68.95 285.34 69.18 283.36 69.57 281.42 C 69.95 280.08 70.31 278.73 70.74 277.41 C 70.85 276.94 71.07 275.99 71.18 275.52 C 72.04 273.87 72.88 272.22 73.72 270.57 C 80.77 255.56 93.62 244.25 107.56 235.74 C 112.69 232.85 117.32 229.17 122.42 226.22 C 124.72 224.83 127.02 223.45 129.44 222.28 C 132.22 220.88 134.79 219.12 137.55 217.70 C 140.67 216.26 143.68 214.60 146.58 212.77 C 149.59 211.02 152.41 208.98 155.42 207.24 C 157.09 206.25 158.74 205.21 160.42 204.24 C 162.45 203.02 164.46 201.76 166.59 200.71 C 168.55 199.61 170.45 198.40 172.41 197.29 C 175.48 195.73 178.33 193.77 181.44 192.28 C 183.55 191.23 185.56 189.98 187.57 188.76 C 189.26 187.78 190.90 186.74 192.59 185.76 C 195.60 184.02 198.41 181.98 201.41 180.22 C 203.45 179.01 205.47 177.76 207.59 176.71 C 209.91 175.37 212.17 173.93 214.54 172.67 C 215.51 172.22 216.48 171.77 217.46 171.33 C 219.83 170.07 222.09 168.62 224.41 167.29 C 226.54 166.23 228.55 164.98 230.58 163.75 C 232.26 162.78 233.90 161.74 235.58 160.76 C 238.31 159.20 240.88 157.37 243.56 155.72 C 245.90 154.38 248.17 152.91 250.60 151.72 C 252.56 150.60 254.47 149.38 256.42 148.24 C 258.45 147.01 260.46 145.76 262.59 144.72 C 264.27 143.77 265.91 142.73 267.57 141.75 C 269.26 140.78 270.90 139.75 272.58 138.77 C 276.64 136.44 280.35 133.56 284.42 131.24 C 285.81 130.42 287.18 129.56 288.58 128.74 C 291.16 127.19 293.71 125.58 296.44 124.28 C 298.85 123.08 301.11 121.62 303.43 120.26 C 304.82 119.44 306.18 118.57 307.58 117.77 C 311.83 115.48 315.40 112.16 319.55 109.70 C 322.17 108.21 324.72 106.61 327.41 105.23 C 329.14 104.42 330.86 103.58 332.60 102.76 C 333.57 102.21 334.54 101.66 335.51 101.10 C 336.01 101.06 337.01 100.96 337.51 100.91 C 338.49 100.31 339.48 99.71 340.47 99.12 C 340.95 99.03 341.93 98.85 342.41 98.75 C 344.12 98.22 345.86 97.79 347.58 97.26 C 348.50 97.06 349.42 96.85 350.35 96.64 C 352.32 96.23 354.31 95.97 356.30 95.63 M 342.44 134.41 C 330.20 143.14 316.72 149.93 304.18 158.21 C 290.22 167.97 274.43 174.72 260.41 184.39 C 254.20 188.65 247.03 191.44 241.38 196.52 C 240.04 197.06 238.72 197.63 237.39 198.19 C 235.46 199.38 233.56 200.61 231.59 201.72 C 229.46 202.76 227.44 204.01 225.42 205.25 C 223.45 206.39 221.54 207.62 219.55 208.73 C 216.89 210.37 214.33 212.18 211.60 213.73 C 208.16 215.48 204.96 217.68 201.44 219.29 C 198.02 220.86 194.78 222.77 191.57 224.72 C 189.53 225.98 187.52 227.28 185.51 228.59 C 185.30 228.72 184.87 228.99 184.66 229.12 C 180.89 230.13 177.74 232.51 174.43 234.46 C 168.64 238.42 162.43 241.67 156.44 245.28 C 153.35 246.77 150.34 248.42 147.45 250.25 C 141.95 252.92 137.20 256.82 131.97 259.95 C 124.16 264.68 116.32 269.41 109.45 275.48 C 107.65 277.83 105.87 280.20 104.11 282.58 C 104.06 283.06 103.96 284.03 103.91 284.51 C 103.31 285.52 102.71 286.53 102.11 287.54 C 102.04 288.02 101.90 288.98 101.83 289.46 C 101.41 290.47 101.00 291.48 100.59 292.50 C 100.04 294.89 99.96 297.38 99.24 299.74 C 98.93 312.49 99.18 325.25 99.00 338.01 C 98.83 342.25 99.62 346.66 98.22 350.77 C 97.89 365.17 98.16 379.59 98.07 394.01 C 98.13 434.01 97.94 474.00 98.00 514.00 C 98.19 530.10 97.62 546.22 98.30 562.30 C 98.99 565.00 99.08 567.79 99.57 570.53 C 99.96 571.88 100.34 573.25 100.79 574.59 C 100.91 575.52 101.04 576.45 101.17 577.39 C 102.04 579.05 102.88 580.73 103.72 582.42 C 106.02 587.68 109.63 592.24 113.71 596.24 C 119.18 601.90 125.39 606.98 132.58 610.30 C 140.57 615.02 148.66 619.57 156.58 624.41 C 167.06 630.74 178.07 636.13 188.57 642.40 C 200.44 650.26 213.07 656.82 225.46 663.77 C 236.56 670.18 247.16 677.46 258.59 683.29 C 268.74 689.07 278.46 695.55 288.57 701.41 C 297.99 707.38 308.02 712.35 317.18 718.75 C 325.94 724.70 335.04 730.17 344.56 734.82 C 345.04 734.92 345.98 735.13 346.45 735.23 C 347.49 735.57 348.53 735.90 349.59 736.23 C 350.56 736.76 351.54 737.29 352.52 737.83 C 353.48 737.94 354.44 738.07 355.42 738.22 C 356.75 738.63 358.10 738.99 359.45 739.37 C 361.84 739.96 364.33 740.01 366.69 740.73 C 370.56 741.06 374.45 741.08 378.32 740.72 C 380.66 740.03 383.12 739.96 385.50 739.41 C 386.50 738.99 387.51 738.57 388.53 738.17 C 389.01 738.09 389.98 737.94 390.47 737.86 C 391.47 737.26 392.47 736.67 393.48 736.08 C 393.96 736.02 394.92 735.90 395.40 735.84 C 404.20 731.08 413.51 727.25 421.99 721.89 C 430.47 716.60 439.32 711.92 448.01 706.98 C 461.00 700.25 473.00 691.80 485.82 684.76 C 495.87 679.31 505.77 673.60 515.53 667.66 C 518.93 665.13 522.60 662.99 526.46 661.26 C 534.93 656.10 543.91 651.79 552.14 646.23 C 562.71 639.66 573.57 633.57 584.54 627.70 C 597.09 619.03 610.56 611.77 623.54 603.76 C 632.31 599.20 638.39 591.00 642.92 582.44 C 643.11 565.64 642.95 548.84 643.00 532.04 C 642.94 527.99 643.30 523.92 642.70 519.91 C 643.54 507.23 642.53 494.46 643.20 481.76 C 644.40 478.63 643.95 475.23 644.02 471.97 C 643.86 460.56 644.23 449.13 643.86 437.73 C 644.18 392.82 643.92 347.90 643.99 302.99 C 643.13 292.32 641.00 280.74 633.30 272.73 C 627.73 266.68 620.23 263.04 613.54 258.45 C 605.67 253.05 597.17 248.67 588.72 244.28 C 572.16 234.94 556.18 224.61 539.40 215.65 C 530.05 210.36 521.03 204.51 511.68 199.24 C 505.82 195.74 499.54 192.99 493.85 189.19 C 480.96 180.81 467.32 173.68 453.95 166.11 C 436.53 154.80 417.70 145.87 399.95 135.09 C 382.83 124.48 359.79 124.15 342.44 134.41 Z" />
</g>
<g id="#3d3d3dff">
<path fill="#3d3d3d" stroke="#3d3d3d" stroke-width="0.09375" opacity="1.00" d=" M 342.44 134.41 C 359.79 124.15 382.83 124.48 399.95 135.09 C 417.70 145.87 436.53 154.80 453.95 166.11 C 467.32 173.68 480.96 180.81 493.85 189.19 C 499.54 192.99 505.82 195.74 511.68 199.24 C 521.03 204.51 530.05 210.36 539.40 215.65 C 556.18 224.61 572.16 234.94 588.72 244.28 C 597.17 248.67 605.67 253.05 613.54 258.45 C 620.23 263.04 627.73 266.68 633.30 272.73 C 641.00 280.74 643.13 292.32 643.99 302.99 C 643.92 347.90 644.18 392.82 643.86 437.73 C 640.37 434.12 635.82 431.88 631.57 429.34 C 521.31 363.61 410.99 297.96 300.75 232.20 C 284.08 222.44 267.58 212.36 250.57 203.23 C 247.48 201.03 244.12 199.17 241.38 196.52 C 247.03 191.44 254.20 188.65 260.41 184.39 C 274.43 174.72 290.22 167.97 304.18 158.21 C 316.72 149.93 330.20 143.14 342.44 134.41 M 348.91 170.84 C 333.16 179.53 318.11 189.39 302.77 198.77 C 406.33 260.19 509.80 321.77 613.38 383.17 C 613.68 363.59 613.90 344.00 613.41 324.43 C 612.96 314.42 611.45 303.35 604.10 295.87 C 595.39 287.09 584.21 281.50 573.67 275.29 C 516.15 242.21 459.05 208.40 401.34 175.63 C 393.65 171.39 385.61 167.43 376.90 165.82 C 367.35 164.14 357.38 166.24 348.91 170.84 Z" />
</g>
<g id="#949493ff">
<path fill="#949493" stroke="#949493" stroke-width="0.09375" opacity="1.00" d=" M 174.43 234.46 C 177.74 232.51 180.89 230.13 184.66 229.12 C 184.19 229.42 183.25 230.02 182.78 230.32 C 188.49 233.78 193.85 237.77 199.54 241.25 C 204.69 244.13 209.31 247.86 214.45 250.75 C 219.92 254.09 225.07 257.91 230.54 261.25 C 235.38 263.98 239.78 267.40 244.54 270.25 C 250.40 273.62 255.77 277.76 261.55 281.25 C 266.69 284.14 271.31 287.86 276.46 290.75 C 282.23 294.24 287.60 298.38 293.45 301.75 C 297.91 304.44 302.09 307.56 306.54 310.25 C 312.71 313.77 318.28 318.22 324.44 321.74 C 328.90 324.44 333.09 327.56 337.55 330.25 C 343.71 333.77 349.29 338.23 355.46 341.75 C 360.22 344.61 364.63 348.02 369.46 350.75 C 375.24 354.25 380.61 358.38 386.46 361.75 C 390.91 364.44 395.08 367.55 399.53 370.24 C 405.71 373.77 411.29 378.23 417.46 381.75 C 423.24 385.25 428.60 389.38 434.46 392.75 C 438.91 395.44 443.09 398.55 447.54 401.25 C 453.39 404.62 458.76 408.75 464.54 412.25 C 469.68 415.13 474.30 418.86 479.45 421.75 C 484.92 425.08 490.07 428.90 495.53 432.24 C 500.69 435.13 505.31 438.87 510.47 441.76 C 516.25 445.26 521.62 449.40 527.48 452.76 C 532.23 455.62 536.63 459.02 541.46 461.75 C 547.24 465.25 552.60 469.38 558.46 472.75 C 562.91 475.44 567.09 478.56 571.55 481.25 C 577.72 484.77 583.30 489.24 589.47 492.76 C 593.92 495.45 598.10 498.56 602.55 501.25 C 608.40 504.62 613.77 508.76 619.55 512.25 C 624.69 515.14 629.31 518.86 634.45 521.75 C 636.91 523.22 639.27 524.86 641.65 526.46 C 641.94 524.26 642.21 522.07 642.70 519.91 C 643.30 523.92 642.94 527.99 643.00 532.04 C 642.95 548.84 643.11 565.64 642.92 582.44 C 638.39 591.00 632.31 599.20 623.54 603.76 C 610.56 611.77 597.09 619.03 584.54 627.70 C 573.57 633.57 562.71 639.66 552.14 646.23 C 543.91 651.79 534.93 656.10 526.46 661.26 C 522.60 662.99 518.93 665.13 515.53 667.66 C 505.77 673.60 495.87 679.31 485.82 684.76 C 473.00 691.80 461.00 700.25 448.01 706.98 C 439.32 711.92 430.47 716.60 421.99 721.89 C 413.51 727.25 404.20 731.08 395.40 735.84 C 394.92 735.90 393.96 736.02 393.48 736.08 C 392.47 736.67 391.47 737.26 390.47 737.86 C 389.98 737.94 389.01 738.09 388.53 738.17 C 387.51 738.57 386.50 738.99 385.50 739.41 C 383.12 739.96 380.66 740.03 378.32 740.72 C 374.45 741.08 370.56 741.06 366.69 740.73 C 364.33 740.01 361.84 739.96 359.45 739.37 C 358.10 738.99 356.75 738.63 355.42 738.22 C 354.44 738.07 353.48 737.94 352.52 737.83 C 351.54 737.29 350.56 736.76 349.59 736.23 C 348.53 735.90 347.49 735.57 346.45 735.23 C 345.98 735.13 345.04 734.92 344.56 734.82 C 335.04 730.17 325.94 724.70 317.18 718.75 C 308.02 712.35 297.99 707.38 288.57 701.41 C 278.46 695.55 268.74 689.07 258.59 683.29 C 247.16 677.46 236.56 670.18 225.46 663.77 C 213.07 656.82 200.44 650.26 188.57 642.40 C 178.07 636.13 167.06 630.74 156.58 624.41 C 148.66 619.57 140.57 615.02 132.58 610.30 C 125.39 606.98 119.18 601.90 113.71 596.24 C 109.63 592.24 106.02 587.68 103.72 582.42 C 102.88 580.73 102.04 579.05 101.17 577.39 C 101.04 576.45 100.91 575.52 100.79 574.59 C 100.34 573.25 99.96 571.88 99.57 570.53 C 99.08 567.79 98.99 565.00 98.30 562.30 C 97.62 546.22 98.19 530.10 98.00 514.00 C 97.94 474.00 98.13 434.01 98.07 394.01 C 98.16 379.59 97.89 365.17 98.22 350.77 C 99.62 346.66 98.83 342.25 99.00 338.01 C 99.18 325.25 98.93 312.49 99.24 299.74 C 99.96 297.38 100.04 294.89 100.59 292.50 C 101.00 291.48 101.41 290.47 101.83 289.46 C 101.90 288.98 102.04 288.02 102.11 287.54 C 102.71 286.53 103.31 285.52 103.91 284.51 C 103.96 284.03 104.06 283.06 104.11 282.58 C 105.87 280.20 107.65 277.83 109.45 275.48 C 116.32 269.41 124.16 264.68 131.97 259.95 C 137.20 256.82 141.95 252.92 147.45 250.25 C 150.34 248.42 153.35 246.77 156.44 245.28 C 162.43 241.67 168.64 238.42 174.43 234.46 M 176.92 266.96 C 169.05 271.41 161.84 277.12 153.50 280.67 C 149.49 283.53 145.55 286.50 141.50 289.31 C 136.88 293.37 133.64 298.80 131.25 304.41 C 130.98 306.20 130.47 307.95 129.67 309.58 C 128.58 312.33 129.13 315.35 128.87 318.23 C 127.67 320.38 128.09 322.90 127.82 325.25 C 127.24 326.41 126.96 327.64 127.00 328.95 C 126.92 356.38 127.16 383.81 126.88 411.24 C 126.23 412.39 125.94 413.64 126.00 414.96 C 126.00 453.19 126.00 491.42 126.00 529.65 C 126.50 530.08 127.50 530.92 128.00 531.35 C 128.00 535.88 128.00 540.42 128.00 544.95 L 126.93 545.01 L 127.07 546.33 C 127.55 545.93 128.52 545.13 129.00 544.73 C 128.99 547.24 128.99 549.77 129.13 552.29 C 129.78 553.94 129.97 555.71 130.28 557.46 C 130.72 558.78 131.00 560.14 131.29 561.51 C 132.06 563.18 132.77 564.90 133.24 566.70 C 139.04 575.77 147.27 583.10 156.50 588.57 C 181.69 603.47 207.28 617.67 232.58 632.38 C 250.56 642.70 268.13 653.74 286.19 663.93 C 287.83 664.98 289.51 665.96 291.22 666.92 C 303.27 674.14 315.02 681.86 327.20 688.87 C 334.25 693.70 341.72 697.97 349.54 701.46 C 359.73 706.24 371.60 707.66 382.57 704.92 C 391.34 703.15 399.19 698.43 406.78 693.89 C 418.36 688.00 429.55 681.39 440.71 674.74 C 448.00 670.33 455.63 666.51 462.84 661.96 C 476.98 653.70 491.05 645.30 505.39 637.38 C 521.61 627.51 538.12 618.12 554.39 608.34 C 570.06 598.67 586.33 589.97 601.53 579.56 C 605.73 575.97 608.70 571.16 612.96 567.59 C 613.00 567.09 613.09 566.10 613.14 565.60 C 613.60 564.57 614.05 563.54 614.49 562.50 C 615.33 559.06 614.92 555.48 615.03 551.97 C 614.92 549.71 615.37 547.27 614.12 545.24 C 614.00 542.95 613.99 540.67 614.00 538.38 C 612.59 537.00 611.16 535.63 609.72 534.29 C 604.43 532.33 600.05 528.60 595.18 525.84 C 559.30 503.34 523.29 481.03 487.57 458.28 C 484.78 456.81 482.14 455.08 479.56 453.28 C 476.78 451.80 474.14 450.08 471.56 448.28 C 468.78 446.80 466.14 445.08 463.57 443.28 C 460.78 441.80 458.15 440.08 455.57 438.28 C 454.20 437.44 452.87 436.54 451.50 435.74 C 450.15 434.97 448.83 434.16 447.55 433.30 C 446.19 432.44 444.87 431.54 443.50 430.73 C 442.15 429.96 440.83 429.16 439.55 428.30 C 438.19 427.44 436.87 426.54 435.49 425.73 C 434.15 424.96 432.83 424.15 431.55 423.30 C 430.19 422.44 428.88 421.54 427.51 420.73 C 426.16 419.96 424.83 419.17 423.54 418.32 C 422.52 417.66 421.53 416.97 420.55 416.29 C 419.17 415.44 417.84 414.53 416.45 413.73 C 415.11 412.97 413.80 412.17 412.53 411.31 C 411.16 410.45 409.84 409.53 408.45 408.73 C 407.10 407.97 405.79 407.17 404.53 406.30 C 403.16 405.44 401.83 404.53 400.44 403.72 C 399.10 402.97 397.79 402.17 396.53 401.32 C 394.15 399.79 391.85 398.14 389.41 396.71 C 386.64 395.21 384.12 393.31 381.42 391.71 C 378.65 390.21 376.13 388.31 373.42 386.72 C 370.65 385.21 368.13 383.31 365.42 381.72 C 361.32 379.48 357.69 376.50 353.59 374.27 C 350.87 372.68 348.37 370.76 345.59 369.27 C 343.14 367.84 340.85 366.15 338.41 364.72 C 335.36 363.07 332.64 360.91 329.60 359.27 C 325.84 357.08 322.42 354.35 318.59 352.28 C 315.87 350.69 313.37 348.76 310.59 347.28 C 308.13 345.85 305.85 344.14 303.40 342.71 C 300.62 341.23 298.12 339.30 295.40 337.72 C 291.57 335.64 288.16 332.90 284.40 330.72 C 281.35 329.10 278.65 326.90 275.59 325.28 C 272.87 323.70 270.38 321.76 267.60 320.28 C 263.84 318.10 260.43 315.35 256.60 313.28 C 253.87 311.70 251.38 309.76 248.59 308.28 C 245.87 306.70 243.38 304.76 240.60 303.28 C 237.87 301.70 235.38 299.75 232.59 298.28 C 229.10 296.24 225.89 293.76 222.40 291.72 C 219.35 290.10 216.65 287.90 213.59 286.28 C 210.87 284.70 208.38 282.76 205.60 281.28 C 202.88 279.70 200.38 277.76 197.60 276.29 C 193.84 274.10 190.42 271.35 186.60 269.28 C 184.88 268.28 183.24 267.16 181.57 266.11 C 180.02 266.38 178.35 266.26 176.92 266.96 Z" />
</g>
</svg>
