<?xml version="1.0" encoding="UTF-8" ?>
<!DOCTYPE svg PUBLIC "-//W3C//DTD SVG 1.1//EN" "http://www.w3.org/Graphics/SVG/1.1/DTD/svg11.dtd">
<svg width="961pt" height="961pt" viewBox="0 0 961 961" version="1.1" xmlns="http://www.w3.org/2000/svg">
<g id="#000000ff">
<path fill="#000000" stroke="#000000" stroke-width="0.09375" opacity="1.00" d=" M 472.21 164.33 C 476.10 164.00 480.02 164.33 483.93 164.20 C 495.59 163.81 506.41 169.11 516.33 174.67 C 523.34 179.13 530.96 182.52 538.04 186.88 C 547.41 192.16 556.45 198.02 565.97 203.05 C 573.08 206.73 579.67 211.29 586.61 215.26 C 600.50 222.55 613.47 231.48 627.46 238.59 C 633.72 242.33 639.69 246.58 646.31 249.70 C 656.03 255.15 665.82 260.58 674.86 267.13 C 682.33 272.49 686.96 280.69 691.11 288.68 C 695.45 297.52 692.92 307.59 694.92 316.89 C 694.94 367.93 694.90 418.98 694.96 470.02 C 692.93 481.83 694.73 493.92 693.72 505.83 C 692.71 517.20 685.80 527.08 677.77 534.75 C 667.97 541.42 657.54 547.15 647.55 553.53 C 635.16 560.30 623.13 567.71 610.97 574.87 C 601.69 579.33 593.36 585.47 584.37 590.45 C 578.67 593.78 572.61 596.48 567.13 600.17 C 556.35 607.27 544.61 612.72 533.72 619.63 C 523.73 626.14 512.80 631.02 501.97 635.96 C 495.73 638.88 488.73 638.59 482.12 639.95 C 479.02 640.47 476.08 639.12 473.03 639.03 C 466.75 638.91 460.73 636.71 455.19 633.91 C 446.71 630.39 438.61 626.00 430.99 620.90 C 420.24 613.80 408.82 607.81 397.98 600.85 C 387.74 594.33 376.70 589.14 366.70 582.24 C 357.68 576.92 348.21 572.37 339.40 566.69 C 332.80 562.42 325.66 559.11 318.86 555.20 C 312.38 551.79 306.46 547.42 300.00 543.98 C 288.46 537.66 278.14 528.28 272.78 516.08 C 269.64 509.14 266.84 501.68 267.50 493.93 C 265.53 480.56 267.28 466.98 266.28 453.54 C 265.86 451.04 266.24 448.54 266.44 446.05 C 266.84 415.71 266.25 385.35 266.74 355.00 C 268.44 345.41 266.68 335.61 268.00 325.98 C 268.91 313.27 265.80 299.61 271.87 287.77 C 277.23 276.11 287.49 267.58 298.41 261.30 C 305.92 255.89 314.23 251.79 322.29 247.31 C 330.07 242.28 338.14 237.72 346.20 233.17 C 353.93 229.03 361.12 223.97 368.83 219.81 C 382.44 212.70 395.17 204.07 408.61 196.66 C 418.37 190.26 428.61 184.65 438.58 178.59 C 448.42 171.19 459.89 165.75 472.21 164.33 M 459.45 192.49 C 450.57 198.79 440.74 203.57 431.79 209.75 C 422.89 215.72 413.06 220.13 404.14 226.08 C 399.33 229.33 393.97 231.71 389.48 235.44 C 378.84 240.51 369.45 247.83 358.77 252.84 C 355.18 254.59 352.14 257.31 348.40 258.74 C 341.76 262.23 335.64 266.62 328.98 270.09 C 321.41 273.90 314.56 278.93 307.31 283.28 C 301.93 286.83 295.92 290.40 293.25 296.59 C 291.34 301.13 289.83 305.99 289.97 310.97 C 289.87 320.64 289.89 330.32 289.74 339.99 C 288.81 348.61 289.23 357.30 289.16 365.95 C 289.19 399.65 289.03 433.36 289.11 467.06 C 289.26 477.05 288.39 487.17 290.24 497.05 C 292.17 508.30 300.48 517.26 309.81 523.20 C 315.11 526.19 320.38 529.24 325.64 532.30 C 337.23 539.48 349.56 545.36 360.96 552.86 C 372.30 559.17 383.63 565.49 394.62 572.41 C 403.61 577.25 412.29 582.65 420.99 588.00 C 428.82 592.92 437.11 597.09 444.67 602.44 C 455.78 609.96 468.29 616.56 482.01 616.79 C 493.38 616.49 503.20 610.01 513.08 605.12 C 522.86 599.10 533.02 593.77 542.97 588.05 C 556.66 579.17 571.37 572.01 585.06 563.13 C 592.75 558.80 600.60 554.75 607.99 549.91 C 615.20 545.33 622.80 541.44 630.17 537.16 C 638.91 531.43 647.98 526.22 656.94 520.85 C 663.06 517.60 667.76 512.02 670.65 505.80 C 671.12 491.38 670.87 476.91 670.81 462.48 L 670.41 463.77 C 671.42 453.22 669.89 442.56 671.54 432.06 C 671.63 422.79 671.62 413.51 671.52 404.23 C 671.85 373.83 671.63 343.43 671.70 313.02 C 671.75 306.58 670.62 300.00 667.89 294.15 C 664.80 287.72 658.51 283.92 652.70 280.28 C 646.45 275.95 639.74 272.38 633.02 268.85 C 621.15 262.14 609.63 254.82 597.63 248.33 C 588.14 242.74 578.76 236.98 569.04 231.80 C 556.86 223.78 543.68 217.46 531.37 209.67 C 521.70 203.91 511.59 198.94 501.98 193.07 C 489.46 184.89 472.12 184.38 459.45 192.49 Z" />
</g>
<g id="#3d3d3dff">
<path fill="#3d3d3d" stroke="#3d3d3d" stroke-width="0.09375" opacity="1.00" d=" M 459.45 192.49 C 472.12 184.38 489.46 184.89 501.98 193.07 C 511.59 198.94 521.70 203.91 531.37 209.67 C 543.68 217.46 556.86 223.78 569.04 231.80 C 578.76 236.98 588.14 242.74 597.63 248.33 C 609.63 254.82 621.15 262.14 633.02 268.85 C 639.74 272.38 646.45 275.95 652.70 280.28 C 658.51 283.92 664.80 287.72 667.89 294.15 C 670.62 300.00 671.75 306.58 671.70 313.02 C 671.63 343.43 671.85 373.83 671.52 404.23 C 668.21 401.48 664.48 399.30 660.75 397.19 C 592.67 356.62 524.57 316.08 456.50 275.50 C 439.36 265.28 422.25 255.01 404.96 245.05 C 399.66 242.08 394.18 239.35 389.48 235.44 C 393.97 231.71 399.33 229.33 404.14 226.08 C 413.06 220.13 422.89 215.72 431.79 209.75 C 440.74 203.57 450.57 198.79 459.45 192.49 M 465.26 217.27 C 454.18 223.41 443.52 230.28 432.75 236.94 C 505.19 280.06 577.69 323.09 650.24 366.04 C 650.54 358.36 650.51 350.67 650.50 342.99 C 650.43 334.96 650.85 326.88 649.55 318.92 C 649.00 313.75 647.22 308.49 643.43 304.78 C 638.58 300.05 632.71 296.54 626.87 293.18 C 584.94 269.12 543.34 244.48 501.29 220.61 C 495.87 217.50 490.06 215.00 483.91 213.80 C 477.52 212.69 470.97 214.42 465.26 217.27 Z" />
</g>
<g id="#949493ff">
<path fill="#949493" stroke="#949493" stroke-width="0.09375" opacity="1.00" d=" M 328.98 270.09 C 335.64 266.62 341.76 262.23 348.40 258.74 C 359.89 266.61 371.77 273.91 383.42 281.54 C 478.88 343.16 574.40 404.68 669.81 466.37 C 669.96 465.72 670.26 464.42 670.41 463.77 L 670.81 462.48 C 670.87 476.91 671.12 491.38 670.65 505.80 C 667.76 512.02 663.06 517.60 656.94 520.85 C 647.98 526.22 638.91 531.43 630.17 537.16 C 622.80 541.44 615.20 545.33 607.99 549.91 C 600.60 554.75 592.75 558.80 585.06 563.13 C 571.37 572.01 556.66 579.17 542.97 588.05 C 533.02 593.77 522.86 599.10 513.08 605.12 C 503.20 610.01 493.38 616.49 482.01 616.79 C 468.29 616.56 455.78 609.96 444.67 602.44 C 437.11 597.09 428.82 592.92 420.99 588.00 C 412.29 582.65 403.61 577.25 394.62 572.41 C 383.63 565.49 372.30 559.17 360.96 552.86 C 349.56 545.36 337.23 539.48 325.64 532.30 C 320.38 529.24 315.11 526.19 309.81 523.20 C 300.48 517.26 292.17 508.30 290.24 497.05 C 288.39 487.17 289.26 477.05 289.11 467.06 C 289.03 433.36 289.19 399.65 289.16 365.95 C 289.23 357.30 288.81 348.61 289.74 339.99 C 289.89 330.32 289.87 320.64 289.97 310.97 C 289.83 305.99 291.34 301.13 293.25 296.59 C 295.92 290.40 301.93 286.83 307.31 283.28 C 314.56 278.93 321.41 273.90 328.98 270.09 M 337.98 288.79 C 329.78 294.08 319.77 297.88 314.61 306.69 C 310.57 313.11 310.77 320.85 309.57 328.07 C 309.40 342.04 309.55 356.03 309.50 370.01 C 309.41 376.33 309.81 382.68 309.03 388.98 C 308.95 414.66 309.05 440.34 308.98 466.02 C 308.70 468.48 310.59 470.52 310.25 473.00 C 310.60 475.54 309.52 477.99 309.69 480.50 L 310.91 478.20 C 310.70 485.69 312.18 493.91 317.56 499.50 C 324.28 507.56 334.01 511.91 342.77 517.28 C 365.62 530.32 388.53 543.29 411.04 556.93 C 428.02 566.40 444.14 577.31 461.05 586.88 C 470.63 592.50 482.62 593.95 493.11 590.09 C 500.46 587.05 507.08 582.53 514.20 579.00 C 555.43 555.06 596.79 531.31 637.53 506.52 C 642.37 503.89 645.80 499.51 649.35 495.43 C 653.00 489.08 650.68 481.52 650.53 474.67 C 648.98 473.04 647.18 471.70 645.12 470.81 C 610.98 449.70 577.13 428.11 543.02 406.95 C 478.00 365.93 412.74 325.28 347.83 284.10 C 343.98 284.17 341.15 287.01 337.98 288.79 Z" />
</g>
<g id="#212721ff">
<path fill="#212721" stroke="#212721" stroke-width="0.09375" opacity="1.00" d=" M 511.99 730.09 C 522.29 723.37 535.56 721.28 547.43 724.40 C 552.90 725.78 557.11 729.76 562.04 732.15 C 565.19 731.56 564.70 727.19 565.35 724.78 C 566.10 724.77 567.58 724.76 568.33 724.75 C 567.72 734.82 567.97 744.92 567.86 755.01 C 567.09 755.01 565.56 755.01 564.79 755.01 C 563.87 748.65 563.27 741.81 559.32 736.47 C 555.50 731.67 550.14 727.82 543.98 726.85 C 537.21 725.45 529.63 727.51 525.15 732.93 C 517.11 742.24 515.62 755.15 515.03 766.98 C 515.00 778.07 516.09 789.65 521.39 799.59 C 524.82 806.08 531.23 811.55 538.87 811.62 C 547.46 812.37 555.67 807.41 560.28 800.37 C 563.61 794.68 563.98 787.92 564.81 781.54 C 565.57 781.54 567.10 781.55 567.86 781.56 C 567.98 792.04 567.71 802.53 568.33 813.01 C 567.58 813.00 566.08 812.99 565.33 812.99 C 564.79 810.57 565.19 807.34 562.93 805.77 C 559.81 805.92 557.61 808.58 554.96 809.92 C 545.77 815.73 534.23 815.77 523.95 813.40 C 514.53 811.22 505.74 805.70 500.37 797.57 C 493.35 787.23 491.75 774.10 493.20 761.93 C 494.65 749.34 501.23 737.07 511.99 730.09 Z" />
<path fill="#212721" stroke="#212721" stroke-width="0.09375" opacity="1.00" d=" M 143.69 724.79 C 164.97 725.27 186.28 725.22 207.57 724.78 C 207.43 726.34 207.19 727.95 206.36 729.34 C 192.25 756.23 178.19 783.14 164.11 810.04 C 172.74 809.69 182.04 811.45 189.98 807.09 C 198.75 802.46 202.98 792.48 203.85 783.02 C 204.61 783.02 206.14 783.02 206.90 783.02 C 206.09 793.00 206.38 803.06 207.37 813.01 C 185.75 812.61 164.13 812.72 142.51 812.99 C 142.72 811.49 142.89 809.96 143.67 808.65 C 157.83 781.72 171.96 754.78 186.09 727.84 C 176.63 728.29 166.06 726.03 157.72 731.77 C 150.54 736.43 148.27 745.38 147.22 753.37 C 146.46 753.36 144.96 753.35 144.21 753.34 C 145.01 743.83 144.43 734.28 143.69 724.79 Z" />
<path fill="#212721" stroke="#212721" stroke-width="0.09375" opacity="1.00" d=" M 681.23 736.29 C 689.46 734.85 698.40 734.97 705.90 739.05 C 708.15 740.02 710.19 741.96 712.78 741.79 C 714.88 739.93 713.51 735.07 717.67 736.19 C 717.30 744.92 717.12 753.67 717.09 762.41 C 716.37 762.41 714.93 762.41 714.20 762.41 C 713.24 755.92 711.28 749.24 706.60 744.42 C 701.24 738.66 692.43 737.10 685.09 739.37 C 681.34 740.51 677.89 743.78 677.93 747.92 C 677.67 752.48 681.07 756.08 684.43 758.67 C 692.82 764.76 702.34 769.11 710.67 775.29 C 716.48 779.70 721.59 786.30 721.09 793.99 C 721.35 801.03 716.75 807.47 710.60 810.56 C 702.73 814.56 693.55 815.42 684.87 814.52 C 678.45 813.91 672.90 810.39 666.91 808.38 C 664.36 808.84 664.70 812.05 663.99 813.94 C 663.26 813.95 661.81 813.95 661.08 813.95 C 661.76 803.82 661.47 793.66 661.56 783.51 C 662.55 783.50 663.56 783.49 664.57 783.49 C 665.20 791.06 667.00 798.98 672.18 804.82 C 677.50 810.96 686.46 812.89 694.19 811.23 C 698.96 810.22 703.28 806.09 703.12 800.97 C 703.48 796.41 700.41 792.55 696.99 789.93 C 686.97 782.23 674.19 778.00 666.15 767.86 C 660.97 761.80 660.09 752.27 664.70 745.65 C 668.47 740.23 674.92 737.45 681.23 736.29 Z" />
<path fill="#212721" stroke="#212721" stroke-width="0.09375" opacity="1.00" d=" M 217.57 737.25 C 238.73 737.63 259.92 737.84 281.07 737.22 C 280.36 744.80 280.11 752.42 280.53 760.03 C 279.80 760.00 278.34 759.95 277.60 759.92 C 276.41 753.70 274.53 746.83 269.05 743.02 C 263.55 739.48 256.66 740.17 250.45 740.52 C 247.47 740.60 246.22 743.65 246.26 746.23 C 246.00 755.33 246.24 764.44 246.15 773.54 C 250.33 773.44 255.08 774.32 258.64 771.55 C 261.99 768.68 263.40 764.28 264.49 760.15 C 265.24 760.14 266.72 760.11 267.46 760.09 C 266.54 769.98 267.09 779.91 267.79 789.79 C 267.08 789.72 265.66 789.60 264.95 789.54 C 263.82 785.60 262.77 781.28 259.42 778.58 C 255.71 775.50 250.61 776.41 246.16 776.27 C 246.24 785.67 245.97 795.07 246.30 804.46 C 246.19 807.16 247.98 809.90 250.90 809.88 C 257.78 810.12 265.59 810.98 271.43 806.52 C 277.10 801.98 278.87 794.52 280.18 787.74 C 280.89 787.73 282.32 787.73 283.03 787.73 C 282.61 796.15 282.82 804.60 283.57 813.00 C 261.53 812.47 239.48 812.95 217.43 812.88 C 217.48 812.30 217.57 811.15 217.61 810.58 C 220.35 810.01 223.97 810.42 225.72 807.77 C 227.03 805.06 226.85 801.94 226.99 799.01 C 226.96 782.67 227.02 766.33 226.96 749.99 C 226.74 747.26 226.98 744.14 225.16 741.88 C 223.15 739.95 220.11 740.21 217.56 739.78 C 217.56 739.14 217.57 737.88 217.57 737.25 Z" />
<path fill="#212721" stroke="#212721" stroke-width="0.09375" opacity="1.00" d=" M 294.20 737.28 C 302.90 737.73 311.64 737.69 320.34 737.22 C 333.60 753.59 346.75 770.04 359.99 786.42 C 360.02 775.95 359.98 765.49 360.01 755.02 C 359.88 751.28 360.07 747.17 357.95 743.90 C 355.43 740.58 350.89 740.60 347.19 739.73 C 347.12 739.11 346.99 737.89 346.92 737.28 C 355.44 737.65 363.99 737.72 372.51 737.29 C 373.28 740.74 369.27 740.04 367.23 741.21 C 363.48 742.82 363.19 747.46 363.01 750.98 C 362.92 771.75 363.01 792.53 362.97 813.31 C 360.74 813.30 358.51 813.30 356.28 813.32 C 339.68 792.75 323.14 772.12 306.51 751.57 C 306.50 766.70 306.49 781.84 306.51 796.98 C 306.73 800.41 306.59 804.36 309.07 807.08 C 311.73 809.82 315.82 809.68 319.27 810.61 C 319.34 811.21 319.48 812.41 319.54 813.01 C 311.07 812.74 302.59 812.63 294.12 812.98 C 294.15 812.36 294.23 811.14 294.26 810.52 C 296.99 809.86 300.32 809.51 301.92 806.86 C 303.42 804.20 303.42 801.00 303.53 798.03 C 303.52 781.67 303.53 765.31 303.53 748.96 C 303.42 746.63 303.36 744.09 301.99 742.13 C 300.05 739.91 296.80 740.23 294.16 739.77 C 294.17 739.15 294.19 737.90 294.20 737.28 Z" />
<path fill="#212721" stroke="#212721" stroke-width="0.09375" opacity="1.00" d=" M 379.87 737.20 C 391.56 737.74 403.26 737.46 414.96 737.56 C 427.92 737.47 440.90 737.76 453.86 737.21 C 452.99 746.55 452.54 755.97 453.37 765.34 C 452.61 765.33 451.10 765.31 450.34 765.30 C 448.80 758.10 447.47 750.25 442.35 744.62 C 438.32 740.24 431.97 740.11 426.45 740.27 C 426.46 760.19 426.45 780.12 426.46 800.04 C 426.57 803.03 426.70 806.69 429.40 808.59 C 432.26 810.31 435.76 810.10 438.97 810.54 C 438.98 811.16 439.00 812.38 439.01 813.00 C 424.21 812.68 409.41 812.63 394.62 813.01 C 394.61 812.40 394.60 811.17 394.60 810.56 C 397.88 810.07 401.55 810.38 404.42 808.46 C 407.29 806.24 407.04 802.22 407.20 798.98 C 407.21 779.41 407.21 759.83 407.20 740.26 C 401.98 740.17 396.07 740.15 392.00 743.96 C 386.18 749.47 385.16 757.85 383.23 765.22 C 382.54 765.28 381.17 765.41 380.48 765.47 C 380.82 756.04 380.77 746.60 379.87 737.20 Z" />
<path fill="#212721" stroke="#212721" stroke-width="0.09375" opacity="1.00" d=" M 611.84 737.03 C 613.78 737.06 615.74 737.07 617.70 737.08 C 627.55 758.97 637.45 780.84 647.36 802.70 C 648.85 806.22 651.31 809.32 654.91 810.83 C 654.99 811.37 655.14 812.46 655.22 813.01 C 643.09 812.60 630.96 812.74 618.83 812.99 C 618.20 809.08 622.95 810.65 625.06 809.19 C 627.56 807.87 627.29 804.66 626.39 802.43 C 624.21 796.86 621.62 791.46 619.28 785.97 C 610.58 785.99 601.88 785.96 593.18 785.98 C 590.74 791.85 587.45 798.00 588.52 804.56 C 589.55 809.26 595.04 809.96 598.98 810.53 C 599.01 811.15 599.08 812.39 599.11 813.01 C 590.87 812.86 582.62 812.53 574.38 813.01 C 574.45 812.45 574.61 811.32 574.68 810.76 C 581.25 807.87 583.85 800.72 586.62 794.66 C 595.03 775.45 603.36 756.20 611.84 737.03 M 594.37 783.31 C 602.28 783.32 610.20 783.32 618.11 783.31 C 614.20 774.34 610.24 765.40 606.34 756.44 C 602.15 765.30 598.38 774.36 594.37 783.31 Z" />
<path fill="#212721" stroke="#212721" stroke-width="0.09375" opacity="1.00" d=" M 731.12 737.23 C 743.71 737.74 756.35 737.73 768.94 737.22 C 768.96 737.86 768.99 739.14 769.01 739.78 C 765.81 740.15 761.04 740.07 760.22 744.09 C 759.04 753.68 759.93 763.41 759.66 773.06 C 770.27 773.06 780.89 773.07 791.50 773.06 C 791.46 764.73 791.60 756.40 791.44 748.08 C 791.19 745.66 791.16 742.58 788.82 741.17 C 786.74 740.04 784.28 740.12 782.02 739.76 C 782.04 739.12 782.09 737.85 782.12 737.21 C 794.73 737.74 807.38 737.73 819.99 737.24 C 820.00 737.88 820.00 739.16 820.00 739.81 C 817.53 740.18 814.70 739.98 812.65 741.64 C 810.49 743.82 810.88 747.18 810.67 749.99 C 810.66 766.98 810.62 783.97 810.69 800.96 C 810.89 803.68 810.61 807.11 813.05 808.97 C 815.09 810.23 817.61 810.13 819.92 810.53 C 819.95 811.15 820.00 812.39 820.03 813.01 C 807.36 812.61 794.69 812.74 782.02 812.97 C 782.04 812.37 782.09 811.17 782.11 810.56 C 784.93 809.99 788.79 810.43 790.39 807.49 C 791.54 804.83 791.47 801.84 791.52 799.00 C 791.47 791.26 791.54 783.52 791.48 775.78 C 780.87 775.80 770.27 775.77 759.66 775.79 C 759.70 784.49 759.56 793.20 759.72 801.90 C 759.83 804.69 760.03 808.60 763.27 809.57 C 765.40 810.61 769.97 809.23 769.11 813.00 C 756.41 812.69 743.70 812.67 731.00 812.98 C 731.04 812.37 731.13 811.15 731.17 810.53 C 733.96 809.99 737.83 810.43 739.38 807.47 C 740.46 804.80 740.38 801.84 740.49 799.02 C 740.46 782.70 740.52 766.38 740.46 750.06 C 740.26 747.42 740.44 744.52 738.94 742.23 C 737.04 739.88 733.68 740.25 731.01 739.76 C 731.04 739.12 731.10 737.86 731.12 737.23 Z" />
</g>
</svg>
