<?xml version="1.0" encoding="UTF-8" ?>
<!DOCTYPE svg PUBLIC "-//W3C//DTD SVG 1.1//EN" "http://www.w3.org/Graphics/SVG/1.1/DTD/svg11.dtd">
<svg width="961pt" height="961pt" viewBox="0 0 961 961" version="1.1" xmlns="http://www.w3.org/2000/svg">
<g id="#ffffffff">
<path fill="#ffffff" stroke="#ffffff" stroke-width="0.09375" opacity="1.00" d=" M 469.67 166.76 C 476.38 165.63 483.27 165.69 490.04 166.20 C 502.26 167.66 513.16 173.95 523.46 180.29 C 538.00 187.53 551.47 196.67 565.82 204.26 C 573.02 208.30 580.02 212.68 587.08 216.95 C 600.59 223.89 613.03 232.70 626.61 239.49 C 640.82 248.81 656.37 255.88 670.40 265.49 C 673.91 267.95 677.57 270.34 680.39 273.62 C 684.04 277.82 686.73 282.73 689.45 287.56 C 694.39 297.25 693.53 308.44 693.93 318.97 C 694.03 370.31 694.35 421.65 693.83 472.99 C 692.42 486.25 695.65 500.03 691.12 512.90 C 689.00 519.74 684.38 525.38 679.84 530.77 C 677.06 534.14 673.06 536.05 669.42 538.31 C 660.69 543.56 652.03 548.93 643.31 554.20 C 634.35 558.85 625.79 564.24 617.13 569.41 C 610.28 573.54 603.02 576.96 596.35 581.39 C 586.82 587.77 576.34 592.53 566.63 598.60 C 555.68 605.94 543.53 611.26 532.54 618.54 C 523.49 624.24 513.84 628.93 503.97 633.04 C 494.64 637.43 483.98 637.75 473.88 636.90 C 464.91 636.18 456.98 631.62 448.97 627.96 C 439.24 623.47 430.69 616.93 421.45 611.57 C 415.86 608.13 409.96 605.24 404.51 601.58 C 395.15 595.45 385.27 590.16 375.56 584.62 C 364.51 576.92 352.00 571.63 340.85 564.10 C 334.81 560.33 328.27 557.48 322.16 553.83 C 315.57 550.16 309.26 546.00 302.71 542.25 C 290.25 535.51 279.47 524.88 274.41 511.47 C 270.68 503.18 270.19 494.01 270.03 485.07 C 269.19 465.41 269.57 445.72 269.59 426.05 C 270.76 401.04 269.63 375.99 270.26 350.97 C 271.28 334.15 269.93 317.25 271.72 300.48 C 272.60 289.61 279.00 280.00 286.87 272.81 C 292.65 267.39 299.63 263.56 306.17 259.17 C 313.93 254.06 322.56 250.43 330.28 245.26 C 338.87 239.66 348.13 235.19 356.87 229.84 C 368.81 221.85 382.09 216.08 393.90 207.88 C 403.90 202.32 413.76 196.50 423.37 190.29 C 429.65 186.55 436.24 183.30 442.20 179.04 C 450.42 173.20 459.71 168.65 469.67 166.76 M 460.01 194.11 C 451.54 200.15 442.05 204.57 433.56 210.58 C 423.32 217.14 412.27 222.35 402.24 229.24 C 398.47 231.45 394.68 233.62 391.09 236.11 C 384.94 239.09 379.08 242.63 373.37 246.37 C 366.10 250.63 358.60 254.49 351.44 258.94 C 345.78 261.53 340.86 265.44 335.38 268.35 C 329.57 271.43 323.82 274.63 318.38 278.34 C 312.01 282.62 304.97 286.05 299.42 291.44 C 295.15 296.26 292.97 302.71 292.81 309.10 C 292.32 321.36 292.84 333.66 292.14 345.92 C 291.82 366.96 292.13 388.00 292.00 409.04 C 291.03 431.68 291.65 454.35 291.49 477.01 C 291.71 485.78 291.62 494.86 294.80 503.17 C 299.69 514.14 309.90 521.49 320.35 526.70 C 331.64 533.48 343.10 539.99 354.63 546.35 C 367.24 554.68 381.11 560.90 393.61 569.43 C 406.29 576.12 418.25 584.05 430.65 591.23 C 439.89 596.16 448.21 602.62 457.39 607.65 C 467.01 612.82 478.21 616.28 489.18 614.26 C 496.09 613.16 502.18 609.50 508.39 606.50 C 512.78 604.37 516.89 601.77 521.01 599.18 C 529.56 594.31 538.28 589.75 546.73 584.72 C 557.43 577.54 569.18 572.11 580.00 565.12 C 588.60 559.48 598.03 555.23 606.64 549.60 C 614.98 544.16 623.98 539.84 632.39 534.53 C 639.28 529.94 646.59 526.04 653.64 521.72 C 657.90 519.06 662.75 516.86 665.63 512.54 C 668.06 509.08 671.23 505.50 671.01 500.98 C 670.85 487.96 671.28 474.92 670.76 461.91 C 671.02 442.75 671.71 423.58 671.43 404.41 C 671.77 376.94 671.33 349.45 671.58 321.97 C 671.45 312.48 672.38 302.22 667.46 293.66 C 662.96 285.97 654.59 282.19 647.53 277.34 C 643.06 274.28 638.07 272.13 633.37 269.49 C 623.13 263.83 613.39 257.31 603.05 251.85 C 593.21 246.51 583.96 240.15 574.01 235.01 C 565.42 230.35 557.41 224.70 548.73 220.20 C 539.84 215.62 531.64 209.88 522.82 205.20 C 515.94 201.42 508.95 197.83 502.30 193.64 C 489.67 185.77 472.38 185.64 460.01 194.11 Z" />
</g>
<g id="#3d3d3dff">
<path fill="#3d3d3d" stroke="#3d3d3d" stroke-width="0.09375" opacity="1.00" d=" M 460.01 194.11 C 472.38 185.64 489.67 185.77 502.30 193.64 C 508.95 197.83 515.94 201.42 522.82 205.20 C 531.64 209.88 539.84 215.62 548.73 220.20 C 557.41 224.70 565.42 230.35 574.01 235.01 C 583.96 240.15 593.21 246.51 603.05 251.85 C 613.39 257.31 623.13 263.83 633.37 269.49 C 638.07 272.13 643.06 274.28 647.53 277.34 C 654.59 282.19 662.96 285.97 667.46 293.66 C 672.38 302.22 671.45 312.48 671.58 321.97 C 671.33 349.45 671.77 376.94 671.43 404.41 C 670.64 403.54 669.82 402.72 668.97 401.95 C 595.65 358.34 522.38 314.58 449.07 270.92 C 433.53 261.75 418.17 252.29 402.41 243.49 C 398.52 241.22 394.45 239.16 391.09 236.11 C 394.68 233.62 398.47 231.45 402.24 229.24 C 412.27 222.35 423.32 217.14 433.56 210.58 C 442.05 204.57 451.54 200.15 460.01 194.11 M 456.35 224.34 C 449.05 228.82 441.67 233.20 434.49 237.88 C 473.19 261.09 512.02 284.08 550.81 307.13 C 583.91 326.70 616.81 346.59 650.06 365.91 C 650.08 352.27 650.20 338.63 650.06 325.00 C 649.90 318.54 648.85 311.59 644.54 306.50 C 640.60 301.93 635.39 298.73 630.29 295.64 C 587.75 271.27 545.59 246.26 502.98 222.02 C 495.63 218.06 487.69 213.99 479.07 214.85 C 470.51 215.00 463.46 220.24 456.35 224.34 Z" />
</g>
<g id="#979797ff">
<path fill="#979797" stroke="#979797" stroke-width="0.09375" opacity="1.00" d=" M 335.38 268.35 C 340.86 265.44 345.78 261.53 351.44 258.94 C 386.81 281.50 421.99 304.12 457.43 326.52 C 519.85 366.11 582.16 405.89 644.56 445.52 C 653.33 450.91 662.34 455.95 670.76 461.91 C 671.28 474.92 670.85 487.96 671.01 500.98 C 671.23 505.50 668.06 509.08 665.63 512.54 C 662.75 516.86 657.90 519.06 653.64 521.72 C 646.59 526.04 639.28 529.94 632.39 534.53 C 623.98 539.84 614.98 544.16 606.64 549.60 C 598.03 555.23 588.60 559.48 580.00 565.12 C 569.18 572.11 557.43 577.54 546.73 584.72 C 538.28 589.75 529.56 594.31 521.01 599.18 C 516.89 601.77 512.78 604.37 508.39 606.50 C 502.18 609.50 496.09 613.16 489.18 614.26 C 478.21 616.28 467.01 612.82 457.39 607.65 C 448.21 602.62 439.89 596.16 430.65 591.23 C 418.25 584.05 406.29 576.12 393.61 569.43 C 381.11 560.90 367.24 554.68 354.63 546.35 C 343.10 539.99 331.64 533.48 320.35 526.70 C 309.90 521.49 299.69 514.14 294.80 503.17 C 291.62 494.86 291.71 485.78 291.49 477.01 C 291.65 454.35 291.03 431.68 292.00 409.04 C 292.13 388.00 291.82 366.96 292.14 345.92 C 292.84 333.66 292.32 321.36 292.81 309.10 C 292.97 302.71 295.15 296.26 299.42 291.44 C 304.97 286.05 312.01 282.62 318.38 278.34 C 323.82 274.63 329.57 271.43 335.38 268.35 M 346.44 285.51 C 339.12 290.14 331.63 294.51 324.43 299.33 C 319.43 303.05 315.08 308.55 314.45 314.93 C 313.86 336.61 313.41 358.29 313.45 379.98 C 313.39 391.33 313.70 402.68 313.05 414.02 C 312.79 430.69 312.89 447.36 312.89 464.03 C 313.00 472.87 312.96 481.88 315.38 490.45 C 318.66 499.49 326.73 505.57 334.76 510.22 C 360.47 525.21 386.55 539.58 411.97 555.06 C 427.80 564.02 443.10 573.87 458.65 583.30 C 466.40 587.57 474.98 591.56 484.08 590.71 C 493.48 590.22 501.60 584.95 509.57 580.47 C 520.85 574.62 531.48 567.62 542.67 561.61 C 552.93 555.54 563.13 549.35 573.60 543.66 C 588.36 534.66 603.45 526.21 618.19 517.18 C 626.45 512.18 634.99 507.58 642.79 501.89 C 646.28 498.10 649.91 493.49 649.56 488.03 C 649.42 483.00 649.94 477.83 649.24 472.88 C 550.46 410.87 451.46 349.17 352.64 287.20 C 350.76 286.22 348.61 283.80 346.44 285.51 Z" />
</g>
<g id="#fcfcfcff">
<path fill="#fcfcfc" stroke="#fcfcfc" stroke-width="0.09375" opacity="1.00" d=" M 510.18 731.20 C 517.81 725.43 527.50 722.62 537.03 722.98 C 544.77 722.49 552.43 725.37 558.57 729.97 C 559.89 730.74 561.05 732.28 562.76 732.03 C 564.75 730.10 564.99 727.09 565.10 724.49 C 565.96 724.49 567.68 724.50 568.53 724.50 C 567.75 734.66 568.04 744.86 568.00 755.05 C 566.83 754.99 565.67 754.94 564.52 754.89 C 563.90 749.09 563.14 742.97 560.11 737.88 C 556.51 732.97 551.57 728.67 545.49 727.35 C 538.59 725.31 530.37 727.14 525.59 732.69 C 519.19 739.75 516.90 749.37 515.78 758.57 C 514.58 770.70 515.11 783.28 519.35 794.85 C 521.97 801.46 526.49 808.00 533.48 810.44 C 545.43 814.67 559.82 806.35 562.63 794.12 C 563.63 789.98 564.28 785.74 564.60 781.50 C 565.45 781.50 567.15 781.50 568.00 781.50 C 568.06 792.00 567.72 802.52 568.53 813.00 C 567.67 813.00 565.96 813.00 565.10 813.00 C 565.08 810.62 564.39 808.33 563.57 806.13 C 562.99 806.12 561.82 806.11 561.24 806.10 C 557.04 808.62 553.18 811.88 548.35 813.17 C 541.68 815.62 534.48 815.19 527.56 814.41 C 518.45 812.73 509.46 808.74 503.32 801.61 C 493.79 790.97 491.25 775.61 493.08 761.82 C 494.37 749.90 500.36 738.27 510.18 731.20 Z" />
<path fill="#fcfcfc" stroke="#fcfcfc" stroke-width="0.09375" opacity="1.00" d=" M 143.40 724.42 C 148.91 725.05 154.44 725.08 159.98 725.00 C 175.84 724.77 191.75 725.54 207.58 724.45 C 208.01 727.56 206.21 730.18 204.77 732.75 C 191.21 758.48 177.92 784.35 164.22 810.00 C 172.62 809.70 181.62 811.25 189.39 807.17 C 198.31 802.75 202.93 792.63 203.54 783.08 C 204.71 783.03 205.89 782.99 207.07 782.96 C 206.02 792.96 206.51 803.03 207.58 813.00 C 185.85 813.00 164.13 813.01 142.40 812.99 C 142.12 810.02 143.99 807.62 145.34 805.18 C 158.73 779.41 172.39 753.79 185.74 728.00 C 176.82 728.48 167.07 726.27 159.02 731.23 C 150.95 735.49 148.47 745.14 147.37 753.50 C 146.50 753.50 144.76 753.50 143.89 753.50 C 145.23 743.84 144.26 734.06 143.40 724.42 Z" />
<path fill="#fcfcfc" stroke="#fcfcfc" stroke-width="0.09375" opacity="1.00" d=" M 670.86 739.84 C 678.74 735.15 688.39 734.90 697.27 735.87 C 702.83 736.50 707.29 740.15 712.48 741.88 C 713.91 740.23 714.34 738.10 714.63 736.00 C 715.77 735.99 716.92 735.99 718.08 736.00 C 716.87 744.76 717.78 753.65 717.50 762.48 C 716.66 762.50 714.97 762.54 714.13 762.56 C 713.01 754.38 709.69 745.90 702.48 741.27 C 696.49 737.95 688.67 737.30 682.58 740.73 C 679.41 742.36 677.53 746.11 678.10 749.61 C 678.67 753.39 681.60 756.19 684.44 758.48 C 693.49 764.95 703.73 769.59 712.50 776.48 C 719.10 781.89 723.42 791.05 720.45 799.52 C 717.76 808.62 708.06 812.93 699.43 814.41 C 693.83 815.04 688.11 815.49 682.55 814.29 C 676.99 813.43 672.18 810.23 666.88 808.61 C 664.49 809.12 664.78 812.09 664.37 813.97 C 663.24 813.97 662.12 813.99 661.00 814.01 C 661.38 803.85 661.66 793.68 661.50 783.50 C 662.36 783.50 664.08 783.50 664.94 783.50 C 665.10 791.96 667.82 800.90 674.34 806.65 C 679.62 811.20 687.11 812.36 693.82 811.17 C 697.50 810.32 700.98 807.92 702.33 804.29 C 704.25 799.80 702.14 794.54 698.53 791.56 C 689.48 783.57 677.41 779.78 668.83 771.16 C 665.43 767.92 662.66 763.80 661.82 759.12 C 660.25 751.66 664.09 743.39 670.86 739.84 Z" />
<path fill="#fcfcfc" stroke="#fcfcfc" stroke-width="0.09375" opacity="1.00" d=" M 217.50 737.00 C 219.88 736.99 222.26 736.99 224.64 736.99 L 225.46 737.53 C 243.97 737.16 262.54 738.16 281.02 736.93 C 280.80 744.65 280.02 752.38 280.72 760.10 C 279.62 759.77 277.42 760.54 277.23 758.90 C 276.02 752.78 273.85 745.95 268.12 742.64 C 263.21 739.73 257.34 740.59 251.91 740.50 C 249.34 740.23 246.66 741.94 246.56 744.68 C 246.41 754.28 246.55 763.89 246.50 773.49 C 250.29 773.42 254.51 774.11 257.82 771.77 C 261.46 768.98 263.61 764.49 264.16 760.00 C 265.00 760.00 266.68 760.00 267.51 760.00 C 267.77 765.85 266.11 771.78 267.43 777.58 C 267.54 781.72 267.34 785.89 268.11 790.00 C 266.95 789.99 265.78 789.98 264.63 789.99 C 263.86 785.29 262.12 779.94 257.62 777.57 C 254.17 775.82 250.20 776.68 246.50 776.51 C 246.50 785.67 246.51 794.83 246.49 804.00 C 246.32 805.65 246.90 807.23 247.81 808.61 C 250.86 810.54 254.62 809.90 258.04 810.02 C 263.34 810.00 269.20 808.96 272.93 804.85 C 277.43 800.18 278.76 793.57 280.17 787.48 C 280.95 787.46 282.51 787.41 283.29 787.39 C 282.48 795.91 283.25 804.47 283.51 813.00 C 261.48 812.99 239.44 813.02 217.40 812.98 C 216.54 809.96 219.51 809.89 221.64 809.94 C 223.05 809.30 224.78 809.00 225.67 807.60 C 226.90 805.46 226.37 802.92 226.59 800.58 C 227.46 796.79 226.80 792.85 226.99 789.00 C 226.75 774.41 227.57 759.79 226.39 745.25 C 226.10 740.81 221.02 739.94 217.48 739.87 C 217.49 739.15 217.50 737.72 217.50 737.00 Z" />
<path fill="#fcfcfc" stroke="#fcfcfc" stroke-width="0.09375" opacity="1.00" d=" M 294.00 736.91 C 300.63 738.00 307.38 737.33 314.06 737.48 C 316.54 737.68 320.03 735.61 321.59 738.44 C 334.38 754.40 347.34 770.24 360.00 786.31 C 359.98 775.51 360.05 764.71 359.96 753.92 C 359.37 750.27 359.94 745.83 356.93 743.12 C 354.28 740.61 350.37 740.58 347.00 739.89 C 347.00 739.14 347.00 737.64 347.00 736.89 C 355.43 737.81 364.05 737.88 372.47 736.90 C 372.49 737.63 372.53 739.09 372.55 739.81 C 369.97 740.60 366.84 740.78 365.09 743.13 C 363.14 745.61 363.48 748.98 363.04 751.94 C 362.95 772.45 363.03 792.98 363.00 813.49 C 360.74 813.49 358.49 813.49 356.24 813.55 C 339.50 793.03 323.20 772.14 306.24 751.80 C 306.89 766.81 306.24 781.87 306.56 796.89 C 306.83 799.91 307.10 802.95 308.05 805.86 C 310.80 809.07 315.17 810.06 319.23 810.09 C 319.32 810.81 319.50 812.27 319.59 812.99 C 311.04 813.01 302.50 812.99 293.96 813.00 C 293.99 812.32 294.07 810.95 294.11 810.27 C 297.31 809.84 301.31 808.95 302.49 805.49 C 303.38 801.74 303.58 797.85 303.51 794.01 C 303.49 779.33 303.50 764.64 303.51 749.96 C 303.48 747.19 303.02 744.40 301.88 741.87 C 299.44 740.60 296.74 740.00 294.00 739.90 C 294.00 739.15 294.00 737.66 294.00 736.91 Z" />
<path fill="#fcfcfc" stroke="#fcfcfc" stroke-width="0.09375" opacity="1.00" d=" M 379.48 736.99 C 398.29 737.91 417.17 737.35 436.02 737.50 C 442.07 737.87 448.05 736.82 454.09 737.00 C 453.18 746.46 452.37 756.01 453.60 765.49 C 452.74 765.49 451.02 765.51 450.16 765.51 C 448.55 757.69 447.18 748.73 440.59 743.40 C 436.69 740.07 431.29 740.40 426.50 740.51 C 426.53 760.66 426.44 780.81 426.54 800.96 C 426.91 803.53 427.00 806.82 429.52 808.33 C 432.17 810.42 435.71 809.91 438.85 810.12 C 438.90 810.84 439.00 812.28 439.05 813.00 C 424.17 812.99 409.29 813.01 394.41 812.99 C 394.51 812.25 394.69 810.76 394.78 810.02 C 398.24 810.10 402.04 810.13 404.94 807.92 C 406.36 805.96 407.00 803.48 407.00 801.08 C 407.00 780.89 407.00 760.70 407.00 740.50 C 401.45 740.16 395.07 740.62 391.14 745.09 C 386.28 750.77 385.06 758.43 383.36 765.47 C 382.35 765.53 381.36 765.61 380.37 765.72 C 380.54 756.14 380.93 746.49 379.48 736.99 Z" />
<path fill="#fcfcfc" stroke="#fcfcfc" stroke-width="0.09375" opacity="1.00" d=" M 589.54 787.47 C 597.00 770.65 604.13 753.69 611.79 736.96 C 613.78 736.99 615.78 736.99 617.79 737.00 C 627.66 758.56 637.33 780.22 647.14 801.81 C 648.78 805.36 650.89 809.45 655.09 810.34 C 655.23 811.00 655.52 812.31 655.66 812.97 C 643.43 813.03 631.19 812.98 618.95 813.00 C 619.00 812.30 619.08 810.90 619.13 810.19 C 622.21 810.20 627.59 809.40 626.92 805.19 C 625.20 798.48 621.63 792.39 619.03 785.99 C 610.43 786.01 601.82 785.99 593.22 786.00 C 591.03 791.98 587.65 797.96 588.56 804.57 C 589.80 809.09 595.19 810.04 599.23 810.08 C 599.32 810.81 599.50 812.27 599.59 812.99 C 591.23 813.01 582.87 812.99 574.51 813.00 C 574.50 812.33 574.48 810.98 574.47 810.30 C 576.26 809.65 578.16 808.94 579.35 807.36 C 584.14 801.53 586.51 794.26 589.54 787.47 M 594.78 782.99 C 602.43 783.03 610.09 782.95 617.74 783.03 C 614.20 774.26 609.99 765.78 606.51 757.00 C 602.06 765.37 598.64 774.32 594.78 782.99 Z" />
<path fill="#fcfcfc" stroke="#fcfcfc" stroke-width="0.09375" opacity="1.00" d=" M 731.00 736.92 C 732.54 736.92 734.08 737.09 735.61 737.42 C 746.73 737.41 757.90 737.93 769.00 736.93 C 769.00 737.67 769.00 739.15 769.00 739.89 C 765.56 740.13 760.53 740.53 760.13 744.92 C 759.82 754.27 760.09 763.64 760.00 773.00 C 770.50 773.00 781.00 773.00 791.50 773.00 C 791.49 765.66 791.51 758.33 791.50 751.00 C 791.29 747.91 791.23 744.70 789.88 741.87 C 787.43 740.61 784.73 739.99 782.00 739.90 C 782.00 739.16 782.00 737.67 782.00 736.93 C 794.62 737.75 807.38 737.91 820.00 736.91 C 820.00 737.65 820.00 739.15 820.00 739.89 C 817.38 740.49 813.92 739.93 812.25 742.51 C 810.58 745.04 811.02 748.15 810.99 751.02 C 811.01 768.38 811.00 785.73 811.00 803.09 C 810.97 805.12 811.39 807.49 813.12 808.81 C 815.10 810.14 817.58 809.96 819.86 810.17 C 819.91 810.88 820.00 812.29 820.05 813.00 C 807.32 812.99 794.59 813.01 781.86 812.99 C 781.21 808.90 785.87 810.50 788.12 809.22 C 791.42 807.85 790.99 803.82 791.44 800.92 C 791.59 792.61 791.45 784.30 791.50 776.00 C 781.00 776.00 770.50 776.00 760.00 776.00 C 760.00 785.01 760.00 794.02 759.99 803.03 C 759.96 805.08 760.38 807.46 762.11 808.80 C 764.09 810.13 766.56 809.96 768.85 810.16 C 768.90 810.87 769.00 812.29 769.06 813.00 C 756.32 812.99 743.58 813.01 730.85 812.99 C 730.94 811.75 731.08 809.71 732.90 810.05 C 735.77 810.10 739.49 808.91 739.88 805.59 C 741.01 793.09 740.29 780.53 740.49 768.00 C 740.46 759.98 740.78 751.93 739.66 743.98 C 738.45 740.38 734.18 740.14 731.00 739.90 C 731.00 739.15 731.00 737.66 731.00 736.92 Z" />
</g>
</svg>
