<?xml version="1.0" encoding="UTF-8" ?>
<!DOCTYPE svg PUBLIC "-//W3C//DTD SVG 1.1//EN" "http://www.w3.org/Graphics/SVG/1.1/DTD/svg11.dtd">
<svg width="961pt" height="961pt" viewBox="0 0 961 961" version="1.1" xmlns="http://www.w3.org/2000/svg">
<g id="#fefefeff">
<path fill="#fefefe" stroke="#fefefe" stroke-width="0.09375" opacity="1.00" d=" M 470.44 166.72 C 478.03 165.67 485.82 165.55 493.40 166.78 C 502.08 168.61 510.22 172.44 517.79 176.99 C 523.81 180.91 530.39 183.81 536.55 187.49 C 545.51 192.40 553.98 198.15 563.06 202.84 C 571.39 207.37 579.40 212.45 587.54 217.31 C 600.04 223.65 611.47 231.86 623.98 238.16 C 628.71 240.57 633.01 243.71 637.58 246.40 C 650.50 253.58 663.68 260.43 675.56 269.29 C 681.66 273.72 685.32 280.50 688.99 286.90 C 692.54 293.32 693.35 300.80 693.58 308.01 C 694.31 332.33 693.81 356.66 694.04 380.99 C 694.11 411.68 694.12 442.37 693.72 473.06 C 692.43 486.35 695.57 500.17 690.96 513.04 C 688.92 519.61 684.50 525.04 680.18 530.26 C 676.85 534.43 671.83 536.57 667.45 539.40 C 656.76 545.72 646.41 552.64 635.39 558.40 C 623.69 565.39 611.99 572.39 600.04 578.96 C 589.50 586.11 578.00 591.62 567.12 598.19 C 559.22 603.51 550.68 607.76 542.42 612.48 C 537.21 615.16 532.49 618.66 527.40 621.53 C 518.80 626.52 509.73 630.62 500.54 634.37 C 495.59 636.29 490.24 636.80 484.99 637.11 C 477.09 637.44 468.94 636.87 461.62 633.67 C 452.71 629.74 443.79 625.73 435.63 620.38 C 429.82 616.55 423.92 612.86 417.90 609.38 C 405.89 602.78 394.67 594.85 382.54 588.46 C 375.75 585.09 369.78 580.33 363.05 576.86 C 356.09 572.85 348.83 569.35 342.17 564.84 C 336.46 561.03 330.11 558.34 324.20 554.88 C 317.16 551.03 310.44 546.63 303.50 542.60 C 291.47 536.16 280.74 526.27 275.39 513.52 C 272.47 507.10 270.63 500.16 270.47 493.09 C 269.03 463.75 269.54 434.36 270.24 405.01 C 270.41 384.01 269.76 362.99 270.68 342.00 C 271.26 326.61 269.90 311.08 272.52 295.83 C 275.48 283.43 284.69 273.54 294.98 266.54 C 299.97 263.34 304.88 260.01 309.95 256.95 C 316.43 253.04 323.37 249.95 329.68 245.76 C 339.65 239.15 350.61 234.21 360.56 227.56 C 369.27 222.11 378.55 217.64 387.30 212.26 C 397.59 205.34 408.83 199.97 419.14 193.06 C 426.61 188.09 434.84 184.37 442.17 179.18 C 450.61 173.17 460.18 168.51 470.44 166.72 M 459.45 194.43 C 451.33 200.20 442.26 204.45 434.11 210.16 C 423.95 216.81 412.87 221.94 402.85 228.80 C 399.99 230.85 396.56 232.00 393.94 234.37 C 387.36 237.97 380.64 241.35 374.44 245.60 C 366.80 250.22 358.81 254.22 351.25 258.96 C 345.67 261.61 340.76 265.42 335.33 268.32 C 324.57 273.90 314.52 280.70 304.36 287.27 C 297.29 291.65 293.23 299.76 292.83 307.95 C 292.17 319.59 292.91 331.26 292.18 342.90 C 291.57 369.28 292.61 395.69 291.50 422.06 C 291.37 442.05 291.38 462.05 291.54 482.04 C 291.83 488.96 292.12 496.04 294.52 502.61 C 297.18 509.02 301.92 514.38 307.30 518.68 C 313.18 523.43 320.23 526.35 326.57 530.40 C 336.12 536.35 346.14 541.47 355.85 547.14 C 365.62 553.61 376.19 558.70 386.22 564.73 C 389.71 566.93 393.08 569.35 396.76 571.27 C 409.26 577.85 420.90 585.92 433.25 592.76 C 441.49 597.39 449.02 603.15 457.32 607.67 C 467.03 612.86 478.34 616.40 489.41 614.27 C 496.47 613.07 502.66 609.29 509.02 606.24 C 515.03 603.34 520.38 599.29 526.32 596.25 C 534.58 591.61 543.04 587.28 550.97 582.06 C 560.49 576.11 570.66 571.25 580.08 565.13 C 588.66 559.52 598.05 555.26 606.64 549.66 C 616.21 543.43 626.62 538.60 636.09 532.20 C 644.03 527.35 652.16 522.82 660.03 517.88 C 664.12 515.41 666.73 511.27 669.25 507.35 C 670.70 505.17 671.16 502.55 671.03 499.98 C 670.88 487.37 671.18 474.74 670.86 462.13 C 671.16 442.78 671.69 423.44 671.51 404.09 C 671.76 376.39 671.36 348.67 671.64 320.96 C 671.50 311.77 672.27 301.82 667.45 293.57 C 662.95 285.90 654.57 282.14 647.53 277.29 C 642.89 274.13 637.72 271.93 632.86 269.17 C 622.80 263.56 613.21 257.16 603.02 251.79 C 594.04 246.94 585.58 241.18 576.58 236.35 C 567.03 231.42 558.29 225.13 548.76 220.17 C 540.06 215.69 532.01 210.08 523.39 205.47 C 516.35 201.60 509.19 197.92 502.38 193.65 C 489.55 185.60 471.90 185.61 459.45 194.43 Z" />
</g>
<g id="#5d3a0aff">
<path fill="#5d3a0a" stroke="#5d3a0a" stroke-width="0.09375" opacity="1.00" d=" M 459.45 194.43 C 471.90 185.61 489.55 185.60 502.38 193.65 C 509.19 197.92 516.35 201.60 523.39 205.47 C 532.01 210.08 540.06 215.69 548.76 220.17 C 558.29 225.13 567.03 231.42 576.58 236.35 C 585.58 241.18 594.04 246.94 603.02 251.79 C 613.21 257.16 622.80 263.56 632.86 269.17 C 637.72 271.93 642.89 274.13 647.53 277.29 C 654.57 282.14 662.95 285.90 667.45 293.57 C 672.27 301.82 671.50 311.77 671.64 320.96 C 671.36 348.67 671.76 376.39 671.51 404.09 C 670.73 403.37 669.97 402.64 669.15 402.00 C 596.66 358.79 524.14 315.56 451.64 272.35 C 436.76 263.58 422.04 254.54 407.03 245.99 C 401.77 243.07 396.55 240.07 391.51 236.78 C 392.30 235.97 393.10 235.15 393.94 234.37 C 396.56 232.00 399.99 230.85 402.85 228.80 C 412.87 221.94 423.95 216.81 434.11 210.16 C 442.26 204.45 451.33 200.20 459.45 194.43 M 456.96 223.87 C 449.62 228.36 442.24 232.76 435.01 237.42 C 435.09 237.68 435.25 238.19 435.33 238.45 C 474.77 262.19 514.42 285.58 553.98 309.12 C 586.05 328.06 617.90 347.38 650.14 366.03 C 650.24 353.69 650.27 341.35 650.23 329.01 C 650.18 321.47 649.90 313.19 645.04 306.99 C 640.28 301.22 633.61 297.49 627.23 293.78 C 585.96 270.11 545.04 245.85 503.69 222.32 C 495.87 218.03 487.32 213.61 478.09 214.82 C 470.16 215.27 463.59 220.05 456.96 223.87 Z" />
</g>
<g id="#bd9323ff">
<path fill="#bd9323" stroke="#bd9323" stroke-width="0.09375" opacity="1.00" d=" M 335.33 268.32 C 340.76 265.42 345.67 261.61 351.25 258.96 C 384.86 280.28 418.25 301.86 451.89 323.11 C 515.72 363.58 579.43 404.23 643.21 444.78 C 652.44 450.54 662.02 455.75 670.86 462.13 C 671.18 474.74 670.88 487.37 671.03 499.98 C 671.16 502.55 670.70 505.17 669.25 507.35 C 666.73 511.27 664.12 515.41 660.03 517.88 C 652.16 522.82 644.03 527.35 636.09 532.20 C 626.62 538.60 616.21 543.43 606.64 549.66 C 598.05 555.26 588.66 559.52 580.08 565.13 C 570.66 571.25 560.49 576.11 550.97 582.06 C 543.04 587.28 534.58 591.61 526.32 596.25 C 520.38 599.29 515.03 603.34 509.02 606.24 C 502.66 609.29 496.47 613.07 489.41 614.27 C 478.34 616.40 467.03 612.86 457.32 607.67 C 449.02 603.15 441.49 597.39 433.25 592.76 C 420.90 585.92 409.26 577.85 396.76 571.27 C 393.08 569.35 389.71 566.93 386.22 564.73 C 376.19 558.70 365.62 553.61 355.85 547.14 C 346.14 541.47 336.12 536.35 326.57 530.40 C 320.23 526.35 313.18 523.43 307.30 518.68 C 301.92 514.38 297.18 509.02 294.52 502.61 C 292.12 496.04 291.83 488.96 291.54 482.04 C 291.38 462.05 291.37 442.05 291.50 422.06 C 292.61 395.69 291.57 369.28 292.18 342.90 C 292.91 331.26 292.17 319.59 292.83 307.95 C 293.23 299.76 297.29 291.65 304.36 287.27 C 314.52 280.70 324.57 273.90 335.33 268.32 M 346.37 285.46 C 339.44 289.79 332.44 294.01 325.57 298.44 C 319.43 302.51 314.12 309.26 314.27 316.96 C 314.04 328.66 313.67 340.37 313.61 352.08 C 313.04 373.72 313.81 395.37 312.93 417.01 C 312.73 434.98 312.63 452.97 312.90 470.95 C 313.22 477.86 313.38 484.96 315.69 491.56 C 319.00 499.32 325.76 504.92 332.84 509.16 C 354.41 521.99 376.53 533.89 398.02 546.86 C 413.45 556.14 429.15 564.95 444.35 574.61 C 455.81 581.38 467.16 590.35 481.02 590.89 C 493.68 591.42 504.02 583.20 514.76 577.80 C 535.07 566.17 555.14 554.13 575.52 542.62 C 596.77 529.80 618.38 517.58 639.42 504.41 C 644.03 501.80 647.17 497.19 649.19 492.40 C 650.12 485.91 649.56 479.31 649.50 472.79 C 549.71 410.53 450.05 348.06 350.34 285.68 C 349.13 284.78 347.60 284.38 346.37 285.46 Z" />
</g>
<g id="#212721ff">
<path fill="#212721" stroke="#212721" stroke-width="0.09375" opacity="1.00" d=" M 507.03 734.06 C 517.33 724.56 532.47 721.19 546.01 724.11 C 552.04 725.36 556.77 729.46 562.02 732.33 C 565.18 731.62 564.76 727.50 565.40 725.05 C 566.10 724.99 567.50 724.85 568.20 724.79 C 567.79 734.84 567.73 744.91 567.75 754.98 C 567.04 754.99 565.62 755.00 564.90 755.01 C 564.03 749.36 563.51 743.44 560.66 738.37 C 555.68 730.14 545.71 724.95 536.08 726.68 C 529.47 727.57 524.32 732.62 521.28 738.29 C 515.57 749.18 514.70 761.90 515.10 773.98 C 515.80 785.03 517.81 796.96 525.52 805.45 C 530.03 810.61 537.31 812.66 543.96 811.47 C 550.32 810.59 555.73 806.50 559.60 801.56 C 563.62 795.77 563.98 788.47 564.88 781.72 C 565.80 781.65 566.73 781.58 567.67 781.52 C 567.84 792.03 567.73 802.54 568.20 813.04 C 567.51 813.01 566.11 812.94 565.41 812.90 C 564.87 810.46 565.24 807.32 562.99 805.67 C 560.52 805.59 558.67 807.63 556.64 808.75 C 550.63 812.93 543.28 815.01 535.98 814.76 C 523.82 814.75 511.13 810.45 503.09 800.99 C 494.58 791.19 492.03 777.60 492.97 764.96 C 493.72 753.44 498.41 741.93 507.03 734.06 Z" />
<path fill="#212721" stroke="#212721" stroke-width="0.09375" opacity="1.00" d=" M 143.79 724.88 C 165.01 725.43 186.26 725.29 207.49 724.87 C 207.24 726.40 207.03 727.99 206.25 729.37 C 192.14 756.25 178.08 783.17 164.00 810.07 C 172.91 809.89 182.61 811.56 190.69 806.79 C 199.06 801.98 203.01 792.31 203.96 783.09 C 204.66 783.09 206.07 783.09 206.77 783.09 C 206.11 793.05 206.29 803.06 207.26 812.99 C 185.71 812.45 164.15 812.54 142.60 812.98 C 142.87 811.51 143.02 810.00 143.75 808.69 C 157.90 781.71 172.12 754.76 186.20 727.74 C 180.47 727.76 174.73 727.52 169.00 727.88 C 161.97 728.36 154.93 732.07 151.50 738.39 C 148.85 742.86 148.10 748.05 147.06 753.05 C 146.38 753.14 145.02 753.32 144.34 753.41 C 145.05 743.90 144.51 734.36 143.79 724.88 Z" />
<path fill="#212721" stroke="#212721" stroke-width="0.09375" opacity="1.00" d=" M 664.74 745.74 C 668.42 740.42 674.69 737.64 680.87 736.44 C 689.22 734.92 698.34 735.00 705.96 739.18 C 708.20 740.18 710.26 742.04 712.86 741.89 C 714.81 739.99 713.67 735.41 717.61 736.21 C 717.14 744.90 717.05 753.60 717.05 762.31 C 716.34 762.29 714.93 762.26 714.22 762.24 C 713.33 755.76 711.29 749.13 706.63 744.35 C 701.31 738.62 692.56 737.02 685.25 739.24 C 681.38 740.36 677.79 743.69 677.85 747.96 C 677.62 752.50 680.96 756.09 684.31 758.68 C 692.69 764.80 702.23 769.14 710.58 775.33 C 716.43 779.72 721.48 786.36 721.05 794.05 C 721.17 800.76 717.02 806.98 711.21 810.13 C 703.24 814.50 693.77 815.29 684.87 814.44 C 678.68 813.83 673.28 810.55 667.55 808.51 C 664.53 807.75 664.56 811.95 663.88 813.85 C 663.21 813.85 661.87 813.85 661.21 813.85 C 661.66 803.79 661.68 793.72 661.63 783.66 C 662.57 783.58 663.52 783.51 664.47 783.45 C 665.11 791.06 666.92 799.02 672.13 804.88 C 677.32 810.87 685.94 812.85 693.52 811.47 C 698.22 810.63 702.78 807.03 703.15 802.02 C 703.90 797.37 701.12 793.10 697.62 790.34 C 687.54 782.30 674.41 778.15 666.21 767.81 C 661.07 761.79 660.19 752.33 664.74 745.74 Z" />
<path fill="#212721" stroke="#212721" stroke-width="0.09375" opacity="1.00" d=" M 217.47 737.37 C 238.64 737.61 259.82 738.02 280.98 737.30 C 280.35 744.90 279.87 752.54 280.48 760.16 C 279.82 760.08 278.50 759.92 277.83 759.84 C 276.29 753.88 274.83 747.18 269.58 743.30 C 263.97 739.34 256.61 739.97 250.13 740.49 C 246.94 740.77 246.07 744.32 246.13 746.99 C 246.05 755.89 246.06 764.81 246.14 773.72 C 250.30 773.51 255.03 774.39 258.58 771.68 C 262.09 768.90 263.22 764.38 264.67 760.37 C 265.34 760.31 266.68 760.20 267.35 760.14 C 266.61 770.01 266.99 779.93 267.69 789.79 C 267.03 789.68 265.70 789.47 265.04 789.36 C 263.78 785.29 262.65 780.70 258.95 778.10 C 255.19 775.49 250.41 776.28 246.11 776.14 C 246.09 785.11 246.04 794.08 246.12 803.06 C 246.08 805.69 246.73 809.36 249.91 809.78 C 256.94 810.33 264.89 811.11 271.03 806.91 C 277.00 802.49 278.93 794.83 280.20 787.90 C 280.90 787.88 282.30 787.84 283.00 787.82 C 282.36 796.21 282.80 804.63 283.49 813.00 C 261.52 812.37 239.52 812.60 217.55 812.99 C 217.00 809.26 221.49 810.73 223.68 809.57 C 227.02 808.19 226.80 803.98 226.98 801.00 C 227.01 783.99 226.98 766.98 226.99 749.98 C 226.79 746.87 227.18 742.65 223.98 740.90 C 221.77 739.47 217.07 741.24 217.47 737.37 Z" />
<path fill="#212721" stroke="#212721" stroke-width="0.09375" opacity="1.00" d=" M 294.11 737.38 C 302.90 737.90 311.71 737.62 320.51 737.41 C 333.57 753.83 346.73 770.16 359.96 786.43 C 360.10 775.61 359.99 764.80 360.03 753.98 C 359.89 750.38 360.05 746.31 357.62 743.37 C 354.94 740.49 350.70 740.38 347.10 739.70 C 347.18 739.09 347.34 737.87 347.42 737.26 C 355.76 737.88 364.14 737.73 372.49 737.41 C 372.87 740.68 369.13 740.02 367.13 741.18 C 363.04 743.04 363.07 748.23 362.92 752.05 C 362.85 772.44 362.91 792.82 362.89 813.21 C 360.38 812.84 356.95 814.26 355.20 811.88 C 343.18 796.91 331.13 781.97 319.09 767.02 C 314.84 761.99 311.06 756.54 306.49 751.79 C 306.47 766.88 306.48 781.97 306.48 797.05 C 306.62 800.43 306.54 804.27 308.87 806.99 C 311.47 809.86 315.60 809.71 319.06 810.67 C 319.15 811.25 319.34 812.41 319.43 812.98 C 311.02 812.54 302.59 812.54 294.18 812.89 C 294.23 812.32 294.34 811.17 294.39 810.60 C 297.27 809.90 300.90 809.42 302.29 806.37 C 303.69 803.13 303.53 799.49 303.62 796.04 C 303.59 780.33 303.65 764.63 303.59 748.92 C 303.48 745.84 303.33 741.46 299.66 740.56 C 297.55 739.68 293.60 740.90 294.11 737.38 Z" />
<path fill="#212721" stroke="#212721" stroke-width="0.09375" opacity="1.00" d=" M 380.01 737.29 C 404.58 737.89 429.17 737.80 453.75 737.32 C 452.87 746.65 452.55 756.04 453.23 765.40 C 452.53 765.25 451.14 764.94 450.44 764.78 C 448.59 757.60 447.46 749.55 441.94 744.10 C 437.82 740.09 431.70 740.03 426.33 740.17 C 426.38 760.12 426.30 780.08 426.37 800.03 C 426.53 803.04 426.60 806.73 429.34 808.64 C 432.13 810.39 435.59 810.21 438.76 810.49 C 438.83 811.11 438.97 812.34 439.04 812.95 C 424.22 812.44 409.39 812.66 394.57 812.83 C 394.61 812.27 394.71 811.15 394.76 810.59 C 398.21 810.13 402.22 810.49 405.03 808.07 C 407.32 805.66 407.15 802.07 407.32 798.99 C 407.30 779.36 407.37 759.74 407.28 740.12 C 402.01 740.10 396.07 740.05 391.96 743.89 C 386.09 749.35 385.21 757.74 383.11 765.03 C 382.46 765.12 381.16 765.30 380.51 765.39 C 381.11 756.02 380.71 746.64 380.01 737.29 Z" />
<path fill="#212721" stroke="#212721" stroke-width="0.09375" opacity="1.00" d=" M 587.37 793.15 C 595.53 774.48 603.66 755.80 611.85 737.14 C 613.80 737.18 615.76 737.21 617.73 737.25 C 627.24 758.67 637.03 779.96 646.63 801.34 C 648.36 805.12 650.46 809.42 654.82 810.62 C 654.90 811.21 655.04 812.39 655.11 812.99 C 643.07 812.42 631.00 812.60 618.95 812.93 C 619.03 812.34 619.19 811.14 619.27 810.55 C 621.81 810.09 625.08 810.25 626.64 807.78 C 627.77 805.33 626.58 802.66 625.68 800.36 C 623.53 795.51 621.51 790.61 619.22 785.83 C 610.51 785.97 601.81 785.82 593.11 785.92 C 590.70 791.83 587.31 798.02 588.44 804.61 C 589.50 809.25 594.88 810.09 598.85 810.52 C 598.91 811.14 599.04 812.38 599.10 813.00 C 591.01 812.60 582.90 812.54 574.81 812.86 C 573.43 810.34 577.16 809.84 578.46 808.47 C 582.88 804.39 584.90 798.48 587.37 793.15 M 606.24 756.29 C 602.18 765.29 598.21 774.34 594.27 783.40 C 602.25 783.36 610.22 783.49 618.20 783.33 C 614.22 774.31 610.40 765.22 606.24 756.29 Z" />
<path fill="#212721" stroke="#212721" stroke-width="0.09375" opacity="1.00" d=" M 731.23 737.33 C 743.76 737.83 756.31 737.81 768.84 737.31 C 768.86 737.91 768.89 739.10 768.91 739.70 C 765.39 739.92 760.20 740.37 759.96 744.95 C 759.14 754.32 759.77 763.77 759.60 773.18 C 770.27 773.06 780.96 773.43 791.62 772.98 C 791.43 764.70 791.67 756.41 791.50 748.13 C 791.31 745.86 791.27 743.22 789.51 741.56 C 787.44 739.93 784.62 740.13 782.16 739.70 C 782.18 739.10 782.22 737.91 782.24 737.31 C 794.78 737.80 807.35 737.86 819.90 737.32 C 819.92 737.91 819.96 739.10 819.98 739.70 C 817.48 740.15 814.59 739.89 812.54 741.63 C 810.64 743.55 810.78 746.49 810.61 748.99 C 810.55 766.00 810.61 783.02 810.58 800.03 C 810.71 802.69 810.50 805.63 811.97 807.99 C 813.76 810.43 817.14 810.11 819.82 810.54 C 819.87 811.14 819.98 812.36 820.03 812.96 C 807.37 812.45 794.70 812.60 782.05 812.92 C 782.12 812.33 782.25 811.15 782.31 810.56 C 784.96 810.11 788.29 810.45 790.12 808.08 C 791.62 805.70 791.42 802.74 791.55 800.06 C 791.51 791.91 791.66 783.77 791.46 775.63 C 780.83 775.73 770.21 775.64 759.59 775.67 C 759.62 784.44 759.51 793.20 759.63 801.97 C 759.81 804.39 759.80 807.36 761.93 809.00 C 763.91 810.33 766.44 810.19 768.73 810.55 C 768.81 811.14 768.98 812.32 769.06 812.91 C 756.39 812.59 743.72 812.49 731.06 812.93 C 731.14 812.33 731.28 811.13 731.35 810.53 C 734.16 810.12 737.94 810.44 739.46 807.48 C 740.59 804.81 740.41 801.82 740.51 798.98 C 740.46 782.33 740.54 765.68 740.47 749.03 C 740.28 746.47 740.41 743.45 738.43 741.53 C 736.36 739.93 733.56 740.12 731.13 739.66 C 731.15 739.08 731.20 737.92 731.23 737.33 Z" />
</g>
</svg>
