<?xml version="1.0" encoding="UTF-8" ?>
<!DOCTYPE svg PUBLIC "-//W3C//DTD SVG 1.1//EN" "http://www.w3.org/Graphics/SVG/1.1/DTD/svg11.dtd">
<svg width="1201pt" height="336pt" viewBox="0 0 1201 336" version="1.1" xmlns="http://www.w3.org/2000/svg">
<g id="#000000ff">
<path fill="#000000" stroke="#000000" stroke-width="0.09375" opacity="1.00" d=" M 142.52 61.60 C 149.19 60.69 156.25 61.32 162.12 64.87 C 184.28 77.17 205.98 90.27 227.99 102.83 C 233.05 105.94 238.74 108.89 241.54 114.43 C 245.16 119.90 244.44 126.70 244.66 132.94 C 244.63 155.27 244.76 177.61 244.61 199.95 C 244.10 206.48 245.35 213.21 243.39 219.57 C 241.98 223.07 239.79 226.38 236.81 228.73 C 220.98 238.79 204.62 248.01 188.35 257.33 C 182.40 261.62 175.59 264.49 169.43 268.47 C 163.08 271.91 156.53 275.75 149.09 275.93 C 138.86 276.48 130.00 270.39 121.73 265.18 C 110.93 259.08 100.64 252.10 89.63 246.35 C 80.83 241.13 71.80 236.30 63.18 230.77 C 56.32 226.17 51.50 218.37 51.43 210.00 C 51.11 199.66 51.03 189.32 51.22 178.98 C 51.22 162.64 51.04 146.28 51.98 129.97 C 51.83 124.77 51.61 119.15 54.75 114.69 C 59.96 107.31 68.41 103.31 76.06 98.98 C 84.72 93.53 93.62 88.48 102.57 83.54 C 110.90 78.52 119.14 73.35 127.57 68.49 C 132.11 65.38 136.95 62.38 142.52 61.60 M 138.76 73.73 C 132.09 77.68 125.78 82.24 118.93 85.90 C 114.71 88.16 110.64 90.68 106.64 93.31 C 100.21 97.13 93.78 100.91 87.26 104.57 L 87.33 104.58 L 86.40 104.76 C 79.58 109.64 71.41 112.57 65.22 118.33 C 61.13 122.49 61.93 128.70 61.87 134.01 C 61.12 157.66 61.69 181.32 61.47 204.98 C 61.35 209.53 62.04 214.33 64.83 218.06 C 68.05 222.81 73.58 224.94 78.33 227.76 C 94.84 237.18 111.21 246.86 127.58 256.52 C 134.38 261.30 142.09 266.63 150.84 265.48 C 157.37 263.97 163.13 260.30 168.73 256.76 C 188.08 245.90 207.10 234.50 226.23 223.25 C 229.99 221.21 233.97 217.76 233.87 213.11 C 233.83 207.28 234.09 201.44 233.69 195.62 C 233.92 186.88 234.07 178.13 233.98 169.38 C 234.08 155.60 234.02 141.81 234.05 128.02 C 234.13 123.78 232.99 119.15 229.62 116.30 C 223.96 111.75 217.19 108.93 211.01 105.18 C 193.16 94.49 175.02 84.32 157.06 73.83 C 151.54 70.63 144.27 70.33 138.76 73.73 Z" />
</g>
<g id="#3d3d3dff">
<path fill="#3d3d3d" stroke="#3d3d3d" stroke-width="0.09375" opacity="1.00" d=" M 138.76 73.73 C 144.27 70.33 151.54 70.63 157.06 73.83 C 175.02 84.32 193.16 94.49 211.01 105.18 C 217.19 108.93 223.96 111.75 229.62 116.30 C 232.99 119.15 234.13 123.78 234.05 128.02 C 234.02 141.81 234.08 155.60 233.98 169.38 C 219.52 160.66 205.13 151.84 190.49 143.43 C 177.26 135.28 163.86 127.42 150.43 119.59 C 136.13 110.35 120.95 102.54 106.64 93.31 C 110.64 90.68 114.71 88.16 118.93 85.90 C 125.78 82.24 132.09 77.68 138.76 73.73 M 143.17 84.29 C 137.24 86.93 131.83 90.59 126.31 93.98 C 141.26 103.41 156.86 111.77 171.79 121.23 C 189.54 131.26 206.75 142.18 224.48 152.25 C 224.41 145.12 224.82 137.96 224.29 130.84 C 223.87 124.92 218.23 121.90 213.62 119.39 C 204.77 113.75 195.46 108.90 186.44 103.54 C 176.71 97.96 167.15 92.09 157.30 86.69 C 153.03 84.44 147.97 82.27 143.17 84.29 Z" />
</g>
<g id="#949493ff">
<path fill="#949493" stroke="#949493" stroke-width="0.09375" opacity="1.00" d=" M 65.22 118.33 C 71.41 112.57 79.58 109.64 86.40 104.76 L 87.33 104.58 C 87.72 104.65 88.51 104.79 88.90 104.86 L 89.64 105.12 C 105.99 115.08 121.71 126.01 138.03 136.03 C 149.66 144.17 162.06 151.15 173.70 159.30 C 193.77 171.89 213.47 185.05 233.53 197.66 C 233.57 197.15 233.65 196.13 233.69 195.62 C 234.09 201.44 233.83 207.28 233.87 213.11 C 233.97 217.76 229.99 221.21 226.23 223.25 C 207.10 234.50 188.08 245.90 168.73 256.76 C 163.13 260.30 157.37 263.97 150.84 265.48 C 142.09 266.63 134.38 261.30 127.58 256.52 C 111.21 246.86 94.84 237.18 78.33 227.76 C 73.58 224.94 68.05 222.81 64.83 218.06 C 62.04 214.33 61.35 209.53 61.47 204.98 C 61.69 181.32 61.12 157.66 61.87 134.01 C 61.93 128.70 61.13 122.49 65.22 118.33 M 75.54 122.52 C 71.07 125.84 70.89 131.92 70.52 136.97 C 70.59 155.31 70.15 173.65 70.26 191.99 C 69.99 196.73 71.02 201.38 71.36 206.09 C 71.61 209.04 72.99 211.84 75.25 213.77 C 80.43 218.15 86.51 221.26 92.36 224.66 C 107.80 232.98 122.56 242.48 137.68 251.36 C 142.58 254.37 148.84 255.78 154.26 253.22 C 162.49 249.42 170.05 244.36 178.04 240.11 C 190.60 232.21 203.79 225.34 216.31 217.37 C 219.36 215.59 222.39 213.56 224.39 210.57 C 225.61 207.62 224.81 204.33 224.62 201.25 C 213.81 194.39 202.95 187.59 191.99 180.96 C 179.81 172.69 166.96 165.46 154.66 157.36 C 143.34 149.92 131.48 143.32 120.33 135.63 C 111.16 130.23 102.32 124.30 93.17 118.88 C 91.11 117.71 89.40 115.64 86.96 115.34 C 83.12 117.67 79.32 120.09 75.54 122.52 Z" />
</g>
<g id="#1f251fff">
<path fill="#1f251f" stroke="#1f251f" stroke-width="0.09375" opacity="1.00" d=" M 746.44 116.52 C 758.49 108.35 773.73 106.25 787.94 107.96 C 797.42 109.18 805.20 115.00 813.06 119.91 C 815.97 117.22 816.16 113.15 816.67 109.49 C 818.10 109.49 819.54 109.50 820.99 109.50 C 821.04 114.32 821.12 119.16 820.58 123.96 C 820.38 132.79 820.57 141.64 820.50 150.48 C 819.03 150.50 817.58 150.52 816.13 150.54 C 814.49 142.01 814.00 132.66 808.50 125.50 C 803.61 119.47 796.93 114.45 789.12 113.16 C 779.70 110.80 768.97 114.16 763.06 121.98 C 755.09 131.78 752.39 144.60 751.12 156.87 C 749.80 169.23 750.62 181.80 753.36 193.92 C 755.37 202.87 759.39 211.57 765.91 218.13 C 772.58 224.23 782.49 226.38 791.13 223.83 C 798.28 222.16 804.20 217.25 808.74 211.66 C 814.43 203.95 814.50 194.03 816.09 184.97 C 817.57 184.99 819.05 185.03 820.55 185.09 C 820.50 194.05 820.43 203.02 820.56 211.98 C 821.07 216.98 821.07 222.00 820.99 227.02 C 819.51 227.00 818.05 226.97 816.61 226.92 C 816.01 223.65 816.31 219.25 813.03 217.38 C 807.86 219.54 803.67 223.49 798.49 225.64 C 788.75 230.16 777.63 230.19 767.19 228.71 C 752.89 226.69 739.03 219.24 730.88 207.10 C 721.17 193.19 719.13 175.36 721.05 158.87 C 723.04 142.06 731.88 125.62 746.44 116.52 Z" />
<path fill="#1f251f" stroke="#1f251f" stroke-width="0.09375" opacity="1.00" d=" M 265.43 110.00 C 289.94 110.00 314.46 110.00 338.98 110.00 C 342.89 110.04 346.81 110.08 350.71 109.70 C 350.53 112.15 349.99 114.58 348.71 116.70 C 330.16 152.17 311.69 187.69 292.99 223.07 C 298.84 222.10 304.76 223.68 310.63 222.70 C 318.57 222.48 326.75 220.16 332.65 214.63 C 340.49 207.64 344.06 197.19 345.14 187.00 C 346.59 187.00 348.05 187.00 349.51 187.00 C 349.65 193.68 348.58 200.33 349.03 207.02 C 349.61 213.68 349.43 220.40 350.45 227.03 C 321.60 226.96 292.75 227.02 263.89 227.00 C 264.06 225.46 263.81 223.81 264.55 222.40 C 283.64 186.32 302.45 150.10 321.53 114.02 C 313.06 114.02 304.54 113.68 296.14 114.92 C 288.50 116.17 281.13 120.43 277.05 127.12 C 273.24 133.40 271.50 140.67 270.75 147.91 C 269.14 147.96 267.53 148.00 265.93 148.03 C 267.31 135.38 266.21 122.65 265.43 110.00 Z" />
<path fill="#1f251f" stroke="#1f251f" stroke-width="0.09375" opacity="1.00" d=" M 961.42 126.56 C 970.67 123.67 980.67 123.19 990.20 124.79 C 996.72 125.90 1002.23 129.72 1008.24 132.21 C 1011.73 132.24 1011.19 127.39 1012.13 125.00 C 1013.59 125.00 1015.07 125.00 1016.56 125.00 C 1015.68 136.64 1016.08 148.33 1016.00 160.00 C 1014.37 160.00 1012.75 160.00 1011.15 160.00 C 1010.16 149.46 1005.83 138.27 996.56 132.38 C 990.55 128.40 982.98 127.79 976.02 128.86 C 971.39 129.80 966.48 132.15 964.64 136.80 C 962.62 141.90 964.88 147.63 968.61 151.32 C 974.20 156.73 981.27 160.19 987.75 164.39 C 997.44 170.31 1008.20 175.45 1015.31 184.63 C 1022.01 192.65 1022.96 204.91 1017.79 213.96 C 1013.25 221.78 1004.54 225.94 996.02 227.88 C 985.02 230.22 973.19 230.59 962.52 226.61 C 958.12 225.02 953.94 222.91 949.65 221.06 C 945.89 221.45 946.21 225.76 945.31 228.54 C 943.84 228.51 942.39 228.50 940.95 228.49 C 941.83 214.85 941.39 201.18 941.51 187.52 C 943.05 187.49 944.61 187.47 946.18 187.44 C 946.86 197.06 949.09 207.02 955.27 214.68 C 961.89 223.22 973.79 226.52 984.15 224.41 C 988.78 223.58 993.15 220.77 995.39 216.57 C 997.45 211.72 996.97 205.63 993.53 201.52 C 988.69 195.37 981.49 191.83 975.00 187.75 C 964.29 181.33 952.47 175.28 945.64 164.38 C 941.72 158.71 941.29 151.43 942.46 144.84 C 944.52 135.66 952.71 129.12 961.42 126.56 Z" />
<path fill="#1f251f" stroke="#1f251f" stroke-width="0.09375" opacity="1.00" d=" M 362.02 125.92 C 364.68 126.15 367.34 126.54 370.02 126.51 C 391.68 126.49 413.34 126.50 435.00 126.50 C 438.85 126.55 442.73 126.62 446.56 125.99 C 446.22 136.33 445.03 146.66 446.06 157.00 C 444.59 157.00 443.14 157.00 441.68 157.01 C 440.37 151.24 439.16 145.26 435.84 140.25 C 432.56 134.80 426.38 131.34 420.07 131.04 C 415.15 131.01 410.21 130.82 405.31 131.14 C 402.19 131.91 400.44 134.93 400.55 138.02 C 400.42 150.18 400.54 162.34 400.50 174.50 C 405.92 174.50 412.00 174.97 416.62 171.60 C 420.86 167.63 422.84 161.94 424.23 156.45 C 425.66 156.47 427.09 156.50 428.53 156.52 C 428.47 164.42 427.35 172.32 428.38 180.21 C 428.45 185.65 428.77 191.07 429.08 196.50 C 427.63 196.50 426.19 196.50 424.75 196.50 C 423.64 190.82 421.71 184.76 416.96 181.07 C 412.19 177.60 406.02 178.61 400.51 178.52 C 400.51 190.35 400.48 202.19 400.51 214.02 C 400.55 217.20 401.28 221.49 405.06 222.12 C 413.98 223.44 423.88 223.62 431.94 219.00 C 440.62 213.39 443.14 202.46 445.03 192.97 C 446.54 192.99 448.05 193.00 449.57 193.01 C 448.27 204.31 449.17 215.70 450.07 227.00 C 420.72 227.00 391.36 227.00 362.00 227.00 C 362.00 225.69 362.00 224.38 362.00 223.08 C 365.58 222.84 370.62 223.22 372.71 219.68 C 374.38 216.39 374.25 212.57 374.49 208.98 C 374.49 187.31 374.51 165.64 374.48 143.97 C 374.11 140.06 374.47 135.55 371.70 132.41 C 368.87 130.40 365.22 130.65 361.96 130.05 C 361.97 128.67 362.00 127.29 362.02 125.92 Z" />
<path fill="#1f251f" stroke="#1f251f" stroke-width="0.09375" opacity="1.00" d=" M 462.08 126.21 C 468.04 126.74 474.03 126.41 480.01 126.50 C 485.69 126.38 491.41 126.88 497.06 126.00 C 514.64 147.51 531.95 169.23 549.44 190.81 C 549.50 183.88 549.58 176.94 549.44 170.01 C 548.56 160.99 549.23 151.92 548.97 142.88 C 548.68 139.18 547.49 134.86 543.85 133.13 C 540.57 130.95 536.51 131.14 532.88 130.11 C 532.13 128.95 532.61 127.37 532.39 126.06 C 538.22 126.88 544.12 126.36 549.99 126.50 C 555.50 126.38 561.04 126.85 566.52 126.07 C 566.51 127.35 566.52 128.63 566.54 129.91 C 563.02 131.00 558.75 131.27 556.34 134.43 C 553.73 138.43 553.95 143.41 553.99 147.99 C 554.02 174.49 553.99 200.99 554.00 227.50 C 550.80 227.51 547.60 227.50 544.40 227.52 C 522.62 200.39 500.74 173.35 479.00 146.20 C 479.02 166.15 478.96 186.09 479.02 206.03 C 479.39 210.78 479.35 216.42 483.42 219.69 C 486.99 222.37 491.70 222.66 496.00 223.13 C 495.99 224.42 495.99 225.71 496.00 227.00 C 484.71 226.94 473.41 227.12 462.12 226.90 C 462.06 225.66 462.01 224.42 461.97 223.18 C 465.34 222.78 469.05 222.22 471.54 219.67 C 474.15 216.41 474.32 211.99 474.50 207.99 C 474.49 185.67 474.51 163.36 474.49 141.04 C 474.22 137.68 473.99 133.16 470.39 131.63 C 467.72 130.51 464.75 130.52 461.93 130.04 C 461.98 128.76 462.03 127.48 462.08 126.21 Z" />
<path fill="#1f251f" stroke="#1f251f" stroke-width="0.09375" opacity="1.00" d=" M 573.96 125.96 C 579.25 126.78 584.62 126.45 589.95 126.49 C 615.31 126.51 640.66 126.48 666.01 126.51 C 668.34 126.52 670.65 126.16 672.97 125.92 C 671.58 138.56 670.91 151.33 672.08 164.02 C 670.58 164.00 669.09 163.98 667.61 163.95 C 665.24 153.53 663.62 141.40 654.56 134.43 C 649.44 130.37 642.63 130.90 636.51 131.01 C 636.49 157.35 636.52 183.69 636.49 210.03 C 636.57 213.59 636.97 217.65 639.67 220.28 C 643.56 222.91 648.46 223.04 653.00 223.05 C 652.99 224.36 652.99 225.68 653.00 227.00 C 633.17 227.02 613.34 226.97 593.51 227.02 C 593.74 225.70 593.95 224.37 594.14 223.04 C 598.34 222.98 602.91 223.01 606.58 220.66 C 610.06 217.92 610.36 213.09 610.51 209.01 C 610.49 183.01 610.50 157.00 610.50 131.00 C 603.26 130.22 594.94 131.07 589.67 136.65 C 583.19 144.27 581.23 154.47 579.35 164.01 C 577.88 164.00 576.42 164.00 574.97 163.99 C 574.85 158.32 575.85 152.69 575.48 147.02 C 574.99 140.00 574.83 132.95 573.96 125.96 Z" />
<path fill="#1f251f" stroke="#1f251f" stroke-width="0.09375" opacity="1.00" d=" M 876.49 126.02 C 879.25 126.00 882.02 126.00 884.79 125.99 C 897.88 154.66 910.80 183.40 923.80 212.12 C 925.97 216.89 928.91 222.26 934.53 223.39 C 934.50 224.59 934.49 225.79 934.49 227.00 C 918.32 227.00 902.16 227.00 886.00 227.00 C 885.99 225.70 885.99 224.40 886.00 223.11 C 889.51 223.02 893.56 222.74 896.07 219.92 C 897.12 217.25 896.35 214.23 895.34 211.65 C 892.51 205.07 889.66 198.48 886.78 191.91 L 886.08 191.50 C 874.83 191.48 863.57 191.55 852.32 191.46 C 849.26 199.25 844.66 207.35 846.34 215.99 C 848.36 221.70 855.18 222.97 860.51 223.15 C 860.49 224.43 860.49 225.71 860.50 227.00 C 849.32 227.00 838.15 227.00 826.97 227.00 C 826.99 225.83 827.02 224.67 827.07 223.51 C 834.14 221.16 837.70 213.95 840.80 207.73 C 852.74 180.51 864.67 153.29 876.49 126.02 M 869.55 152.70 C 864.25 164.26 859.24 175.95 854.04 187.55 C 864.29 187.40 874.54 187.61 884.80 187.43 C 879.65 175.88 874.74 164.23 869.55 152.70 Z" />
<path fill="#1f251f" stroke="#1f251f" stroke-width="0.09375" opacity="1.00" d=" M 1032.51 125.97 C 1040.62 127.02 1048.82 126.28 1056.97 126.50 C 1065.82 126.28 1074.71 126.99 1083.52 126.04 C 1083.51 127.37 1083.51 128.70 1083.54 130.04 C 1079.82 130.66 1075.22 130.31 1072.67 133.64 C 1071.19 136.52 1071.16 139.87 1071.00 143.03 C 1070.99 153.19 1071.00 163.34 1071.00 173.49 C 1084.83 173.50 1098.66 173.50 1112.49 173.49 C 1112.50 162.65 1112.48 151.81 1112.51 140.96 C 1112.34 138.40 1112.56 135.42 1110.70 133.40 C 1108.31 130.24 1103.90 130.83 1100.46 130.00 C 1100.46 128.68 1100.46 127.36 1100.47 126.04 C 1111.62 127.03 1122.85 126.25 1134.03 126.50 C 1139.69 126.38 1145.38 126.88 1151.00 126.00 C 1150.99 127.41 1150.99 128.82 1151.01 130.23 C 1146.82 130.57 1140.79 130.38 1139.54 135.49 C 1137.94 142.88 1138.65 150.50 1138.50 158.00 C 1138.54 175.00 1138.43 191.99 1138.55 208.98 C 1138.96 212.79 1138.48 217.00 1140.70 220.35 C 1143.38 223.00 1147.47 222.99 1151.00 223.08 C 1150.99 224.38 1150.99 225.69 1151.00 227.00 C 1134.16 227.00 1117.33 227.00 1100.50 227.00 C 1100.48 225.69 1100.48 224.39 1100.50 223.10 C 1103.67 222.98 1107.23 223.05 1109.85 220.94 C 1111.95 218.91 1112.52 215.84 1112.51 213.03 C 1112.48 201.35 1112.50 189.68 1112.49 178.00 C 1098.66 178.00 1084.83 178.00 1071.00 178.00 C 1070.99 188.67 1071.01 199.34 1070.99 210.02 C 1071.04 213.67 1071.34 217.59 1073.43 220.72 C 1076.15 223.18 1080.09 222.88 1083.50 223.09 C 1083.49 224.39 1083.49 225.69 1083.50 227.00 C 1066.50 227.00 1049.50 227.00 1032.50 227.00 C 1032.49 225.69 1032.48 224.39 1032.49 223.09 C 1036.11 222.87 1040.57 223.22 1043.13 220.09 C 1044.80 217.39 1044.95 214.06 1045.02 210.98 C 1044.99 188.33 1044.99 165.68 1045.01 143.03 C 1044.95 139.86 1044.75 136.54 1043.33 133.64 C 1040.78 130.32 1036.21 130.65 1032.49 130.11 C 1032.48 128.73 1032.49 127.35 1032.51 125.97 Z" />
</g>
</svg>
