<?xml version="1.0" encoding="UTF-8" ?>
<!DOCTYPE svg PUBLIC "-//W3C//DTD SVG 1.1//EN" "http://www.w3.org/Graphics/SVG/1.1/DTD/svg11.dtd">
<svg width="1921pt" height="537pt" viewBox="0 0 1921 537" version="1.1" xmlns="http://www.w3.org/2000/svg">
<g id="#ffffffff">
<path fill="#ffffff" stroke="#ffffff" stroke-width="0.09375" opacity="1.00" d=" M 228.53 99.10 C 233.07 99.54 237.53 97.29 241.97 98.79 C 244.10 99.39 246.71 98.27 248.51 99.88 C 249.00 99.94 249.99 100.08 250.49 100.15 C 252.41 101.12 254.57 101.55 256.41 102.71 C 258.24 103.36 259.92 104.34 261.60 105.31 C 262.12 105.54 263.15 106.01 263.66 106.25 C 265.77 108.47 268.86 109.17 271.41 110.73 C 271.92 110.97 272.93 111.43 273.44 111.66 C 274.54 112.16 275.47 112.95 276.35 113.77 C 277.45 114.25 278.53 114.76 279.64 115.23 C 281.54 116.42 283.37 117.73 285.40 118.71 C 287.12 119.61 288.69 120.77 290.39 121.73 C 291.54 122.13 292.47 122.93 293.35 123.76 C 294.44 124.25 295.52 124.78 296.62 125.27 C 297.12 125.52 298.10 126.01 298.60 126.26 C 301.05 127.43 303.19 129.20 305.71 130.24 C 306.10 130.63 306.89 131.41 307.29 131.81 C 308.42 132.24 309.52 132.75 310.65 133.21 C 311.50 134.06 312.44 134.84 313.57 135.30 C 314.51 135.77 315.46 136.24 316.42 136.70 C 318.56 137.75 320.46 139.23 322.60 140.29 C 324.01 140.86 325.25 141.71 326.36 142.76 C 328.14 143.51 329.96 144.28 331.34 145.70 C 333.48 146.79 335.43 148.23 337.58 149.31 C 338.92 149.97 340.25 150.65 341.62 151.25 C 342.98 151.88 344.22 152.71 345.37 153.68 C 347.11 154.59 348.61 155.90 350.39 156.76 C 350.90 157.00 351.90 157.47 352.41 157.71 C 355.54 159.13 358.34 161.15 361.39 162.71 C 362.92 163.36 364.07 164.64 365.60 165.28 C 369.51 167.26 372.96 170.00 376.65 172.30 C 378.47 174.16 381.56 174.94 382.27 177.70 C 383.71 179.03 384.91 180.59 385.72 182.39 C 386.59 184.23 387.70 185.94 388.91 187.57 C 388.96 188.05 389.06 189.01 389.11 189.49 C 390.60 190.83 389.36 193.23 390.95 194.52 C 391.09 213.68 390.92 232.84 391.03 252.00 C 391.37 266.32 391.51 280.66 391.02 294.98 C 390.99 310.32 390.99 325.66 391.02 341.00 C 391.18 344.66 389.91 348.18 388.79 351.62 C 388.27 352.54 387.77 353.47 387.28 354.42 C 386.86 355.55 386.04 356.44 385.30 357.37 C 383.45 360.66 380.51 363.34 377.66 365.78 C 376.45 366.07 375.55 366.93 374.63 367.69 C 373.13 368.41 371.87 369.53 370.40 370.29 C 368.60 371.07 367.09 372.32 365.44 373.35 C 364.92 373.57 363.87 374.01 363.35 374.24 C 362.47 375.06 361.54 375.86 360.39 376.27 C 357.84 377.84 355.36 379.53 352.58 380.68 C 350.45 381.79 348.51 383.23 346.36 384.30 C 345.18 385.22 343.94 386.05 342.59 386.71 C 340.85 387.58 339.33 388.81 337.62 389.73 C 335.20 390.92 333.02 392.54 330.60 393.75 C 330.09 393.98 329.07 394.43 328.56 394.66 C 326.88 395.64 325.31 396.80 323.60 397.72 C 322.06 398.36 320.88 399.62 319.36 400.29 C 317.68 401.83 315.58 402.69 313.58 403.72 C 313.09 403.97 312.10 404.47 311.61 404.72 C 309.06 405.68 307.05 407.56 304.61 408.73 C 302.43 409.74 300.54 411.26 298.37 412.30 C 297.44 413.05 296.53 413.85 295.41 414.30 C 292.82 415.79 290.22 417.28 287.61 418.74 C 287.10 418.97 286.07 419.43 285.56 419.66 C 283.30 421.11 281.06 422.62 278.58 423.68 C 277.47 424.16 276.55 424.94 275.62 425.69 C 273.25 426.98 271.04 428.56 268.61 429.73 C 265.92 431.03 263.29 432.42 260.60 433.72 C 259.24 434.33 257.91 435.01 256.62 435.78 C 255.26 436.34 253.90 436.92 252.47 437.29 C 251.51 437.73 250.52 438.06 249.49 438.27 C 243.78 440.45 237.55 440.10 231.53 439.91 C 226.48 438.33 221.18 437.10 216.59 434.27 C 216.09 434.03 215.10 433.53 214.61 433.29 C 212.86 432.45 211.14 431.55 209.39 430.73 C 205.22 428.68 201.52 425.84 197.64 423.32 C 195.48 422.25 193.59 420.70 191.38 419.73 C 189.60 418.92 188.15 417.58 186.41 416.71 C 184.31 415.83 182.68 414.18 180.59 413.28 C 179.45 412.87 178.55 412.04 177.63 411.31 C 175.26 410.00 173.11 408.33 170.58 407.32 C 168.51 406.13 166.60 404.67 164.41 403.71 C 163.07 403.00 161.71 402.32 160.30 401.79 C 159.90 401.40 159.10 400.63 158.71 400.24 C 157.49 399.91 156.51 399.11 155.65 398.23 C 155.13 398.01 154.08 397.57 153.55 397.35 C 151.89 396.34 150.33 395.19 148.63 394.24 C 147.26 393.65 145.92 392.97 144.57 392.33 C 142.48 391.12 140.63 389.51 138.29 388.78 C 137.89 388.39 137.10 387.59 136.71 387.20 C 136.17 386.99 135.09 386.57 134.55 386.36 C 131.74 384.37 128.56 383.02 125.62 381.25 C 122.40 379.99 119.62 377.93 116.61 376.29 C 115.10 375.60 113.92 374.36 112.40 373.72 C 109.98 372.49 107.96 370.61 105.36 369.76 C 104.47 368.88 103.51 368.08 102.29 367.75 C 98.47 363.61 93.76 360.15 90.67 355.42 C 90.44 354.92 89.96 353.91 89.73 353.41 C 88.48 351.20 87.46 348.87 86.71 346.45 C 85.63 344.95 86.49 342.77 85.05 341.48 C 85.00 336.98 85.25 332.45 84.05 328.07 C 83.98 312.03 83.94 295.97 84.07 279.93 C 86.48 265.73 83.67 251.30 84.97 237.03 C 85.14 224.01 84.80 210.97 85.12 197.95 C 85.32 197.58 85.71 196.84 85.91 196.48 C 86.17 194.53 85.46 192.29 86.74 190.61 C 87.31 189.22 87.82 187.81 88.22 186.36 C 89.04 185.46 89.76 184.48 90.28 183.39 C 91.79 180.05 94.82 177.87 97.22 175.24 C 98.19 174.16 99.32 173.24 100.70 172.76 C 101.10 172.38 101.89 171.63 102.29 171.25 C 103.50 170.92 104.44 170.09 105.37 169.31 C 108.82 167.48 111.80 164.86 115.40 163.30 C 117.78 162.03 119.99 160.45 122.40 159.24 C 122.91 159.02 123.94 158.57 124.45 158.35 C 125.88 157.51 127.14 156.41 128.65 155.69 C 130.30 154.15 132.40 153.29 134.41 152.32 C 135.83 151.48 137.17 150.52 138.57 149.66 C 139.08 149.44 140.09 148.99 140.60 148.77 C 143.00 147.51 145.19 145.90 147.64 144.71 C 148.54 143.93 149.47 143.14 150.60 142.72 C 153.13 141.11 155.68 139.53 158.42 138.32 C 159.86 137.53 161.17 136.52 162.57 135.67 C 163.08 135.43 164.08 134.95 164.59 134.72 C 165.09 134.48 166.11 134.00 166.61 133.76 C 168.39 132.88 169.86 131.48 171.70 130.75 C 172.10 130.37 172.90 129.60 173.30 129.22 C 176.30 128.17 178.85 126.25 181.59 124.71 C 183.00 124.14 184.26 123.30 185.35 122.24 C 185.88 122.02 186.93 121.57 187.45 121.35 C 188.90 120.53 190.10 119.29 191.70 118.75 C 192.10 118.37 192.90 117.60 193.30 117.21 C 195.13 116.50 197.03 115.79 198.34 114.24 C 199.72 113.64 201.07 112.98 202.42 112.32 C 205.54 110.54 208.56 108.56 211.35 106.30 C 213.71 105.03 216.00 103.56 218.58 102.74 C 220.41 101.58 222.52 101.07 224.49 100.22 C 225.86 99.97 227.35 99.97 228.53 99.10 M 233.47 114.75 C 230.32 115.00 227.38 116.18 224.44 117.22 C 222.56 118.73 220.53 120.05 218.46 121.28 C 216.81 122.33 215.15 123.37 213.41 124.25 C 211.70 125.19 210.10 126.28 208.43 127.27 C 205.59 128.65 203.20 130.76 200.44 132.27 C 198.46 133.39 196.59 134.69 194.57 135.73 C 193.16 136.54 191.83 137.45 190.45 138.30 C 189.49 138.77 188.52 139.23 187.56 139.69 C 182.80 142.83 177.64 145.36 173.12 148.83 C 170.36 149.55 168.31 151.79 165.58 152.67 C 164.14 153.50 162.81 154.50 161.36 155.31 C 160.44 156.05 159.50 156.80 158.43 157.33 C 157.93 157.57 156.92 158.04 156.42 158.27 C 153.14 159.49 150.66 162.05 147.39 163.25 C 146.09 164.11 144.27 164.56 143.74 166.21 C 140.69 166.17 138.69 168.94 136.11 170.17 C 125.54 176.04 115.03 182.09 105.42 189.45 C 103.30 192.61 101.26 196.05 101.07 199.95 C 100.58 210.60 101.85 221.35 100.08 231.91 C 99.88 264.61 100.09 297.32 99.97 330.02 C 100.05 333.18 100.98 336.24 101.23 339.39 C 101.59 340.42 101.94 341.46 102.27 342.50 C 104.18 347.86 108.92 351.33 112.82 355.18 C 123.86 361.48 134.60 368.37 145.99 374.04 C 151.28 377.53 156.65 380.93 162.36 383.71 C 178.73 393.62 195.44 402.98 211.59 413.26 C 215.91 415.72 219.98 418.65 224.51 420.75 C 225.52 421.05 226.53 421.37 227.53 421.72 C 229.76 422.44 232.06 422.89 234.36 423.29 C 237.92 425.06 241.80 423.25 245.45 422.77 C 253.37 419.77 260.89 415.72 268.03 411.18 C 277.49 406.04 286.79 400.68 295.98 395.08 C 305.21 390.52 313.53 384.39 322.65 379.67 C 327.09 377.63 330.89 374.50 335.17 372.18 C 345.84 366.30 356.05 359.62 366.64 353.56 C 370.21 350.88 373.28 347.14 374.83 342.95 C 375.20 333.12 374.96 323.26 374.96 313.42 C 375.05 299.48 374.97 285.53 375.00 271.59 C 375.01 249.06 374.98 226.53 375.02 204.00 C 374.97 201.49 375.32 198.87 374.36 196.47 C 373.18 191.46 369.92 187.06 365.58 184.31 C 364.55 183.68 363.55 183.01 362.56 182.34 C 360.15 180.85 357.87 179.15 355.46 177.66 C 354.95 177.43 353.93 176.98 353.42 176.75 C 352.47 176.26 351.52 175.77 350.57 175.29 C 348.22 173.98 345.99 172.48 343.59 171.28 C 341.45 170.24 339.48 168.91 337.43 167.73 C 335.75 166.74 334.12 165.69 332.43 164.72 C 330.77 163.69 329.12 162.65 327.44 161.67 C 326.93 161.44 325.92 160.98 325.41 160.74 C 322.98 159.59 320.72 158.13 318.44 156.72 C 315.59 155.34 313.17 153.25 310.43 151.68 C 307.10 149.96 303.61 148.50 300.54 146.32 C 299.18 145.44 297.84 144.53 296.44 143.74 C 294.71 142.82 293.09 141.72 291.42 140.71 C 288.36 139.14 285.60 137.04 282.39 135.77 C 280.41 134.65 278.52 133.39 276.55 132.27 C 275.15 131.45 273.81 130.53 272.44 129.69 C 269.23 128.40 266.53 126.19 263.42 124.72 C 262.47 124.23 261.52 123.74 260.58 123.25 C 260.07 123.02 259.05 122.56 258.54 122.33 C 257.17 121.46 255.84 120.53 254.43 119.73 C 253.03 119.07 251.72 118.23 250.56 117.22 C 247.61 116.20 244.65 115.08 241.53 114.74 C 239.02 113.67 235.94 113.50 233.47 114.75 Z" />
<path fill="#ffffff" stroke="#ffffff" stroke-width="0.09375" opacity="1.00" d=" M 1225.95 174.18 C 1243.29 170.99 1262.16 170.80 1278.29 178.81 C 1284.01 181.54 1289.40 184.91 1294.46 188.72 C 1296.37 190.06 1298.39 191.75 1300.90 191.58 C 1303.20 191.21 1304.24 188.88 1304.99 186.94 C 1306.20 183.41 1306.52 179.66 1307.14 176.00 C 1309.18 176.00 1311.22 176.00 1313.29 176.00 C 1312.52 197.33 1312.33 218.68 1312.29 240.03 C 1310.20 240.03 1308.14 240.03 1306.08 240.03 C 1303.96 227.94 1303.07 215.14 1296.71 204.33 C 1293.15 198.04 1287.55 193.35 1282.02 188.87 C 1272.65 181.88 1260.65 178.82 1249.06 179.71 C 1237.71 180.13 1227.03 186.22 1220.17 195.16 C 1207.44 210.90 1203.38 231.52 1201.24 251.14 C 1199.61 273.19 1200.33 295.73 1206.64 317.06 C 1209.99 328.51 1215.48 339.55 1223.91 348.12 C 1240.20 365.19 1270.15 363.61 1286.40 347.31 C 1291.45 343.34 1295.71 338.31 1298.37 332.43 C 1303.67 321.09 1304.18 308.38 1306.16 296.22 C 1308.17 296.23 1310.19 296.23 1312.22 296.22 C 1312.41 318.48 1312.46 340.76 1313.30 363.00 C 1311.22 363.00 1309.17 363.00 1307.12 363.00 C 1306.11 357.95 1306.59 351.89 1302.60 348.05 C 1300.15 347.06 1297.61 348.25 1295.59 349.61 C 1288.10 354.65 1280.51 359.79 1271.90 362.74 C 1259.21 367.32 1245.40 367.72 1232.13 366.04 C 1211.37 363.89 1190.81 355.10 1176.62 339.49 C 1162.78 324.56 1155.43 304.50 1153.73 284.41 C 1151.14 259.13 1155.57 232.34 1170.00 211.02 C 1182.63 191.80 1203.43 178.47 1225.95 174.18 Z" />
<path fill="#ffffff" stroke="#ffffff" stroke-width="0.09375" opacity="1.00" d=" M 425.04 176.03 C 470.02 177.11 515.02 176.80 560.01 176.01 C 559.85 178.18 560.42 180.52 559.52 182.57 C 529.11 240.72 498.60 298.82 468.25 356.99 C 484.76 356.04 502.04 359.19 517.83 352.91 C 530.70 348.18 540.59 337.37 546.15 325.05 C 549.76 316.95 551.65 308.18 552.53 299.38 C 554.68 299.33 556.83 299.33 558.99 299.34 C 557.47 320.54 557.99 341.86 560.07 362.99 C 514.39 362.19 468.70 362.28 423.02 363.01 C 423.19 360.89 422.58 358.57 423.58 356.61 C 454.09 298.47 484.64 240.35 515.12 182.20 C 502.08 182.60 488.99 181.59 475.99 182.95 C 462.84 184.60 449.90 191.52 442.86 203.01 C 436.66 213.07 433.99 224.86 432.64 236.47 C 430.46 236.49 428.28 236.49 426.11 236.47 C 428.21 216.36 426.54 196.11 425.04 176.03 Z" />
<path fill="#ffffff" stroke="#ffffff" stroke-width="0.09375" opacity="1.00" d=" M 1538.81 202.85 C 1551.43 198.76 1564.91 198.05 1578.08 199.12 C 1588.52 200.18 1598.42 204.28 1607.37 209.63 C 1609.86 210.96 1612.73 212.86 1615.67 211.80 C 1618.97 209.14 1618.64 204.39 1619.78 200.68 C 1621.68 199.91 1623.94 200.49 1626.01 200.35 C 1624.82 218.78 1624.92 237.24 1624.82 255.70 C 1622.67 255.74 1620.52 255.73 1618.40 255.69 C 1616.64 239.37 1610.26 222.33 1596.52 212.40 C 1586.89 205.48 1574.43 203.72 1562.90 205.35 C 1555.69 206.60 1548.11 209.76 1544.19 216.28 C 1541.53 220.35 1541.39 225.44 1542.13 230.09 C 1543.82 237.82 1549.99 243.42 1555.90 248.17 C 1570.95 258.78 1587.36 267.24 1602.80 277.23 C 1611.13 282.60 1619.07 288.86 1624.92 296.95 C 1636.77 311.86 1636.26 335.88 1622.38 349.35 C 1614.08 357.88 1602.55 362.32 1591.10 364.70 C 1580.26 366.78 1569.09 367.60 1558.09 366.39 C 1547.19 365.42 1536.95 361.15 1527.14 356.56 C 1523.67 355.18 1519.82 352.40 1516.03 354.01 C 1513.15 356.80 1513.06 361.17 1512.49 364.89 C 1510.33 364.96 1508.18 364.96 1506.05 364.96 C 1507.19 343.40 1507.01 321.82 1507.10 300.25 C 1509.22 300.23 1511.36 300.23 1513.50 300.31 C 1514.45 317.54 1519.27 335.70 1531.89 348.16 C 1542.79 358.78 1559.05 361.93 1573.73 359.80 C 1580.53 358.47 1587.34 355.30 1591.42 349.49 C 1595.10 344.53 1595.69 338.02 1594.85 332.08 C 1593.28 324.07 1587.19 317.94 1580.93 313.17 C 1566.71 302.57 1550.44 295.18 1536.00 284.91 C 1526.61 278.48 1517.98 270.57 1512.22 260.67 C 1504.63 247.18 1505.63 228.78 1516.10 217.06 C 1522.04 210.18 1530.22 205.59 1538.81 202.85 Z" />
<path fill="#ffffff" stroke="#ffffff" stroke-width="0.09375" opacity="1.00" d=" M 852.16 202.29 C 862.07 203.24 872.04 203.03 881.99 203.08 C 889.87 203.03 897.78 203.25 905.63 202.31 C 905.64 204.13 905.66 205.95 905.67 207.77 C 899.82 209.00 892.86 209.90 889.34 215.38 C 885.86 221.27 885.94 228.41 885.83 235.03 C 885.75 277.92 885.89 320.81 885.76 363.70 C 881.00 363.62 876.25 363.64 871.50 363.68 C 836.40 319.94 801.16 276.32 766.00 232.63 C 765.99 263.09 766.00 293.56 765.99 324.02 C 765.83 330.18 766.20 336.38 767.37 342.44 C 768.28 346.87 770.92 351.03 774.98 353.19 C 780.59 356.17 787.05 356.84 793.27 357.54 C 793.26 359.36 793.25 361.19 793.25 363.02 C 775.52 362.46 757.77 362.05 740.05 363.03 C 740.02 361.21 739.99 359.39 739.98 357.58 C 744.79 356.79 749.99 356.02 753.87 352.80 C 757.83 349.39 758.90 343.87 759.21 338.91 C 759.80 332.64 759.80 326.34 759.76 320.05 C 759.73 289.43 759.83 258.80 759.71 228.17 C 759.24 222.95 759.72 217.09 756.38 212.69 C 752.35 208.10 745.58 208.49 740.01 207.87 C 740.02 206.01 740.01 204.15 740.04 202.30 C 747.98 203.29 756.00 203.01 763.98 203.08 C 774.39 203.00 784.83 203.28 795.20 202.23 C 823.35 236.88 851.22 271.75 879.26 306.49 C 879.19 282.34 879.33 258.19 879.19 234.04 C 879.04 226.88 878.41 218.41 872.30 213.65 C 866.47 209.34 858.95 208.96 852.06 207.79 C 852.08 205.96 852.10 204.12 852.16 202.29 Z" />
<path fill="#ffffff" stroke="#ffffff" stroke-width="0.09375" opacity="1.00" d=" M 1352.14 318.15 C 1369.09 279.43 1385.91 240.65 1402.95 201.97 C 1407.06 202.45 1411.63 201.58 1415.48 202.38 C 1435.10 245.52 1454.55 288.75 1474.11 331.92 C 1477.22 338.62 1479.86 345.70 1484.59 351.47 C 1487.10 354.65 1490.59 357.23 1494.74 357.60 C 1494.79 359.40 1494.81 361.20 1494.84 363.01 C 1469.28 362.15 1443.70 362.35 1418.13 363.01 C 1418.13 361.18 1418.15 359.36 1418.22 357.54 C 1423.17 357.12 1428.66 357.00 1432.72 353.76 C 1436.69 350.07 1435.11 343.98 1433.51 339.51 C 1428.77 328.18 1423.72 316.97 1418.78 305.73 C 1400.30 305.82 1381.81 305.68 1363.33 305.80 C 1359.49 315.01 1355.09 324.15 1353.46 334.08 C 1352.32 340.07 1352.60 347.25 1357.29 351.72 C 1362.47 356.08 1369.50 356.99 1376.01 357.56 C 1375.97 359.37 1375.96 361.19 1375.97 363.01 C 1358.64 362.74 1341.30 361.89 1323.99 363.03 C 1323.98 361.19 1324.00 359.36 1324.04 357.53 C 1329.73 356.37 1334.13 352.12 1337.34 347.49 C 1343.64 338.46 1347.73 328.17 1352.14 318.15 M 1365.87 300.06 C 1382.68 300.03 1399.49 300.06 1416.31 300.04 C 1408.06 280.97 1399.51 262.03 1391.36 242.91 C 1382.47 261.78 1374.52 281.08 1365.87 300.06 Z" />
<path fill="#ffffff" stroke="#ffffff" stroke-width="0.09375" opacity="1.00" d=" M 579.84 202.27 C 608.20 203.41 636.58 202.95 664.94 203.08 C 681.39 202.94 697.85 203.40 714.27 202.26 C 712.93 218.40 712.01 234.64 713.25 250.82 C 711.21 250.83 709.18 250.84 707.17 250.87 C 704.72 239.65 701.99 227.74 693.94 219.06 C 687.46 211.83 677.46 208.80 668.00 208.84 C 662.31 208.83 656.63 208.68 650.96 209.00 C 647.71 209.33 644.07 210.37 642.35 213.40 C 640.41 216.92 640.46 221.09 640.20 224.99 C 640.15 243.11 640.19 261.23 640.18 279.35 C 648.70 278.93 658.22 280.97 665.72 275.79 C 673.52 269.96 676.82 260.09 679.10 251.00 C 681.17 251.01 683.24 251.01 685.33 251.01 C 684.25 265.65 684.57 280.34 684.94 295.00 C 684.92 301.22 686.08 307.37 686.02 313.60 C 683.98 313.61 681.95 313.62 679.93 313.64 C 678.16 304.48 674.94 294.58 667.00 288.94 C 659.08 283.61 649.17 285.22 640.18 284.98 C 640.18 301.99 640.19 319.00 640.17 336.01 C 640.27 341.28 639.93 346.89 642.17 351.79 C 644.59 356.44 650.46 356.43 654.99 356.80 C 664.00 356.90 673.20 357.38 681.99 355.03 C 688.88 353.19 695.25 349.22 699.59 343.51 C 707.20 333.77 710.21 321.41 712.28 309.46 C 714.41 309.39 716.53 309.38 718.67 309.41 C 717.08 327.24 717.95 345.23 719.77 363.01 C 673.13 362.00 626.47 362.48 579.83 363.00 C 579.81 361.19 579.80 359.37 579.80 357.57 C 585.13 356.96 591.34 357.42 595.59 353.55 C 599.62 349.06 599.07 342.57 599.36 336.97 C 599.41 300.98 599.40 264.98 599.37 228.99 C 599.09 223.34 599.61 216.88 595.78 212.23 C 591.59 208.19 585.22 208.48 579.83 207.88 C 579.82 206.01 579.81 204.14 579.84 202.27 Z" />
<path fill="#ffffff" stroke="#ffffff" stroke-width="0.09375" opacity="1.00" d=" M 919.00 202.33 C 945.30 203.36 971.62 202.97 997.93 203.08 C 1023.97 202.97 1050.02 203.35 1076.04 202.33 C 1074.21 222.10 1073.08 242.03 1074.97 261.85 C 1072.84 261.77 1070.60 262.24 1068.57 261.59 C 1066.19 249.78 1063.61 237.79 1058.07 226.99 C 1054.33 219.73 1048.23 213.34 1040.28 210.85 C 1033.10 208.27 1025.40 208.87 1017.91 208.81 C 1017.94 251.54 1017.86 294.27 1017.95 337.00 C 1018.30 342.95 1018.90 350.16 1024.39 353.75 C 1030.44 357.37 1037.79 356.99 1044.58 357.55 C 1044.61 359.36 1044.62 361.18 1044.65 363.00 C 1013.25 362.26 981.83 362.20 950.43 362.99 C 950.43 361.18 950.45 359.37 950.48 357.57 C 957.25 356.97 964.58 357.38 970.63 353.77 C 976.14 350.19 976.78 342.93 977.08 336.98 C 977.19 294.25 977.09 251.53 977.13 208.81 C 968.19 208.75 958.73 208.27 950.60 212.63 C 943.16 216.38 938.23 223.61 935.02 231.08 C 930.88 240.91 928.44 251.37 926.62 261.85 C 924.46 261.89 922.31 261.89 920.17 261.84 C 921.95 242.03 920.91 222.08 919.00 202.33 Z" />
<path fill="#ffffff" stroke="#ffffff" stroke-width="0.09375" opacity="1.00" d=" M 1652.84 202.26 C 1664.88 203.33 1676.97 202.98 1689.04 203.08 C 1703.68 203.00 1718.34 203.33 1732.96 202.30 C 1732.93 204.16 1732.96 206.02 1732.98 207.88 C 1727.73 208.38 1721.80 208.21 1717.47 211.62 C 1713.29 215.54 1713.79 221.75 1713.27 226.98 C 1713.06 244.09 1713.24 261.20 1713.18 278.31 C 1735.72 278.31 1758.27 278.31 1780.82 278.31 C 1780.81 262.52 1780.82 246.73 1780.82 230.94 C 1780.82 226.94 1780.44 222.96 1779.98 218.99 C 1779.44 215.03 1777.13 210.99 1773.12 209.75 C 1769.21 208.50 1765.07 208.11 1761.00 207.88 C 1760.99 206.01 1760.97 204.14 1761.01 202.27 C 1775.31 203.36 1789.65 202.98 1803.98 203.08 C 1816.38 202.96 1828.80 203.36 1841.18 202.26 C 1841.16 204.13 1841.19 206.01 1841.20 207.88 C 1835.59 208.53 1828.69 208.08 1824.65 212.76 C 1821.25 217.42 1821.81 223.50 1821.46 228.96 C 1821.41 260.65 1821.45 292.34 1821.44 324.03 C 1821.47 331.40 1821.20 338.80 1822.08 346.14 C 1822.64 349.46 1823.98 353.05 1827.07 354.82 C 1831.37 357.24 1836.45 357.07 1841.23 357.57 C 1841.19 359.38 1841.18 361.20 1841.19 363.02 C 1814.47 362.17 1787.74 362.32 1761.02 363.01 C 1760.98 361.19 1760.96 359.38 1760.95 357.57 C 1766.25 356.97 1772.37 357.39 1776.67 353.66 C 1780.69 349.50 1780.22 343.29 1780.74 337.96 C 1780.92 319.97 1780.77 301.97 1780.82 283.98 C 1758.27 283.98 1735.72 283.98 1713.18 283.98 C 1713.18 300.98 1713.18 317.97 1713.18 334.97 C 1713.58 340.90 1712.95 347.50 1716.43 352.65 C 1720.39 357.43 1727.30 356.98 1732.91 357.50 C 1732.94 359.34 1732.95 361.17 1732.99 363.01 C 1706.27 362.32 1679.55 362.17 1652.84 363.01 C 1652.80 361.20 1652.78 359.39 1652.79 357.58 C 1658.11 356.95 1664.29 357.42 1668.56 353.58 C 1672.62 349.10 1672.07 342.59 1672.36 336.98 C 1672.43 308.31 1672.37 279.65 1672.39 250.98 C 1672.26 240.96 1672.70 230.92 1671.99 220.92 C 1671.53 216.73 1670.06 211.88 1665.81 210.12 C 1661.70 208.47 1657.18 208.18 1652.83 207.88 C 1652.81 206.01 1652.79 204.13 1652.84 202.26 Z" />
</g>
<g id="#3d3d3dff">
<path fill="#3d3d3d" stroke="#3d3d3d" stroke-width="0.09375" opacity="1.00" d=" M 233.47 114.75 C 235.94 113.50 239.02 113.67 241.53 114.74 C 244.65 115.08 247.61 116.20 250.56 117.22 C 251.72 118.23 253.03 119.07 254.43 119.73 C 255.84 120.53 257.17 121.46 258.54 122.33 C 259.05 122.56 260.07 123.02 260.58 123.25 C 261.52 123.74 262.47 124.23 263.42 124.72 C 266.53 126.19 269.23 128.40 272.44 129.69 C 273.81 130.53 275.15 131.45 276.55 132.27 C 278.52 133.39 280.41 134.65 282.39 135.77 C 285.60 137.04 288.36 139.14 291.42 140.71 C 293.09 141.72 294.71 142.82 296.44 143.74 C 297.84 144.53 299.18 145.44 300.54 146.32 C 303.61 148.50 307.10 149.96 310.43 151.68 C 313.17 153.25 315.59 155.34 318.44 156.72 C 320.72 158.13 322.98 159.59 325.41 160.74 C 325.92 160.98 326.93 161.44 327.44 161.67 C 329.12 162.65 330.77 163.69 332.43 164.72 C 334.12 165.69 335.75 166.74 337.43 167.73 C 339.48 168.91 341.45 170.24 343.59 171.28 C 345.99 172.48 348.22 173.98 350.57 175.29 C 351.52 175.77 352.47 176.26 353.42 176.75 C 353.93 176.98 354.95 177.43 355.46 177.66 C 357.87 179.15 360.15 180.85 362.56 182.34 C 363.55 183.01 364.55 183.68 365.58 184.31 C 369.92 187.06 373.18 191.46 374.36 196.47 C 375.32 198.87 374.97 201.49 375.02 204.00 C 374.98 226.53 375.01 249.06 375.00 271.59 C 374.69 271.02 374.07 269.87 373.76 269.29 C 367.74 266.63 362.34 262.80 356.67 259.49 C 302.30 227.11 247.98 194.65 193.58 162.33 C 186.84 158.16 179.86 154.38 172.97 150.46 C 173.01 150.05 173.08 149.24 173.12 148.83 C 177.64 145.36 182.80 142.83 187.56 139.69 C 188.52 139.23 189.49 138.77 190.45 138.30 C 191.83 137.45 193.16 136.54 194.57 135.73 C 196.59 134.69 198.46 133.39 200.44 132.27 C 203.20 130.76 205.59 128.65 208.43 127.27 C 210.10 126.28 211.70 125.19 213.41 124.25 C 215.15 123.37 216.81 122.33 218.46 121.28 C 220.53 120.05 222.56 118.73 224.44 117.22 C 227.38 116.18 230.32 115.00 233.47 114.75 M 231.45 134.64 C 228.57 135.32 225.96 136.71 223.47 138.27 C 221.86 139.39 220.17 140.38 218.44 141.27 C 217.13 142.08 215.84 142.89 214.55 143.71 C 211.52 145.56 208.48 147.40 205.49 149.31 C 204.85 149.63 203.58 150.27 202.95 150.60 C 204.89 151.41 206.75 152.45 208.46 153.69 C 210.08 154.76 211.72 155.81 213.43 156.74 C 215.12 157.71 216.75 158.76 218.43 159.74 C 220.51 160.86 222.50 162.12 224.57 163.26 C 226.25 164.24 227.88 165.28 229.56 166.25 C 231.26 167.20 232.89 168.25 234.56 169.26 C 236.54 170.37 238.42 171.65 240.43 172.73 C 242.09 173.74 243.73 174.80 245.44 175.74 C 247.10 176.74 248.73 177.80 250.43 178.74 C 252.48 179.90 254.46 181.18 256.56 182.26 C 258.23 183.25 259.87 184.30 261.56 185.25 C 263.26 186.19 264.89 187.25 266.55 188.26 C 268.25 189.21 269.89 190.26 271.56 191.26 C 273.27 192.19 274.90 193.25 276.56 194.27 C 278.57 195.33 280.44 196.62 282.41 197.74 C 284.51 198.85 286.50 200.13 288.59 201.26 C 290.56 202.39 292.43 203.67 294.44 204.74 C 295.82 205.56 297.17 206.44 298.56 207.25 C 300.57 208.33 302.43 209.67 304.45 210.75 C 305.83 211.55 307.17 212.44 308.55 213.26 C 310.54 214.37 312.44 215.63 314.43 216.74 C 316.50 217.88 318.49 219.14 320.57 220.27 C 322.23 221.25 323.87 222.28 325.55 223.26 C 327.23 224.24 328.88 225.28 330.57 226.26 C 332.27 227.19 333.90 228.23 335.53 229.29 C 337.17 230.34 338.84 231.34 340.57 232.26 C 342.24 233.25 343.87 234.31 345.57 235.27 C 347.96 236.50 350.15 238.09 352.58 239.25 C 355.06 240.58 357.22 242.50 359.98 243.28 C 360.00 233.53 360.01 223.77 360.00 214.02 C 359.50 210.45 358.94 206.84 357.90 203.38 C 355.58 199.06 351.44 196.31 347.48 193.67 C 345.87 192.56 344.18 191.57 342.41 190.74 C 340.04 189.48 337.86 187.88 335.42 186.75 C 333.42 185.66 331.57 184.34 329.59 183.24 C 326.72 182.00 324.32 179.90 321.40 178.77 C 319.73 177.78 318.11 176.71 316.44 175.74 C 314.43 174.67 312.57 173.34 310.58 172.26 C 308.50 171.12 306.51 169.83 304.43 168.72 C 302.01 167.55 299.78 166.05 297.45 164.74 C 295.76 163.76 294.11 162.72 292.44 161.72 C 290.51 160.53 288.58 159.32 286.58 158.25 C 284.10 157.16 281.86 155.66 279.55 154.27 C 277.87 153.29 276.24 152.24 274.57 151.26 C 271.76 149.90 269.32 147.90 266.39 146.78 C 264.43 145.64 262.58 144.34 260.60 143.25 C 258.13 142.16 255.95 140.55 253.61 139.23 C 252.24 138.61 250.90 137.96 249.56 137.30 C 248.19 136.61 246.83 135.90 245.50 135.15 C 245.02 135.06 244.06 134.88 243.58 134.78 C 239.77 133.48 235.32 133.59 231.45 134.64 Z" />
</g>
<g id="#949493ff">
<path fill="#949493" stroke="#949493" stroke-width="0.09375" opacity="1.00" d=" M 136.11 170.17 C 138.69 168.94 140.69 166.17 143.74 166.21 C 147.65 168.70 151.44 171.40 155.47 173.72 C 158.16 175.37 160.69 177.28 163.49 178.76 C 165.87 180.19 168.15 181.80 170.52 183.28 C 184.93 192.26 199.04 201.70 213.46 210.68 C 216.13 212.36 218.67 214.26 221.46 215.75 C 222.86 216.57 224.21 217.47 225.59 218.33 C 232.62 222.68 239.43 227.37 246.47 231.71 C 247.81 232.55 249.14 233.42 250.50 234.24 C 254.66 236.48 258.32 239.51 262.48 241.74 C 264.89 243.21 267.20 244.82 269.57 246.35 C 271.85 247.79 274.15 249.21 276.43 250.66 C 278.80 252.18 281.10 253.79 283.51 255.24 C 292.32 260.50 300.73 266.42 309.49 271.75 C 310.86 272.57 312.19 273.45 313.55 274.30 C 320.61 278.62 327.37 283.39 334.44 287.70 C 335.81 288.54 337.16 289.43 338.55 290.26 C 343.65 293.20 348.35 296.78 353.45 299.72 C 354.82 300.55 356.15 301.43 357.51 302.29 C 359.16 303.34 360.84 304.34 362.57 305.27 C 364.27 306.25 365.94 307.30 367.63 308.32 C 370.12 309.95 372.61 311.58 374.96 313.42 C 374.96 323.26 375.20 333.12 374.83 342.95 C 373.28 347.14 370.21 350.88 366.64 353.56 C 356.05 359.62 345.84 366.30 335.17 372.18 C 330.89 374.50 327.09 377.63 322.65 379.67 C 313.53 384.39 305.21 390.52 295.98 395.08 C 286.79 400.68 277.49 406.04 268.03 411.18 C 260.89 415.72 253.37 419.77 245.45 422.77 C 241.80 423.25 237.92 425.06 234.36 423.29 C 232.06 422.89 229.76 422.44 227.53 421.72 C 226.53 421.37 225.52 421.05 224.51 420.75 C 219.98 418.65 215.91 415.72 211.59 413.26 C 195.44 402.98 178.73 393.62 162.36 383.71 C 156.65 380.93 151.28 377.53 145.99 374.04 C 134.60 368.37 123.86 361.48 112.82 355.18 C 108.92 351.33 104.18 347.86 102.27 342.50 C 101.94 341.46 101.59 340.42 101.23 339.39 C 100.98 336.24 100.05 333.18 99.97 330.02 C 100.09 297.32 99.88 264.61 100.08 231.91 C 101.85 221.35 100.58 210.60 101.07 199.95 C 101.26 196.05 103.30 192.61 105.42 189.45 C 115.03 182.09 125.54 176.04 136.11 170.17 M 138.54 185.56 C 137.20 186.50 135.87 187.46 134.47 188.32 C 133.20 189.17 131.90 189.97 130.58 190.73 C 128.06 192.08 125.86 193.95 123.34 195.28 C 117.92 199.02 116.01 205.67 115.99 211.95 C 116.02 231.97 115.99 251.99 116.01 272.01 C 116.00 275.37 114.88 278.62 114.98 281.99 C 115.01 293.99 115.02 305.99 114.98 317.98 C 114.79 320.73 115.99 323.31 115.97 326.04 C 116.03 327.87 115.94 329.77 116.69 331.50 C 117.15 333.19 117.65 334.87 118.14 336.55 C 119.01 337.48 119.88 338.41 120.73 339.36 C 121.30 341.27 122.86 342.47 124.61 343.27 C 125.81 344.42 127.05 345.56 128.57 346.29 C 130.24 347.28 131.87 348.35 133.60 349.26 C 135.31 350.18 136.91 351.30 138.58 352.30 C 141.69 353.75 144.40 355.97 147.61 357.23 C 149.58 358.33 151.40 359.68 153.40 360.75 C 155.55 361.76 157.53 363.09 159.56 364.31 C 160.52 364.76 161.48 365.22 162.44 365.69 C 164.08 366.72 165.69 367.81 167.40 368.74 C 169.50 369.85 171.47 371.19 173.59 372.26 C 175.55 373.39 177.40 374.69 179.42 375.73 C 180.82 376.54 182.17 377.45 183.57 378.27 C 185.24 379.26 186.87 380.34 188.59 381.26 C 190.99 382.49 193.05 384.32 195.62 385.23 C 197.29 386.20 198.89 387.28 200.54 388.31 C 201.82 389.13 203.12 389.92 204.42 390.73 C 205.81 391.55 207.17 392.44 208.57 393.26 C 210.24 394.26 211.88 395.31 213.56 396.28 C 214.85 397.08 216.15 397.88 217.45 398.70 C 219.44 399.97 221.40 401.34 223.58 402.30 C 224.08 402.54 225.07 403.04 225.57 403.28 C 231.24 406.43 238.34 406.79 244.52 405.34 C 245.91 404.90 247.27 404.35 248.62 403.78 C 250.85 402.54 253.16 401.48 255.43 400.31 C 257.11 399.34 258.75 398.29 260.39 397.24 C 262.15 396.47 263.88 395.62 265.61 394.77 C 267.25 393.73 268.88 392.69 270.55 391.69 C 272.39 390.37 274.36 389.25 276.41 388.28 C 278.89 387.19 281.04 385.52 283.43 384.27 C 284.82 383.45 286.16 382.54 287.57 381.74 C 289.30 380.82 290.92 379.71 292.59 378.69 C 295.71 377.26 298.46 375.16 301.57 373.71 C 302.21 373.40 303.51 372.80 304.15 372.49 C 304.20 372.46 304.30 372.38 304.35 372.34 C 306.94 370.52 309.69 368.91 312.40 367.27 C 314.45 366.07 316.42 364.72 318.60 363.73 C 320.58 362.65 322.49 361.42 324.44 360.28 C 325.82 359.45 327.16 358.54 328.57 357.74 C 330.60 356.72 332.38 355.28 334.43 354.27 C 336.11 353.31 337.69 352.19 339.40 351.26 C 341.50 350.17 343.47 348.82 345.58 347.72 C 346.88 346.93 348.18 346.12 349.46 345.29 C 351.68 343.95 353.91 342.56 355.76 340.72 C 356.45 339.18 357.47 337.82 358.44 336.45 C 359.71 331.23 358.67 325.71 359.00 320.38 C 357.09 319.50 355.40 318.25 353.57 317.26 C 352.17 316.45 350.83 315.55 349.45 314.73 C 346.65 313.25 344.16 311.28 341.42 309.72 C 340.10 308.95 338.80 308.15 337.55 307.30 C 336.16 306.46 334.82 305.55 333.44 304.73 C 332.13 303.92 330.82 303.12 329.54 302.29 C 328.16 301.44 326.83 300.54 325.45 299.71 C 324.16 298.88 322.85 298.08 321.56 297.27 C 320.17 296.43 318.83 295.53 317.46 294.69 C 316.19 293.84 314.89 293.04 313.58 292.27 C 312.56 291.64 311.55 290.99 310.56 290.33 C 308.90 289.30 307.28 288.21 305.58 287.27 C 303.08 285.93 300.91 284.07 298.41 282.73 C 296.70 281.82 295.10 280.71 293.43 279.72 C 290.63 278.27 288.16 276.26 285.41 274.72 C 284.10 273.95 282.80 273.15 281.55 272.31 C 280.17 271.46 278.82 270.55 277.44 269.73 C 276.14 268.92 274.84 268.12 273.56 267.29 C 272.17 266.45 270.84 265.54 269.46 264.71 C 268.18 263.87 266.88 263.07 265.58 262.27 C 264.18 261.43 262.83 260.52 261.44 259.68 C 260.44 259.01 259.44 258.36 258.42 257.74 C 257.11 256.96 255.81 256.16 254.54 255.31 C 253.16 254.46 251.82 253.56 250.44 252.73 C 249.14 251.92 247.83 251.12 246.55 250.29 C 245.17 249.44 243.83 248.53 242.43 247.73 C 239.29 246.22 236.71 243.78 233.56 242.27 C 232.16 241.46 230.83 240.55 229.45 239.72 C 228.14 238.91 226.83 238.12 225.54 237.29 C 224.17 236.44 222.84 235.54 221.46 234.71 C 220.18 233.87 218.89 233.08 217.60 232.27 C 216.19 231.43 214.83 230.52 213.43 229.68 C 212.44 229.00 211.44 228.35 210.42 227.73 C 209.11 226.95 207.81 226.15 206.54 225.31 C 205.16 224.46 203.83 223.55 202.44 222.72 C 201.15 221.91 199.85 221.11 198.57 220.29 C 197.18 219.45 195.84 218.54 194.46 217.70 C 193.18 216.85 191.88 216.05 190.57 215.28 C 189.17 214.46 187.82 213.55 186.46 212.68 C 185.21 211.79 183.90 211.00 182.57 210.26 C 181.16 209.45 179.83 208.54 178.43 207.73 C 175.60 206.32 173.19 204.23 170.42 202.73 C 169.09 201.99 167.79 201.19 166.55 200.31 C 165.16 199.46 163.80 198.56 162.41 197.73 C 161.11 196.93 159.81 196.14 158.55 195.30 C 157.17 194.45 155.83 193.54 154.44 192.71 C 153.15 191.88 151.85 191.09 150.56 190.27 C 149.18 189.43 147.83 188.53 146.44 187.72 C 145.11 186.81 143.77 185.92 142.50 184.95 C 141.16 185.00 139.80 185.05 138.54 185.56 Z" />
</g>
<g id="#565656ff">
<path fill="#565656" stroke="#565656" stroke-width="0.09375" opacity="1.00" d=" M 304.15 372.49 C 304.20 372.46 304.30 372.38 304.35 372.34 C 304.30 372.38 304.20 372.46 304.15 372.49 Z" />
</g>
</svg>
