<?xml version="1.0" encoding="UTF-8" ?>
<!DOCTYPE svg PUBLIC "-//W3C//DTD SVG 1.1//EN" "http://www.w3.org/Graphics/SVG/1.1/DTD/svg11.dtd">
<svg width="1921pt" height="537pt" viewBox="0 0 1921 537" version="1.1" xmlns="http://www.w3.org/2000/svg">
<g id="#fcfcfcfe">
<path fill="#fcfcfc" stroke="#fcfcfc" stroke-width="0.09375" opacity="1.00" d=" M 228.57 99.10 C 235.20 98.88 242.12 97.74 248.52 99.82 C 249.01 99.91 249.98 100.10 250.47 100.19 C 252.17 100.91 253.93 101.49 255.62 102.24 C 257.88 103.39 260.15 104.53 262.42 105.67 C 263.85 106.48 265.14 107.51 266.57 108.33 C 267.91 108.97 269.25 109.64 270.61 110.28 C 273.38 111.44 275.75 113.30 278.38 114.72 C 280.53 115.79 282.48 117.21 284.62 118.29 C 286.32 119.22 287.92 120.33 289.63 121.27 C 292.55 123.07 295.43 124.96 298.63 126.26 C 300.57 127.38 302.47 128.58 304.42 129.70 C 305.86 130.48 307.13 131.53 308.59 132.29 C 310.37 133.10 311.89 134.34 313.56 135.33 C 314.52 135.78 315.47 136.23 316.43 136.68 C 318.49 137.87 320.45 139.27 322.63 140.28 C 324.33 141.21 325.89 142.37 327.60 143.29 C 328.91 144.01 330.18 144.79 331.40 145.67 C 334.29 147.55 337.30 149.23 340.41 150.74 C 340.92 150.96 341.94 151.42 342.45 151.64 C 343.48 152.23 344.44 152.95 345.40 153.67 C 347.44 154.92 349.35 156.40 351.60 157.28 C 354.63 158.90 357.55 160.72 360.62 162.27 C 362.56 163.38 364.39 164.70 366.39 165.72 C 367.84 166.50 369.17 167.47 370.61 168.28 C 372.63 169.60 374.52 171.15 376.64 172.32 C 378.44 174.19 381.35 175.10 382.32 177.66 C 383.66 179.08 384.75 180.70 385.73 182.39 C 386.86 184.80 388.50 186.96 389.37 189.51 C 389.94 190.75 390.01 192.12 390.19 193.46 C 390.38 193.85 390.76 194.63 390.95 195.01 C 391.07 213.32 390.96 231.63 391.00 249.93 C 391.44 279.94 390.77 309.95 391.02 339.96 C 391.25 344.71 389.69 349.36 387.79 353.65 C 387.07 354.96 386.25 356.21 385.33 357.40 C 384.14 359.74 382.06 361.43 380.30 363.33 C 379.46 364.16 378.59 364.96 377.71 365.75 C 376.52 366.10 375.58 366.92 374.62 367.67 C 372.91 368.62 371.30 369.74 369.60 370.71 C 367.88 371.62 366.29 372.75 364.60 373.71 C 362.89 374.63 361.32 375.77 359.63 376.72 C 357.58 377.96 355.61 379.35 353.40 380.28 C 351.38 381.27 349.40 382.34 347.60 383.68 C 345.88 384.60 344.25 385.66 342.61 386.69 C 340.50 387.82 338.55 389.21 336.42 390.29 C 334.11 391.67 331.84 393.15 329.39 394.27 C 327.39 395.29 325.50 396.50 323.60 397.69 C 320.21 399.60 317.13 402.04 313.62 403.74 C 312.26 404.36 310.92 405.02 309.58 405.67 C 308.16 406.50 306.85 407.51 305.44 408.35 C 304.93 408.57 303.91 409.01 303.40 409.23 C 301.74 410.27 300.10 411.36 298.39 412.32 C 297.43 413.03 296.47 413.75 295.41 414.33 C 292.07 415.99 288.94 418.02 285.61 419.70 C 283.25 421.01 280.98 422.46 278.59 423.69 C 277.14 424.48 275.82 425.48 274.39 426.30 C 272.49 427.50 270.59 428.70 268.60 429.75 C 268.10 429.99 267.11 430.47 266.61 430.71 C 264.88 431.57 263.16 432.47 261.39 433.28 C 259.80 434.10 258.18 434.89 256.62 435.76 C 255.23 436.29 253.85 436.82 252.46 437.31 C 251.49 437.68 250.50 438.02 249.51 438.33 C 243.75 440.26 237.65 440.21 231.64 439.89 C 229.37 438.78 226.76 438.70 224.41 437.78 C 222.73 437.11 221.04 436.50 219.40 435.76 C 218.08 435.03 216.75 434.35 215.40 433.71 C 213.14 432.55 210.86 431.43 208.59 430.32 C 207.13 429.54 205.75 428.64 204.36 427.77 C 202.18 426.15 199.86 424.75 197.57 423.29 C 195.26 421.93 193.04 420.42 190.60 419.31 C 188.92 418.32 187.37 417.12 185.60 416.30 C 184.14 415.53 182.86 414.47 181.40 413.70 C 180.04 413.06 178.78 412.26 177.61 411.34 C 176.16 410.51 174.83 409.52 173.40 408.69 C 170.94 407.58 168.66 406.16 166.41 404.68 C 165.91 404.44 164.92 403.97 164.42 403.73 C 163.47 403.25 162.52 402.78 161.57 402.32 C 160.51 401.77 159.55 401.03 158.61 400.31 C 157.19 399.48 155.87 398.47 154.40 397.72 C 151.75 396.31 149.35 394.47 146.59 393.26 C 146.08 393.03 145.07 392.57 144.56 392.34 C 143.14 391.51 141.84 390.50 140.40 389.72 C 138.36 388.75 136.64 387.24 134.60 386.28 C 132.30 384.87 129.98 383.53 127.60 382.28 C 126.52 381.77 125.45 381.22 124.37 380.74 C 122.02 379.43 119.75 377.98 117.38 376.72 C 115.70 375.74 114.12 374.62 112.41 373.71 C 110.74 372.70 109.12 371.60 107.39 370.71 C 106.02 370.09 104.77 369.27 103.61 368.33 C 101.39 367.36 99.93 365.35 98.23 363.74 C 95.16 360.48 91.37 357.72 89.69 353.42 C 88.50 351.18 87.59 348.82 86.70 346.45 C 85.98 345.26 86.00 343.86 85.81 342.55 C 84.24 340.34 85.29 337.47 85.01 334.97 C 85.30 331.56 83.77 328.35 83.98 324.96 C 84.04 310.60 83.94 296.24 84.03 281.88 C 86.22 267.01 84.11 251.94 84.98 237.00 C 85.02 224.99 85.00 212.99 84.99 200.99 C 84.89 199.46 85.28 198.00 85.74 196.57 C 86.30 194.62 85.52 192.39 86.71 190.61 C 87.33 189.25 87.91 187.86 88.23 186.40 C 88.99 185.45 89.76 184.50 90.29 183.41 C 93.48 178.08 98.34 173.88 103.59 170.66 C 104.56 169.96 105.54 169.27 106.59 168.70 C 107.86 167.89 109.15 167.11 110.37 166.23 C 112.00 165.18 113.65 164.15 115.39 163.29 C 117.55 162.26 119.50 160.85 121.58 159.69 C 124.07 158.62 126.35 157.18 128.60 155.68 C 130.17 154.53 131.84 153.53 133.61 152.73 C 135.99 151.47 138.15 149.85 140.59 148.72 C 143.02 147.54 145.27 146.06 147.60 144.71 C 148.56 143.98 149.53 143.26 150.60 142.69 C 153.21 141.25 155.70 139.60 158.40 138.31 C 160.72 136.95 163.00 135.50 165.40 134.26 C 165.90 134.03 166.92 133.57 167.42 133.34 C 168.85 132.51 170.18 131.54 171.60 130.69 C 172.55 129.96 173.52 129.24 174.58 128.67 C 177.37 127.54 179.73 125.66 182.39 124.29 C 183.53 123.85 184.44 123.02 185.39 122.27 C 187.65 121.40 189.56 119.92 191.61 118.67 C 192.56 117.94 193.49 117.18 194.61 116.71 C 196.36 115.87 197.91 114.68 199.57 113.68 C 200.52 113.22 201.47 112.77 202.42 112.31 C 204.14 111.43 205.81 110.43 207.38 109.29 C 209.16 108.14 210.75 106.73 212.57 105.65 C 214.53 104.59 216.53 103.59 218.58 102.70 C 220.15 101.89 221.75 101.07 223.50 100.67 C 225.14 99.97 227.03 100.08 228.57 99.10 M 233.39 114.72 C 230.28 115.04 227.34 116.10 224.44 117.21 C 223.47 117.96 222.48 118.69 221.46 119.38 C 220.45 120.03 219.45 120.67 218.42 121.29 C 216.49 122.47 214.58 123.68 212.57 124.73 C 210.90 125.72 209.29 126.81 207.58 127.72 C 205.13 129.15 202.86 130.85 200.43 132.29 C 198.72 133.23 197.09 134.30 195.40 135.27 C 193.05 136.58 190.85 138.15 188.41 139.28 C 186.39 140.30 184.45 141.48 182.57 142.73 C 180.93 143.77 179.31 144.85 177.59 145.75 C 176.00 146.66 174.50 147.71 172.92 148.63 L 172.92 148.66 C 170.39 149.84 168.16 151.57 165.59 152.70 C 162.41 154.36 159.72 156.84 156.41 158.30 C 153.93 159.38 151.64 160.80 149.43 162.35 C 148.92 162.57 147.89 163.02 147.38 163.24 C 146.05 164.07 144.31 164.58 143.68 166.19 C 139.47 166.84 136.33 170.56 132.45 172.28 C 129.34 173.77 126.46 175.68 123.39 177.25 C 117.39 181.32 111.08 184.94 105.36 189.43 C 104.35 191.14 103.31 192.83 102.20 194.48 C 101.41 197.25 100.82 200.09 100.96 202.99 C 101.15 211.12 100.75 219.27 101.18 227.39 L 100.79 227.27 C 99.41 228.61 99.44 231.11 100.20 232.77 C 99.90 239.99 99.85 247.26 100.16 254.49 C 99.90 259.17 99.89 263.87 100.18 268.56 C 99.73 288.71 100.17 308.89 99.96 329.05 C 99.82 332.59 100.93 336.00 101.24 339.50 C 101.59 340.50 101.93 341.51 102.26 342.53 C 103.33 344.76 104.33 347.12 106.24 348.78 C 108.99 351.30 111.27 354.39 114.51 356.31 C 116.93 357.54 119.18 359.05 121.59 360.28 C 123.28 361.23 124.91 362.27 126.57 363.26 C 128.54 364.37 130.44 365.59 132.39 366.73 C 135.26 367.99 137.73 369.96 140.55 371.31 C 145.19 373.19 149.12 376.32 153.45 378.75 C 155.44 380.00 157.43 381.27 159.56 382.28 C 162.00 383.40 164.29 384.81 166.56 386.26 C 168.25 387.20 169.89 388.25 171.54 389.28 C 173.47 390.48 175.41 391.66 177.41 392.73 C 179.56 393.72 181.57 394.99 183.56 396.26 C 188.92 399.29 194.04 402.74 199.43 405.73 C 200.81 406.55 202.16 407.44 203.55 408.25 C 206.33 409.74 208.85 411.66 211.56 413.28 C 215.89 415.71 219.93 418.66 224.46 420.74 C 225.48 421.05 226.49 421.38 227.50 421.73 C 229.75 422.42 232.05 422.93 234.37 423.32 C 238.35 425.06 242.66 423.31 246.58 422.26 C 247.06 422.15 248.03 421.94 248.51 421.83 C 249.85 421.10 251.20 420.40 252.57 419.71 C 254.57 418.71 256.56 417.71 258.58 416.75 C 263.67 414.16 268.32 410.80 273.45 408.28 C 276.11 406.68 278.74 404.99 281.60 403.75 C 285.29 401.72 288.68 399.19 292.44 397.28 C 295.04 395.57 297.73 393.95 300.62 392.77 C 302.55 391.57 304.46 390.34 306.46 389.26 C 307.84 388.44 309.18 387.55 310.54 386.69 C 312.17 385.61 313.85 384.63 315.59 383.73 C 318.19 382.23 320.70 380.56 323.43 379.28 C 327.01 377.70 329.98 375.08 333.43 373.25 C 335.10 372.27 336.72 371.21 338.39 370.24 C 344.43 367.55 349.59 363.31 355.44 360.27 C 356.82 359.44 358.17 358.57 359.56 357.75 C 361.25 356.79 362.89 355.73 364.58 354.76 C 369.39 352.53 372.23 347.82 374.97 343.52 C 374.99 333.47 375.06 323.43 374.97 313.39 C 375.00 299.36 375.07 285.33 374.94 271.31 C 375.10 248.55 374.93 225.79 375.02 203.03 C 375.00 200.83 375.20 198.56 374.38 196.47 C 373.11 190.02 368.04 185.41 362.56 182.31 C 360.14 180.83 357.84 179.17 355.46 177.65 C 354.95 177.42 353.93 176.97 353.43 176.74 C 352.47 176.26 351.52 175.78 350.57 175.30 C 348.53 174.07 346.53 172.78 344.41 171.72 C 342.02 170.49 339.75 169.04 337.43 167.71 C 335.78 166.69 334.14 165.66 332.46 164.71 C 330.80 163.67 329.14 162.63 327.44 161.66 C 326.93 161.44 325.91 160.99 325.39 160.76 C 323.00 159.52 320.73 158.07 318.40 156.73 C 315.62 155.24 313.11 153.31 310.43 151.67 C 307.09 149.97 303.70 148.35 300.55 146.33 C 299.17 145.47 297.84 144.54 296.43 143.73 C 294.71 142.81 293.09 141.72 291.42 140.73 C 288.80 139.26 286.28 137.62 283.61 136.25 C 283.10 136.02 282.07 135.56 281.56 135.34 C 279.90 134.30 278.27 133.22 276.56 132.27 C 275.16 131.45 273.82 130.52 272.42 129.70 C 269.28 128.30 266.50 126.23 263.44 124.68 C 262.94 124.44 261.93 123.97 261.43 123.74 C 260.47 123.25 259.51 122.77 258.55 122.30 C 257.16 121.46 255.83 120.53 254.42 119.74 C 253.04 119.05 251.74 118.21 250.56 117.22 C 247.64 116.09 244.65 115.10 241.54 114.71 C 238.99 113.63 235.93 113.59 233.39 114.72 Z" />
</g>
<g id="#5c3909fe">
<path fill="#5c3909" stroke="#5c3909" stroke-width="0.09375" opacity="1.00" d=" M 233.39 114.72 C 235.93 113.59 238.99 113.63 241.54 114.71 C 244.65 115.10 247.64 116.09 250.56 117.22 C 251.74 118.21 253.04 119.05 254.42 119.74 C 255.83 120.53 257.16 121.46 258.55 122.30 C 259.51 122.77 260.47 123.25 261.43 123.74 C 261.93 123.97 262.94 124.44 263.44 124.68 C 266.50 126.23 269.28 128.30 272.42 129.70 C 273.82 130.52 275.16 131.45 276.56 132.27 C 278.27 133.22 279.90 134.30 281.56 135.34 C 282.07 135.56 283.10 136.02 283.61 136.25 C 286.28 137.62 288.80 139.26 291.42 140.73 C 293.09 141.72 294.71 142.81 296.43 143.73 C 297.84 144.54 299.17 145.47 300.55 146.33 C 303.70 148.35 307.09 149.97 310.43 151.67 C 313.11 153.31 315.62 155.24 318.40 156.73 C 320.73 158.07 323.00 159.52 325.39 160.76 C 325.91 160.99 326.93 161.44 327.44 161.66 C 329.14 162.63 330.80 163.67 332.46 164.71 C 334.14 165.66 335.78 166.69 337.43 167.71 C 339.75 169.04 342.02 170.49 344.41 171.72 C 346.53 172.78 348.53 174.07 350.57 175.30 C 351.52 175.78 352.47 176.26 353.43 176.74 C 353.93 176.97 354.95 177.42 355.46 177.65 C 357.84 179.17 360.14 180.83 362.56 182.31 C 368.04 185.41 373.11 190.02 374.38 196.47 C 375.20 198.56 375.00 200.83 375.02 203.03 C 374.93 225.79 375.10 248.55 374.94 271.31 C 374.64 270.84 374.06 269.90 373.77 269.44 C 360.69 262.29 348.16 254.18 335.28 246.69 C 281.23 214.66 227.46 182.12 173.21 150.41 C 173.14 149.97 173.00 149.10 172.92 148.66 L 172.92 148.63 C 174.50 147.71 176.00 146.66 177.59 145.75 C 179.31 144.85 180.93 143.77 182.57 142.73 C 184.45 141.48 186.39 140.30 188.41 139.28 C 190.85 138.15 193.05 136.58 195.40 135.27 C 197.09 134.30 198.72 133.23 200.43 132.29 C 202.86 130.85 205.13 129.15 207.58 127.72 C 209.29 126.81 210.90 125.72 212.57 124.73 C 214.58 123.68 216.49 122.47 218.42 121.29 C 219.45 120.67 220.45 120.03 221.46 119.38 C 222.48 118.69 223.47 117.96 224.44 117.21 C 227.34 116.10 230.28 115.04 233.39 114.72 M 231.42 134.59 C 228.54 135.27 225.90 136.61 223.47 138.27 C 221.81 139.30 220.14 140.31 218.44 141.27 C 216.77 142.26 215.13 143.30 213.47 144.30 C 210.80 145.97 208.09 147.59 205.46 149.33 C 204.57 149.74 203.67 150.15 202.77 150.55 C 204.76 151.43 206.66 152.50 208.47 153.70 C 210.10 154.74 211.72 155.80 213.42 156.74 C 215.10 157.72 216.74 158.77 218.43 159.74 C 220.13 160.69 221.79 161.71 223.45 162.72 C 225.52 163.84 227.52 165.09 229.57 166.26 C 231.26 167.22 232.90 168.27 234.56 169.28 C 236.23 170.28 237.88 171.30 239.58 172.26 C 241.26 173.22 242.90 174.26 244.57 175.25 C 246.54 176.37 248.45 177.61 250.42 178.74 C 252.11 179.70 253.76 180.73 255.43 181.73 C 257.50 182.86 259.52 184.10 261.58 185.26 C 263.26 186.22 264.89 187.27 266.56 188.27 C 268.23 189.26 269.88 190.30 271.58 191.26 C 273.27 192.21 274.90 193.26 276.57 194.26 C 278.27 195.21 279.91 196.26 281.58 197.27 C 283.92 198.59 286.20 200.01 288.56 201.28 C 290.23 202.27 291.88 203.30 293.57 204.26 C 295.27 205.21 296.90 206.26 298.57 207.27 C 300.53 208.42 302.45 209.64 304.44 210.74 C 305.82 211.55 307.16 212.44 308.54 213.28 C 310.20 214.29 311.86 215.31 313.56 216.26 C 315.55 217.36 317.49 218.55 319.45 219.72 C 321.15 220.64 322.82 221.63 324.45 222.69 C 326.50 223.85 328.51 225.09 330.57 226.25 C 332.26 227.20 333.89 228.26 335.54 229.30 C 336.82 230.13 338.12 230.93 339.43 231.73 C 341.49 232.86 343.50 234.10 345.56 235.26 C 347.88 236.63 350.15 238.07 352.57 239.25 C 354.27 240.23 355.90 241.31 357.55 242.37 C 358.16 242.59 359.38 243.03 359.99 243.26 C 360.03 234.49 359.95 225.73 360.03 216.96 C 360.15 212.34 359.16 207.77 357.91 203.35 C 355.55 199.08 351.49 196.24 347.49 193.65 C 345.89 192.52 344.17 191.56 342.39 190.74 C 340.07 189.40 337.85 187.89 335.42 186.74 C 333.45 185.62 331.55 184.37 329.58 183.26 C 327.21 181.97 324.94 180.53 322.57 179.27 C 320.46 178.20 318.45 176.95 316.43 175.74 C 314.47 174.60 312.55 173.37 310.57 172.26 C 308.54 171.05 306.53 169.80 304.43 168.73 C 302.07 167.43 299.78 166.01 297.43 164.71 C 295.78 163.70 294.13 162.68 292.47 161.70 C 290.56 160.46 288.60 159.31 286.57 158.27 C 284.18 157.03 281.89 155.61 279.57 154.27 C 277.90 153.27 276.26 152.23 274.58 151.26 C 272.24 149.94 269.96 148.51 267.58 147.27 C 265.15 146.11 262.92 144.60 260.60 143.26 C 258.49 142.16 256.47 140.91 254.44 139.69 C 252.14 138.57 249.85 137.44 247.56 136.29 C 247.05 136.01 246.02 135.43 245.50 135.15 C 245.02 135.05 244.06 134.84 243.58 134.74 C 239.71 133.45 235.35 133.70 231.42 134.59 Z" />
</g>
<g id="#bb9122fe">
<path fill="#bb9122" stroke="#bb9122" stroke-width="0.09375" opacity="1.00" d=" M 132.45 172.28 C 136.33 170.56 139.47 166.84 143.68 166.19 C 149.90 170.35 156.27 174.27 162.59 178.28 C 165.36 179.82 167.95 181.65 170.62 183.36 C 187.27 193.98 203.84 204.72 220.55 215.26 C 241.56 228.58 262.60 241.85 283.54 255.27 C 292.29 260.57 300.71 266.43 309.45 271.74 C 321.02 279.02 332.40 286.60 344.06 293.74 C 354.10 300.71 365.08 306.21 374.97 313.39 C 375.06 323.43 374.99 333.47 374.97 343.52 C 372.23 347.82 369.39 352.53 364.58 354.76 C 362.89 355.73 361.25 356.79 359.56 357.75 C 358.17 358.57 356.82 359.44 355.44 360.27 C 349.59 363.31 344.43 367.55 338.39 370.24 C 336.72 371.21 335.10 372.27 333.43 373.25 C 329.98 375.08 327.01 377.70 323.43 379.28 C 320.70 380.56 318.19 382.23 315.59 383.73 C 313.85 384.63 312.17 385.61 310.54 386.69 C 309.18 387.55 307.84 388.44 306.46 389.26 C 304.46 390.34 302.55 391.57 300.62 392.77 C 297.73 393.95 295.04 395.57 292.44 397.28 C 288.68 399.19 285.29 401.72 281.60 403.75 C 278.74 404.99 276.11 406.68 273.45 408.28 C 268.32 410.80 263.67 414.16 258.58 416.75 C 256.56 417.71 254.57 418.71 252.57 419.71 C 251.20 420.40 249.85 421.10 248.51 421.83 C 248.03 421.94 247.06 422.15 246.58 422.26 C 242.66 423.31 238.35 425.06 234.37 423.32 C 232.05 422.93 229.75 422.42 227.50 421.73 C 226.49 421.38 225.48 421.05 224.46 420.74 C 219.93 418.66 215.89 415.71 211.56 413.28 C 208.85 411.66 206.33 409.74 203.55 408.25 C 202.16 407.44 200.81 406.55 199.43 405.73 C 194.04 402.74 188.92 399.29 183.56 396.26 C 181.57 394.99 179.56 393.72 177.41 392.73 C 175.41 391.66 173.47 390.48 171.54 389.28 C 169.89 388.25 168.25 387.20 166.56 386.26 C 164.29 384.81 162.00 383.40 159.56 382.28 C 157.43 381.27 155.44 380.00 153.45 378.75 C 149.12 376.32 145.19 373.19 140.55 371.31 C 137.73 369.96 135.26 367.99 132.39 366.73 C 130.44 365.59 128.54 364.37 126.57 363.26 C 124.91 362.27 123.28 361.23 121.59 360.28 C 119.18 359.05 116.93 357.54 114.51 356.31 C 111.27 354.39 108.99 351.30 106.24 348.78 C 104.33 347.12 103.33 344.76 102.26 342.53 C 101.93 341.51 101.59 340.50 101.24 339.50 C 100.93 336.00 99.82 332.59 99.96 329.05 C 100.17 308.89 99.73 288.71 100.18 268.56 C 101.27 263.91 101.19 259.13 100.16 254.49 C 99.85 247.26 99.90 239.99 100.20 232.77 C 101.30 231.19 101.45 229.23 101.18 227.39 C 100.75 219.27 101.15 211.12 100.96 202.99 C 100.82 200.09 101.41 197.25 102.20 194.48 C 103.31 192.83 104.35 191.14 105.36 189.43 C 111.08 184.94 117.39 181.32 123.39 177.25 C 126.46 175.68 129.34 173.77 132.45 172.28 M 138.57 185.51 C 137.21 186.47 135.87 187.45 134.46 188.32 C 133.16 189.11 131.85 189.91 130.55 190.70 C 126.54 193.26 122.16 195.56 119.20 199.42 C 116.79 202.72 116.24 206.97 116.00 210.94 C 116.01 230.61 115.98 250.28 116.02 269.95 C 116.15 274.02 114.80 277.96 114.98 282.03 C 115.07 294.70 114.91 307.37 115.05 320.04 C 115.94 323.82 115.67 327.78 116.65 331.52 C 117.10 333.21 117.60 334.89 118.14 336.57 C 119.38 337.79 120.66 339.06 121.26 340.75 C 123.55 342.78 126.01 344.61 128.53 346.34 C 130.20 347.35 131.86 348.36 133.60 349.26 C 135.57 350.36 137.43 351.64 139.41 352.74 C 141.74 354.06 144.00 355.51 146.40 356.71 C 148.58 357.71 150.57 359.03 152.59 360.30 C 154.96 361.56 157.22 363.01 159.58 364.29 C 162.03 365.43 164.30 366.87 166.58 368.29 C 168.56 369.38 170.47 370.57 172.42 371.71 C 174.51 372.82 176.51 374.10 178.58 375.27 C 180.26 376.23 181.88 377.29 183.54 378.29 C 185.19 379.33 186.86 380.36 188.59 381.26 C 190.30 382.20 191.91 383.29 193.57 384.30 C 195.61 385.27 197.60 386.36 199.45 387.68 C 201.11 388.68 202.74 389.74 204.41 390.76 C 205.80 391.58 207.15 392.47 208.56 393.28 C 209.85 394.08 211.15 394.88 212.44 395.70 C 214.13 396.66 215.77 397.70 217.43 398.71 C 218.82 399.55 220.16 400.47 221.57 401.31 C 223.19 402.09 224.80 402.90 226.38 403.78 C 231.97 406.37 238.73 406.89 244.58 405.22 C 245.08 405.13 246.07 404.96 246.56 404.88 C 247.50 404.33 248.45 403.78 249.40 403.25 C 251.49 402.44 253.50 401.43 255.45 400.32 C 257.14 399.35 258.81 398.33 260.46 397.28 C 262.21 396.52 263.90 395.63 265.61 394.78 C 267.27 393.77 268.89 392.70 270.55 391.69 C 272.19 390.63 273.86 389.62 275.58 388.70 C 278.31 387.44 280.85 385.83 283.42 384.28 C 284.82 383.45 286.17 382.54 287.58 381.73 C 289.57 380.66 291.45 379.40 293.40 378.26 C 296.23 376.93 298.83 375.20 301.55 373.69 C 302.19 373.39 303.47 372.79 304.12 372.49 C 304.17 372.45 304.28 372.37 304.33 372.33 C 306.93 370.50 309.72 368.97 312.40 367.27 C 314.48 366.11 316.48 364.83 318.59 363.72 C 320.60 362.68 322.55 361.52 324.45 360.29 C 325.84 359.45 327.18 358.54 328.59 357.74 C 330.56 356.64 332.43 355.36 334.41 354.27 C 336.09 353.31 337.71 352.24 339.40 351.27 C 341.52 350.19 343.52 348.91 345.59 347.73 C 346.89 346.95 348.18 346.16 349.45 345.33 C 351.66 343.96 353.89 342.57 355.75 340.75 C 356.51 339.22 357.50 337.82 358.46 336.42 C 359.65 331.20 358.70 325.74 359.00 320.42 C 357.43 319.60 355.95 318.62 354.41 317.75 C 352.71 316.80 351.10 315.72 349.44 314.72 C 348.13 313.92 346.83 313.12 345.55 312.30 C 344.16 311.45 342.83 310.53 341.44 309.71 C 340.15 308.90 338.85 308.10 337.57 307.29 C 336.18 306.45 334.84 305.54 333.45 304.71 C 332.17 303.87 330.87 303.07 329.58 302.26 C 328.18 301.42 326.83 300.51 325.44 299.68 C 324.43 299.02 323.43 298.38 322.42 297.76 C 321.11 296.96 319.82 296.15 318.55 295.31 C 317.16 294.47 315.81 293.57 314.42 292.74 C 313.13 291.92 311.83 291.12 310.55 290.29 C 308.89 289.28 307.28 288.20 305.57 287.28 C 303.13 285.85 300.86 284.14 298.41 282.72 C 296.69 281.80 295.08 280.71 293.42 279.71 C 292.11 278.93 290.82 278.13 289.54 277.31 C 288.16 276.46 286.83 275.53 285.45 274.71 C 284.15 273.90 282.85 273.10 281.56 272.29 C 280.18 271.45 278.84 270.54 277.45 269.70 C 276.17 268.87 274.88 268.07 273.59 267.26 C 272.19 266.42 270.83 265.51 269.43 264.68 C 268.43 264.01 267.44 263.36 266.43 262.74 C 265.12 261.94 263.83 261.14 262.55 260.31 C 261.16 259.47 259.82 258.56 258.43 257.72 C 257.14 256.90 255.85 256.11 254.55 255.30 C 253.17 254.46 251.83 253.54 250.46 252.70 C 249.17 251.87 247.87 251.07 246.57 250.28 C 245.18 249.46 243.84 248.54 242.43 247.74 C 239.63 246.28 237.15 244.29 234.42 242.72 C 232.71 241.80 231.10 240.71 229.45 239.70 C 228.17 238.87 226.87 238.06 225.58 237.26 C 224.18 236.41 222.83 235.51 221.44 234.68 C 220.44 234.01 219.44 233.36 218.42 232.74 C 217.12 231.94 215.82 231.14 214.55 230.31 C 213.16 229.47 211.82 228.56 210.43 227.72 C 209.14 226.90 207.85 226.10 206.56 225.28 C 205.18 224.44 203.84 223.53 202.45 222.70 C 201.17 221.86 199.88 221.06 198.58 220.27 C 197.56 219.64 196.56 218.99 195.57 218.33 C 193.90 217.31 192.26 216.24 190.57 215.28 C 189.16 214.45 187.82 213.53 186.45 212.67 C 185.20 211.79 183.91 210.99 182.59 210.25 C 181.17 209.45 179.82 208.54 178.42 207.73 C 177.10 206.96 175.81 206.16 174.54 205.32 C 173.16 204.46 171.83 203.54 170.44 202.71 C 169.13 201.92 167.83 201.13 166.55 200.30 C 165.16 199.46 163.82 198.54 162.44 197.71 C 161.15 196.89 159.85 196.08 158.57 195.27 C 157.18 194.43 155.83 193.52 154.45 192.69 C 153.17 191.85 151.88 191.05 150.59 190.25 C 149.57 189.63 148.56 188.98 147.56 188.34 C 145.79 187.28 144.08 186.12 142.44 184.89 C 141.14 185.01 139.83 185.17 138.57 185.51 Z" />
</g>
<g id="#212721ff">
<path fill="#212721" stroke="#212721" stroke-width="0.09375" opacity="1.00" d=" M 1210.71 178.75 C 1226.68 172.66 1244.28 170.99 1261.16 173.47 C 1273.83 175.46 1285.25 182.01 1295.40 189.59 C 1297.43 191.05 1300.48 192.92 1302.78 190.87 C 1306.40 186.91 1306.42 181.11 1307.17 176.07 C 1309.16 176.07 1311.16 176.07 1313.17 176.07 C 1312.16 197.37 1312.21 218.70 1312.15 240.02 C 1310.12 240.01 1308.11 240.01 1306.11 240.01 C 1304.45 228.76 1303.31 217.11 1298.23 206.77 C 1295.31 200.69 1290.59 195.73 1285.45 191.48 C 1273.90 180.99 1257.02 177.12 1241.92 180.59 C 1232.73 182.69 1224.81 188.62 1219.21 196.08 C 1208.41 210.02 1204.12 227.69 1201.82 244.85 C 1199.29 265.85 1199.67 287.34 1204.15 308.06 C 1207.63 324.27 1214.40 340.70 1227.45 351.52 C 1240.74 362.43 1260.35 362.76 1275.40 355.42 C 1281.08 352.80 1285.56 348.33 1290.16 344.20 C 1296.43 338.38 1300.11 330.33 1302.13 322.14 C 1304.16 313.71 1305.08 305.07 1306.14 296.48 C 1308.10 296.47 1310.08 296.45 1312.07 296.43 C 1312.32 318.62 1312.10 340.83 1313.17 363.00 C 1311.16 362.99 1309.16 363.00 1307.17 363.00 C 1306.53 358.33 1306.53 353.22 1303.90 349.13 C 1302.01 346.33 1298.32 347.59 1296.06 349.13 C 1288.96 353.79 1281.93 358.74 1273.94 361.80 C 1259.09 367.77 1242.60 367.54 1227.00 365.21 C 1208.08 362.23 1189.68 353.63 1176.68 339.33 C 1163.53 325.08 1156.26 306.17 1154.14 287.06 C 1151.45 263.11 1154.47 237.80 1166.69 216.68 C 1176.36 199.41 1192.22 185.80 1210.71 178.75 Z" />
<path fill="#212721" stroke="#212721" stroke-width="0.09375" opacity="1.00" d=" M 425.29 176.06 C 449.83 177.04 474.41 176.82 498.98 176.85 C 519.33 176.79 539.68 176.70 560.02 176.09 C 559.89 178.41 560.29 180.93 559.09 183.04 C 528.73 241.00 498.38 298.97 468.05 356.94 C 478.03 356.91 488.01 356.98 497.98 356.91 C 512.71 356.76 527.75 350.83 537.26 339.31 C 546.96 328.38 551.22 313.84 552.75 299.58 C 554.80 299.58 556.85 299.58 558.91 299.59 C 557.38 320.69 557.77 341.95 559.94 363.00 C 538.97 362.28 517.98 362.27 497.00 362.22 C 472.37 362.24 447.74 362.26 423.11 362.99 C 423.24 360.68 422.84 358.18 424.04 356.08 C 454.48 298.11 484.92 240.13 515.35 182.15 C 504.21 182.20 493.07 182.00 481.94 182.25 C 467.90 182.66 453.46 188.44 444.82 199.85 C 437.03 210.37 434.09 223.53 432.44 236.27 C 430.40 236.28 428.36 236.28 426.33 236.29 C 428.18 216.24 426.69 196.09 425.29 176.06 Z" />
<path fill="#212721" stroke="#212721" stroke-width="0.09375" opacity="1.00" d=" M 1546.08 201.05 C 1564.41 197.31 1584.51 197.41 1601.34 206.50 C 1605.83 208.46 1609.83 212.48 1615.01 212.21 C 1619.19 210.12 1618.82 204.51 1619.93 200.58 C 1621.90 200.58 1623.90 200.58 1625.92 200.58 C 1624.66 218.86 1624.76 237.19 1624.63 255.50 C 1622.60 255.49 1620.61 255.49 1618.62 255.48 C 1616.77 240.57 1611.55 225.20 1600.01 214.98 C 1589.76 205.68 1574.90 203.01 1561.58 205.44 C 1555.20 206.71 1548.75 209.59 1544.84 214.98 C 1540.42 220.97 1540.61 229.48 1544.13 235.85 C 1547.26 241.17 1551.94 245.41 1556.85 249.08 C 1571.83 259.42 1588.04 267.83 1603.29 277.75 C 1613.66 284.41 1623.37 292.84 1629.11 303.94 C 1634.81 315.77 1634.59 330.55 1627.96 341.96 C 1621.65 352.52 1610.44 359.15 1598.89 362.56 C 1585.97 366.40 1572.29 367.36 1558.90 366.31 C 1548.06 365.46 1537.85 361.36 1528.10 356.83 C 1524.39 355.36 1520.52 352.49 1516.41 353.60 C 1512.92 356.09 1513.08 361.01 1512.19 364.81 C 1510.18 364.81 1508.17 364.81 1506.20 364.82 C 1507.28 343.39 1507.14 321.94 1507.21 300.50 C 1509.21 300.49 1511.23 300.48 1513.27 300.48 C 1514.35 316.08 1518.17 332.27 1528.36 344.56 C 1535.36 353.27 1545.97 358.65 1556.99 360.02 C 1567.01 361.44 1578.13 360.78 1586.58 354.62 C 1592.81 350.25 1596.04 342.51 1595.33 334.99 C 1595.08 327.17 1590.01 320.62 1584.33 315.72 C 1572.41 305.77 1558.28 299.06 1545.23 290.80 C 1533.79 283.65 1522.48 275.60 1514.74 264.34 C 1506.59 253.16 1505.18 237.52 1511.01 225.02 C 1517.53 211.53 1531.96 204.03 1546.08 201.05 Z" />
<path fill="#212721" stroke="#212721" stroke-width="0.09375" opacity="1.00" d=" M 740.16 202.52 C 758.48 203.77 776.88 203.39 795.20 202.48 C 823.43 237.22 851.34 272.23 879.52 307.02 C 879.44 282.99 879.57 258.95 879.45 234.92 C 879.12 227.86 878.94 219.75 873.54 214.48 C 867.79 209.32 859.61 208.80 852.32 207.77 C 852.31 206.03 852.30 204.28 852.31 202.53 C 869.99 203.41 887.75 203.71 905.42 202.55 C 905.41 204.28 905.41 206.00 905.42 207.73 C 899.58 208.78 892.68 209.86 889.22 215.30 C 885.65 221.18 885.89 228.39 885.59 235.02 C 885.53 277.84 885.59 320.67 885.56 363.49 C 880.94 363.37 876.32 363.34 871.71 363.52 C 836.37 319.87 801.26 276.03 765.96 232.35 C 765.91 263.56 765.96 294.78 765.93 325.99 C 765.97 332.10 765.98 338.34 767.70 344.26 C 768.86 348.25 771.65 351.75 775.39 353.61 C 780.90 356.36 787.13 356.96 793.14 357.76 C 793.13 359.50 793.13 361.24 793.14 362.99 C 775.47 362.10 757.74 361.78 740.09 362.97 C 740.11 361.30 740.10 359.63 740.25 357.97 C 744.43 356.64 749.10 356.44 752.80 353.82 C 756.47 351.47 758.24 347.17 758.90 343.02 C 760.17 335.08 759.81 327.00 759.87 318.99 C 759.85 288.63 759.92 258.27 759.84 227.91 C 759.51 222.51 759.79 216.28 755.99 211.96 C 751.77 207.99 745.50 208.36 740.15 207.76 C 740.14 206.01 740.15 204.27 740.16 202.52 Z" />
<path fill="#212721" stroke="#212721" stroke-width="0.09375" opacity="1.00" d=" M 1403.05 202.05 C 1407.07 202.41 1411.11 202.43 1415.14 202.03 C 1436.30 248.54 1457.21 295.15 1478.37 341.65 C 1481.77 348.50 1486.25 356.47 1494.53 357.87 C 1494.54 359.57 1494.57 361.27 1494.61 362.98 C 1469.22 361.85 1443.78 362.00 1418.38 362.98 C 1418.36 361.25 1418.35 359.53 1418.37 357.81 C 1423.49 357.21 1429.39 357.15 1433.36 353.35 C 1436.94 349.19 1435.04 343.19 1433.34 338.62 C 1428.64 327.53 1423.70 316.55 1418.90 305.50 C 1400.35 305.56 1381.79 305.40 1363.23 305.58 C 1358.89 316.09 1353.66 326.59 1352.84 338.11 C 1352.49 343.20 1353.55 348.96 1357.75 352.31 C 1362.86 356.25 1369.53 357.18 1375.79 357.69 C 1375.81 359.46 1375.84 361.22 1375.89 363.00 C 1358.62 362.35 1341.28 361.62 1324.03 362.97 C 1324.01 361.27 1324.00 359.58 1324.01 357.89 C 1329.90 356.30 1334.58 352.05 1337.86 347.04 C 1343.79 338.36 1347.76 328.56 1351.96 318.98 C 1369.00 280.00 1386.00 241.02 1403.05 202.05 M 1365.69 300.21 C 1382.65 300.22 1399.61 300.22 1416.58 300.21 C 1408.17 281.00 1399.73 261.80 1391.31 242.60 C 1382.40 261.63 1374.27 281.03 1365.69 300.21 Z" />
<path fill="#212721" stroke="#212721" stroke-width="0.09375" opacity="1.00" d=" M 1652.91 202.53 C 1679.52 203.62 1706.20 203.55 1732.82 202.51 C 1732.80 204.26 1732.81 206.01 1732.84 207.76 C 1727.11 208.42 1719.89 207.88 1716.00 212.99 C 1712.87 218.04 1713.32 224.32 1713.09 230.03 C 1713.10 246.21 1713.08 262.39 1713.11 278.57 C 1735.69 278.56 1758.28 278.53 1780.87 278.59 C 1780.93 261.72 1780.93 244.86 1780.87 227.99 C 1780.57 222.58 1780.83 216.39 1777.08 212.05 C 1772.83 208.00 1766.46 208.37 1761.04 207.76 C 1761.03 206.01 1761.01 204.27 1761.04 202.53 C 1787.71 203.53 1814.44 203.64 1841.11 202.53 C 1841.07 204.27 1841.09 206.02 1841.10 207.77 C 1835.67 208.35 1829.26 207.96 1825.05 212.04 C 1821.27 216.40 1821.57 222.61 1821.28 228.03 C 1821.21 261.69 1821.27 295.34 1821.25 328.99 C 1821.29 335.33 1820.96 341.74 1822.32 347.98 C 1822.97 351.00 1824.73 353.95 1827.62 355.31 C 1831.80 357.29 1836.56 357.35 1841.10 357.77 C 1841.08 359.50 1841.08 361.25 1841.11 362.99 C 1814.42 361.84 1787.67 361.99 1760.99 362.99 C 1760.99 361.30 1760.98 359.62 1761.14 357.94 C 1766.55 356.85 1773.13 357.67 1777.27 353.25 C 1780.75 349.04 1780.53 343.15 1780.86 337.99 C 1780.96 319.94 1780.88 301.89 1780.90 283.85 C 1758.30 283.85 1735.70 283.84 1713.09 283.85 C 1713.09 300.58 1713.10 317.30 1713.09 334.03 C 1713.29 340.08 1712.77 346.65 1715.85 352.11 C 1719.57 357.52 1726.95 357.15 1732.78 357.73 C 1732.79 359.48 1732.81 361.23 1732.85 362.99 C 1706.22 361.97 1679.54 361.85 1652.91 362.99 C 1652.89 361.25 1652.88 359.51 1652.90 357.78 C 1658.94 357.09 1667.02 357.58 1670.38 351.37 C 1673.08 345.30 1672.44 338.41 1672.63 331.94 C 1672.59 297.27 1672.67 262.61 1672.59 227.95 C 1672.27 222.38 1672.57 215.87 1668.37 211.61 C 1664.11 208.03 1658.12 208.32 1652.91 207.76 C 1652.89 206.02 1652.88 204.27 1652.91 202.53 Z" />
<path fill="#212721" stroke="#212721" stroke-width="0.09375" opacity="1.00" d=" M 579.91 202.53 C 604.94 203.16 629.99 203.24 655.04 203.28 C 674.76 203.26 694.49 203.33 714.21 202.54 C 712.64 218.51 711.77 234.62 713.04 250.66 C 711.07 250.62 709.12 250.60 707.16 250.59 C 704.68 237.65 700.87 223.47 689.84 215.14 C 679.86 207.67 666.77 208.45 654.97 208.60 C 650.91 208.84 646.11 208.81 643.14 212.06 C 640.19 215.64 640.26 220.62 640.10 225.03 C 640.11 243.23 640.05 261.42 640.13 279.62 C 645.12 279.51 650.12 279.76 655.11 279.45 C 660.60 279.10 666.10 276.79 669.65 272.50 C 674.63 266.35 677.52 258.78 679.17 251.11 C 681.18 251.11 683.19 251.10 685.21 251.11 C 683.62 271.83 684.34 292.68 685.98 313.38 C 683.97 313.37 681.98 313.37 679.99 313.37 C 678.35 304.24 674.98 294.50 667.17 288.86 C 659.22 283.40 649.15 285.18 640.10 284.88 C 640.09 302.90 640.10 320.92 640.09 338.94 C 640.20 343.53 639.98 348.53 642.47 352.59 C 645.18 356.64 650.61 356.69 654.96 356.90 C 666.27 356.89 678.27 357.97 688.70 352.67 C 698.79 347.74 704.88 337.43 708.25 327.10 C 710.20 321.39 711.33 315.45 712.53 309.54 C 714.49 309.58 716.45 309.62 718.43 309.66 C 716.97 327.42 717.90 345.28 719.49 363.00 C 699.66 362.23 679.81 362.26 659.97 362.22 C 633.29 362.25 606.60 362.31 579.92 363.00 C 579.90 361.26 579.88 359.53 579.87 357.80 C 585.00 357.19 590.76 357.46 595.10 354.21 C 599.58 350.18 599.23 343.56 599.58 338.04 C 599.66 301.33 599.64 264.63 599.59 227.93 C 599.27 222.37 599.57 215.86 595.36 211.60 C 591.11 208.03 585.12 208.32 579.91 207.76 C 579.90 206.01 579.90 204.27 579.91 202.53 Z" />
<path fill="#212721" stroke="#212721" stroke-width="0.09375" opacity="1.00" d=" M 919.22 202.53 C 956.81 203.51 994.41 203.30 1032.01 203.19 C 1046.62 203.09 1061.23 202.98 1075.83 202.52 C 1074.02 222.18 1073.12 242.00 1074.80 261.70 C 1072.75 261.67 1070.72 261.65 1068.70 261.61 C 1066.20 248.81 1063.40 235.69 1056.73 224.32 C 1052.79 217.65 1046.48 212.26 1038.92 210.25 C 1032.04 208.19 1024.79 208.58 1017.71 208.57 C 1017.70 247.06 1017.71 285.55 1017.71 324.03 C 1017.80 331.37 1017.26 338.84 1019.01 346.04 C 1019.93 350.14 1022.84 353.79 1026.85 355.21 C 1032.44 357.28 1038.50 357.37 1044.39 357.75 C 1044.37 359.49 1044.38 361.24 1044.39 362.99 C 1013.17 361.93 981.89 361.86 950.67 362.99 C 950.66 361.24 950.66 359.49 950.67 357.75 C 957.46 357.22 964.83 357.46 970.86 353.82 C 976.91 349.72 976.99 341.58 977.31 335.04 C 977.41 292.89 977.33 250.73 977.36 208.57 C 967.20 208.40 956.12 208.19 947.44 214.33 C 937.73 221.24 933.50 233.06 930.37 244.07 C 928.75 249.87 927.53 255.76 926.42 261.67 C 924.41 261.67 922.41 261.67 920.42 261.67 C 921.79 241.97 921.16 222.17 919.22 202.53 Z" />
</g>
<g id="#a68f54cb">
<path fill="#a68f54" stroke="#a68f54" stroke-width="0.09375" opacity="0.80" d=" M 100.79 227.27 L 101.18 227.39 C 101.45 229.23 101.30 231.19 100.20 232.77 C 99.44 231.11 99.41 228.61 100.79 227.27 Z" />
</g>
<g id="#a88323e2">
<path fill="#a88323" stroke="#a88323" stroke-width="0.09375" opacity="0.89" d=" M 100.16 254.49 C 101.19 259.13 101.27 263.91 100.18 268.56 C 99.89 263.87 99.90 259.17 100.16 254.49 Z" />
</g>
<g id="#785311ff">
<path fill="#785311" stroke="#785311" stroke-width="0.09375" opacity="1.00" d=" M 304.12 372.49 C 304.17 372.45 304.28 372.37 304.33 372.33 C 304.28 372.37 304.17 372.45 304.12 372.49 Z" />
</g>
</svg>
